{"glyphs":{"0":{"ha":679,"x_min":35,"x_max":644,"o":"m 339 976 q 458 938 403 976 q 556 832 514 899 q 621 676 597 765 q 644 483 644 586 q 621 290 644 381 q 556 133 597 200 q 458 28 514 67 q 339 -11 403 -11 q 221 28 276 -11 q 124 133 165 67 q 58 290 82 200 q 35 483 35 381 q 58 676 35 586 q 124 832 82 765 q 221 938 165 899 q 339 976 276 976 m 339 1 q 424 40 385 1 q 493 144 464 78 q 540 297 522 210 q 557 483 557 385 q 540 669 557 582 q 493 822 522 757 q 424 926 464 888 q 339 965 385 965 q 255 926 294 965 q 186 822 215 888 q 140 669 157 757 q 122 483 122 582 q 140 297 122 385 q 186 144 157 210 q 255 40 215 78 q 339 1 294 1 z "},"1":{"ha":304,"x_min":21,"x_max":283,"o":"m 193 463 q 194 269 193 347 q 197 140 194 190 q 204 64 199 90 q 219 26 210 38 q 245 13 229 14 q 283 11 261 11 l 283 0 l 21 0 l 21 11 q 60 13 44 11 q 85 26 75 14 q 101 64 96 38 q 109 140 107 90 q 112 269 111 190 q 113 463 113 347 l 113 767 l 64 651 l 50 651 q 97 800 76 733 q 115 858 106 829 q 130 910 124 886 q 140 952 136 935 q 144 976 144 969 l 193 976 l 193 463 z "},"2":{"ha":615,"x_min":35,"x_max":581,"o":"m 54 164 q 94 258 61 219 q 174 327 128 296 q 273 389 221 358 q 369 460 325 419 q 442 559 413 501 q 471 701 471 617 q 458 801 471 753 q 422 885 446 849 q 367 943 399 921 q 294 965 335 965 q 223 938 256 965 q 164 853 190 911 q 117 704 138 796 q 81 483 96 613 l 64 483 l 115 908 q 165 943 138 928 q 221 966 189 956 q 293 976 253 976 q 407 948 357 976 q 491 875 457 919 q 542 776 525 831 q 560 671 560 722 q 526 525 560 585 q 440 422 492 465 q 328 346 389 378 q 213 281 267 314 q 122 211 160 249 q 76 121 83 174 l 68 43 l 343 43 q 406 56 375 43 q 467 113 438 68 q 521 246 496 158 q 564 483 546 333 l 581 483 l 522 0 l 35 0 l 54 164 z "},"3":{"ha":653,"x_min":35,"x_max":617,"o":"m 349 483 q 468 465 418 483 q 551 413 518 446 q 601 334 585 379 q 617 236 617 289 q 596 146 617 190 q 536 67 575 101 q 441 10 497 32 q 313 -11 385 -11 q 197 0 249 -11 q 110 25 146 11 q 35 61 68 40 l 81 442 l 97 442 q 91 222 81 307 q 131 88 101 136 q 208 20 161 39 q 313 1 256 1 q 396 22 357 1 q 465 75 435 42 q 513 151 496 108 q 531 236 531 193 q 462 410 531 347 q 246 472 393 472 l 246 486 q 425 550 371 486 q 479 726 479 614 q 467 819 479 775 q 433 895 456 863 q 381 947 411 928 q 314 965 350 965 q 195 860 240 965 q 121 525 150 754 l 104 525 l 150 908 q 194 943 169 928 q 246 966 215 956 q 313 976 276 976 q 415 954 369 976 q 494 896 461 932 q 546 815 528 860 q 564 726 564 771 q 547 634 564 678 q 501 557 531 590 q 433 503 472 524 q 349 483 393 483 z "},"4":{"ha":606,"x_min":21,"x_max":571,"o":"m 482 171 q 490 77 485 110 q 504 30 494 44 q 530 14 514 15 q 571 13 546 13 l 571 0 l 308 0 l 308 13 q 349 14 333 13 q 375 30 365 15 q 390 77 385 44 q 397 171 396 110 l 21 171 q 103 301 67 217 q 167 493 139 385 q 217 726 196 601 q 254 978 239 851 l 269 978 q 240 728 254 846 q 228 625 235 678 q 215 523 221 572 q 205 432 210 474 q 196 361 200 390 q 188 267 189 301 q 205 215 186 232 q 269 197 224 199 q 397 201 314 196 q 399 314 399 250 q 399 463 399 378 l 399 978 l 479 978 l 479 463 q 479 318 479 381 q 481 208 479 256 q 513 212 496 211 q 549 215 531 213 l 549 171 l 482 171 z "},"5":{"ha":639,"x_min":35,"x_max":603,"o":"m 285 647 q 399 629 342 647 q 501 572 456 611 q 574 470 546 532 q 603 319 603 408 q 585 206 603 264 q 528 99 567 147 q 430 20 490 51 q 283 -11 369 -11 q 190 0 235 -11 q 110 25 144 11 q 35 61 69 40 l 81 442 l 96 442 q 91 222 79 307 q 132 88 103 136 q 202 20 161 39 q 285 1 243 1 q 396 35 351 1 q 467 117 440 68 q 506 220 494 165 q 517 319 517 275 q 501 437 517 381 q 455 537 485 493 q 382 607 425 581 q 285 633 339 633 q 186 608 228 633 q 117 554 144 583 q 61 474 83 518 l 44 474 l 104 976 l 586 976 l 554 713 l 538 713 q 523 858 546 807 q 454 933 500 910 q 342 961 408 957 q 197 965 276 965 l 153 604 q 189 626 168 617 q 231 640 207 633 q 285 647 256 647 z "},"6":{"ha":674,"x_min":35,"x_max":639,"o":"m 321 657 q 435 639 378 657 q 537 581 492 621 q 610 478 582 540 q 639 325 639 415 q 622 210 639 269 q 567 101 604 150 q 472 20 529 51 q 336 -11 415 -11 q 218 11 274 -11 q 122 78 163 33 q 58 192 82 124 q 35 354 35 261 q 50 464 35 408 q 91 574 65 519 q 149 678 117 628 q 217 774 182 729 q 397 976 296 879 l 414 968 q 329 867 371 924 q 253 752 293 818 q 181 604 213 686 l 189 614 q 225 636 204 626 q 267 650 243 643 q 321 657 292 657 m 336 1 q 422 31 382 1 q 490 106 461 60 q 536 209 519 151 q 553 325 553 267 q 538 445 553 388 q 493 547 522 503 q 421 618 464 592 q 321 644 378 644 q 224 608 268 644 q 150 513 179 571 q 130 417 138 465 q 122 315 122 368 q 142 160 122 221 q 192 63 161 99 q 262 15 224 28 q 336 1 300 1 z "},"7":{"ha":522,"x_min":7,"x_max":515,"o":"m 435 976 l 456 976 l 515 976 l 356 463 q 296 269 319 347 q 259 140 272 190 q 243 64 246 90 q 247 26 240 38 q 269 13 254 14 q 307 11 283 11 l 307 0 l 44 0 l 44 11 q 83 13 67 11 q 113 26 99 14 q 140 64 126 38 q 172 140 154 90 q 215 269 190 190 q 275 463 239 347 q 316 595 294 526 q 358 728 338 664 q 395 846 378 792 q 422 933 413 900 l 225 933 q 153 916 183 933 q 99 854 122 899 q 57 735 75 810 q 24 546 39 661 l 7 546 l 58 976 l 215 976 l 435 976 z "},"8":{"ha":658,"x_min":35,"x_max":622,"o":"m 443 497 q 512 465 479 483 q 569 419 544 446 q 608 357 593 393 q 622 272 622 321 q 602 165 622 217 q 544 75 582 114 q 451 13 506 36 q 328 -11 396 -11 q 210 10 264 -11 q 118 66 157 31 q 57 150 79 101 q 35 254 35 199 q 51 337 35 299 q 93 406 68 375 q 149 463 118 438 q 206 506 179 488 q 149 539 175 521 q 102 581 122 557 q 71 638 82 606 q 60 711 60 669 q 81 817 60 768 q 140 901 103 865 q 225 956 176 936 q 328 976 274 976 q 432 958 383 976 q 517 907 481 939 q 574 832 553 875 q 594 739 594 789 q 581 661 594 697 q 544 594 567 625 q 495 540 522 564 q 443 497 468 515 m 146 728 q 169 640 146 675 q 232 583 193 606 q 319 543 271 560 q 414 508 367 526 q 478 603 447 546 q 510 739 510 661 q 501 813 510 774 q 472 887 493 853 q 417 943 451 921 q 328 965 382 965 q 244 945 279 965 q 188 892 210 925 q 156 816 167 858 q 146 728 146 774 m 328 1 q 481 72 426 1 q 536 256 536 142 q 507 351 536 314 q 433 413 478 388 q 334 456 389 438 q 228 496 279 474 q 191 453 210 478 q 157 399 172 429 q 131 333 142 369 q 121 254 121 296 q 139 148 121 194 q 186 69 157 101 q 253 19 215 36 q 328 1 290 1 z "},"9":{"ha":672,"x_min":35,"x_max":639,"o":"m 353 308 q 239 326 296 308 q 137 385 182 344 q 63 488 92 425 q 35 642 35 551 q 52 756 35 697 q 107 865 69 815 q 201 945 144 914 q 338 976 258 976 q 456 954 400 976 q 551 887 511 932 q 615 773 592 842 q 639 611 639 704 q 612 465 639 539 q 544 322 585 390 q 458 192 504 253 q 276 -11 378 86 l 260 -3 q 344 99 303 42 q 421 214 381 147 q 493 363 461 281 l 485 351 q 449 331 469 339 q 407 315 431 322 q 353 308 383 308 m 338 964 q 251 935 290 964 q 182 861 211 907 q 137 758 153 815 q 121 642 121 700 q 136 522 121 579 q 181 419 151 464 q 253 348 210 375 q 353 321 297 321 q 450 358 406 321 q 524 453 494 394 q 544 549 536 500 q 551 650 551 599 q 532 806 551 744 q 481 902 513 867 q 412 951 450 938 q 338 964 374 964 z "},"\u0000":{"ha":0,"x_min":0,"x_max":0,"o":""},"\r":{"ha":347,"x_min":0,"x_max":0,"o":""}," ":{"ha":411,"x_min":0,"x_max":0,"o":""},"A":{"ha":718,"x_min":0,"x_max":718,"o":"m 661 33 q 697 13 679 15 q 718 11 715 11 l 718 0 l 440 0 l 440 11 q 497 15 476 11 q 522 43 517 18 q 515 125 526 68 q 472 290 503 182 q 444 255 464 268 q 390 242 425 242 q 338 253 364 242 q 288 278 313 264 q 242 303 264 292 q 204 314 221 314 q 190 310 196 314 q 179 293 183 306 q 138 127 150 185 q 131 44 126 69 q 157 15 136 18 q 213 11 178 11 l 213 0 l 0 0 l 0 11 q 24 13 7 11 q 57 33 40 15 q 86 76 72 47 q 117 158 100 106 q 157 290 135 211 q 211 483 179 369 q 256 643 236 574 q 289 763 275 713 q 313 849 303 814 q 328 907 322 885 q 344 967 343 960 l 365 967 q 382 904 367 958 q 424 760 396 858 q 503 483 451 663 q 559 290 536 369 q 600 159 582 211 q 633 78 618 107 q 661 33 647 49 m 449 296 q 462 304 458 296 q 463 325 465 313 q 441 399 453 360 q 417 483 429 439 q 363 669 385 593 q 322 799 340 746 q 284 669 306 746 q 232 483 263 593 q 211 408 221 443 q 192 343 201 374 q 227 361 207 354 q 275 368 247 368 q 329 357 304 368 q 375 332 354 346 q 414 307 396 318 q 449 296 432 296 z "},"B":{"ha":696,"x_min":7,"x_max":661,"o":"m 313 515 q 572 455 482 507 q 661 290 661 403 q 619 158 661 213 q 511 68 576 103 q 367 17 446 33 q 215 0 289 0 l 7 0 l 7 11 q 54 13 35 11 q 86 26 74 14 q 106 66 99 39 q 116 146 113 93 q 120 281 119 199 q 121 483 121 363 q 120 686 121 604 q 116 820 119 768 q 106 900 113 872 q 86 940 99 928 q 54 953 74 951 q 7 954 35 954 l 7 967 l 207 967 q 517 921 410 967 q 625 764 625 875 q 599 667 625 710 q 528 594 572 625 q 428 544 485 564 q 313 515 372 525 m 525 764 q 505 852 525 817 q 444 909 485 888 q 344 940 404 931 q 207 950 285 949 l 207 518 l 225 518 q 331 540 278 524 q 428 585 385 556 q 498 658 471 614 q 525 764 525 703 m 207 17 q 326 33 264 19 q 440 79 388 47 q 525 163 492 111 q 558 290 558 214 q 535 393 558 351 q 468 460 513 435 q 358 495 424 485 q 207 506 293 506 l 207 483 l 207 17 z "},"C":{"ha":676,"x_min":35,"x_max":642,"o":"m 393 3 q 462 22 428 3 q 526 93 496 40 q 583 240 557 146 q 626 483 608 333 l 642 483 l 583 -11 l 569 -11 q 567 17 568 4 q 560 36 564 28 q 550 44 557 44 q 534 36 544 44 q 505 17 524 28 q 459 -2 486 7 q 394 -11 432 -11 q 254 28 319 -11 q 140 133 189 67 q 63 290 92 200 q 35 483 35 381 q 63 676 35 586 q 140 832 92 765 q 254 938 189 899 q 394 976 319 976 q 459 967 432 976 q 505 948 486 958 q 535 928 524 938 q 554 919 547 919 q 569 928 563 919 q 581 949 575 938 q 590 976 586 961 l 604 976 l 550 525 l 535 525 q 543 745 550 660 q 514 879 536 831 q 460 946 492 928 q 393 964 428 964 q 294 926 340 964 q 213 822 247 888 q 159 669 179 756 q 139 483 139 582 q 159 297 139 385 q 213 144 179 210 q 294 41 247 79 q 393 3 340 3 z "},"D":{"ha":696,"x_min":7,"x_max":661,"o":"m 231 967 q 415 944 335 967 q 550 871 496 921 q 633 740 604 821 q 661 542 661 658 q 619 294 661 397 q 511 126 576 192 q 367 31 446 61 q 217 0 289 0 l 8 0 l 8 11 q 56 13 38 11 q 88 26 75 14 q 107 66 100 39 q 117 146 114 93 q 120 281 119 199 q 121 483 121 363 q 120 686 121 604 q 117 820 119 768 q 107 900 114 872 q 88 940 100 928 q 55 953 75 951 q 7 954 35 954 l 7 967 l 231 967 m 215 17 q 333 42 272 17 q 444 129 394 68 q 526 291 494 190 q 558 542 558 392 q 540 737 558 658 q 483 863 522 815 q 381 930 443 910 q 231 950 318 950 l 208 950 l 208 483 l 208 17 l 215 17 z "},"E":{"ha":676,"x_min":35,"x_max":642,"o":"m 392 1 q 460 20 426 1 q 525 92 494 39 q 581 240 556 146 q 625 483 607 333 l 642 483 l 582 -11 l 568 -11 q 565 17 567 4 q 559 36 563 28 q 549 44 556 44 q 533 36 543 44 q 504 17 522 28 q 459 -2 486 7 q 394 -11 432 -11 q 254 28 319 -11 q 140 133 189 67 q 63 290 92 200 q 35 483 35 381 q 63 676 35 586 q 140 832 92 765 q 254 938 189 899 q 394 976 319 976 q 458 967 432 976 q 503 948 485 958 q 534 928 522 938 q 554 919 546 919 q 568 928 561 919 q 579 949 575 938 q 590 976 585 961 l 604 976 l 550 524 l 533 524 q 542 744 550 658 q 513 878 535 829 q 459 946 492 928 q 392 964 426 964 q 292 926 339 964 q 212 822 246 888 q 158 669 178 756 q 138 483 138 582 q 140 428 138 456 q 144 375 142 401 q 168 490 142 443 q 263 536 194 536 q 314 524 290 536 q 358 496 338 511 q 395 468 378 481 q 428 456 413 456 q 448 467 439 456 q 461 513 457 478 l 474 513 q 465 468 471 489 q 448 431 460 447 q 416 406 436 415 q 364 397 396 397 q 315 410 339 397 q 271 437 292 422 q 231 464 250 451 q 197 476 213 476 q 170 452 179 476 q 161 388 161 428 q 183 219 161 292 q 238 98 204 146 q 313 26 272 50 q 392 1 354 1 z "},"F":{"ha":575,"x_min":7,"x_max":568,"o":"m 568 967 l 528 635 l 511 635 q 519 811 524 747 q 499 907 514 875 q 461 947 483 939 q 415 954 439 954 l 319 954 q 274 953 293 954 q 242 942 254 951 q 222 908 229 932 q 212 839 215 883 q 208 724 208 794 q 207 549 207 653 q 246 564 218 564 q 270 558 258 564 q 292 544 282 551 q 310 531 301 538 q 325 525 318 525 q 334 531 331 525 q 340 553 338 536 q 344 589 342 564 q 351 644 347 614 q 358 706 354 675 q 364 763 361 738 l 393 763 l 332 254 l 315 254 l 339 521 q 324 503 333 510 q 294 496 314 496 q 271 502 282 496 q 250 515 260 508 q 231 528 240 522 q 215 535 222 535 q 207 531 208 535 l 207 483 q 208 281 207 363 q 211 147 208 200 q 220 67 214 94 q 239 26 226 39 q 256 17 246 21 q 282 13 265 14 q 324 11 299 11 q 386 11 349 11 l 386 0 l 7 0 l 7 11 q 54 13 35 11 q 86 26 74 14 q 106 66 99 39 q 115 146 113 93 q 119 281 118 199 q 119 483 119 363 q 119 686 119 604 q 115 820 118 768 q 106 900 113 872 q 86 940 99 928 q 54 953 74 951 q 7 954 35 954 l 7 967 l 568 967 z "},"G":{"ha":731,"x_min":36,"x_max":696,"o":"m 696 513 l 696 496 q 676 485 683 496 q 664 447 668 474 q 658 378 660 421 q 657 275 657 336 l 657 0 l 643 0 l 610 164 q 561 76 590 115 q 494 17 535 44 q 396 -11 454 -11 q 256 28 321 -11 q 142 133 190 67 q 65 290 93 200 q 36 483 36 381 q 65 676 36 586 q 142 832 93 765 q 256 938 190 899 q 396 976 321 976 q 460 967 433 976 q 505 948 486 958 q 535 928 524 938 q 556 919 547 919 q 569 928 563 919 q 581 949 576 938 q 592 976 586 961 l 606 976 l 560 600 l 543 600 q 540 776 550 706 q 510 888 531 846 q 459 946 489 929 q 393 963 429 963 q 294 924 340 963 q 213 821 247 886 q 159 669 179 756 q 139 483 139 582 q 159 297 139 385 q 213 144 179 210 q 294 41 247 79 q 393 3 340 3 q 484 40 447 3 q 543 131 521 76 q 575 245 565 185 q 585 353 585 306 l 585 496 l 450 496 q 403 492 431 496 q 347 470 375 488 q 297 417 319 453 q 267 321 275 382 l 251 321 l 275 513 l 696 513 z "},"H":{"ha":781,"x_min":7,"x_max":774,"o":"m 461 967 l 774 967 l 774 954 q 726 953 746 954 q 694 940 707 951 q 675 900 682 928 q 665 820 668 872 q 662 686 663 768 q 661 483 661 604 q 662 281 661 363 q 665 146 663 199 q 675 66 668 93 q 694 26 682 39 q 726 13 707 14 q 774 11 746 11 l 774 0 l 461 0 l 461 11 q 515 14 494 11 q 549 38 536 17 q 567 104 561 58 q 576 236 574 150 q 581 456 579 322 q 585 786 582 590 q 575 704 581 746 q 565 625 569 663 q 558 558 561 588 q 551 513 554 529 q 543 468 549 489 q 525 431 538 447 q 492 406 513 415 q 439 397 471 397 q 390 410 414 397 q 346 437 367 422 q 306 464 325 451 q 271 476 288 476 q 253 466 260 476 q 242 421 246 456 l 210 153 q 219 72 214 103 q 240 26 225 42 q 272 13 253 14 q 321 11 292 11 l 321 0 l 7 0 l 7 11 q 56 13 36 11 q 88 26 75 14 q 107 66 100 39 q 117 146 114 93 q 120 281 119 199 q 121 483 121 363 q 120 686 121 604 q 117 820 119 768 q 107 900 114 872 q 88 940 100 928 q 55 953 75 951 q 7 954 35 954 l 7 967 l 321 967 l 321 954 q 267 951 288 954 q 233 928 246 949 q 213 863 219 908 q 204 731 207 817 q 201 510 201 644 q 197 179 200 376 l 225 421 q 234 465 228 444 q 253 502 240 486 q 285 527 265 518 q 338 536 306 536 q 389 524 365 536 q 433 497 413 511 q 470 469 453 482 q 503 457 488 457 q 523 467 514 457 q 536 513 532 478 q 541 558 538 526 q 550 633 544 590 q 561 722 556 675 q 572 813 567 769 q 562 894 568 864 q 542 939 556 924 q 509 953 529 951 q 461 954 489 954 l 461 967 z "},"I":{"ha":328,"x_min":7,"x_max":321,"o":"m 7 967 l 321 967 l 321 954 q 273 953 293 954 q 240 940 253 951 q 221 900 228 928 q 211 820 214 872 q 208 686 208 768 q 207 483 207 604 q 208 281 207 363 q 211 146 208 199 q 221 66 214 93 q 240 26 228 39 q 273 13 253 14 q 321 11 293 11 l 321 0 l 7 0 l 7 11 q 56 13 36 11 q 88 26 75 14 q 107 66 100 39 q 117 146 114 93 q 120 281 119 199 q 121 483 121 363 q 120 686 121 604 q 117 820 119 768 q 107 900 114 872 q 88 940 100 928 q 55 953 75 951 q 7 954 35 954 l 7 967 z "},"J":{"ha":613,"x_min":7,"x_max":578,"o":"m 578 967 l 578 954 q 538 953 554 954 q 512 947 522 953 q 497 925 501 940 q 492 882 492 910 q 499 770 492 836 q 515 633 507 704 q 531 495 524 563 q 539 378 539 428 q 517 211 539 279 q 458 100 494 143 q 375 34 421 57 q 283 1 329 11 q 192 -10 236 -8 q 118 -11 149 -11 q 72 -10 92 -11 q 36 -6 51 -8 q 7 0 19 -3 l 7 15 q 39 10 21 11 q 121 3 71 3 q 369 92 285 3 q 453 376 453 181 q 450 451 453 404 q 442 553 447 497 q 428 669 436 610 q 408 783 419 729 q 382 877 397 836 q 349 936 367 918 q 322 951 338 947 q 288 954 307 954 l 264 954 q 189 929 219 954 q 138 848 158 904 q 101 702 117 792 q 69 483 85 613 l 53 483 l 111 967 l 578 967 z "},"K":{"ha":713,"x_min":7,"x_max":713,"o":"m 340 483 q 452 281 407 363 q 529 146 497 199 q 583 66 561 93 q 624 26 606 39 q 663 13 643 14 q 713 11 683 11 l 713 0 l 399 0 l 399 11 q 445 13 426 11 q 470 26 464 14 q 468 65 476 38 q 435 144 460 93 q 366 277 410 196 q 257 478 322 358 q 231 435 243 456 q 207 396 218 415 q 210 169 207 249 q 224 56 213 90 q 258 16 235 21 q 321 11 281 11 l 321 -1 l 7 -1 l 7 11 q 56 13 36 11 q 88 26 75 14 q 107 65 100 38 q 117 145 114 93 q 120 279 119 197 q 121 482 121 361 q 120 685 121 603 q 117 819 119 767 q 107 900 114 872 q 88 940 100 928 q 55 953 75 951 q 7 954 35 954 l 7 967 l 321 967 l 321 954 q 273 953 293 954 q 240 940 253 951 q 221 900 228 928 q 211 819 214 872 q 208 685 208 767 q 207 482 207 603 l 207 431 q 222 456 214 443 q 239 482 231 468 q 360 685 311 603 q 437 819 408 767 q 475 900 465 872 q 479 940 485 928 q 455 953 474 951 q 408 954 436 954 l 408 967 l 657 967 l 657 954 q 610 953 631 954 q 572 942 590 951 q 532 908 553 932 q 481 840 511 885 q 407 726 450 796 q 301 553 364 656 q 320 519 311 536 q 340 483 329 501 z "},"L":{"ha":557,"x_min":7,"x_max":557,"o":"m 319 11 q 383 28 351 11 q 443 97 414 46 q 498 241 472 149 q 542 483 524 333 l 557 483 l 500 0 l 7 0 l 7 11 q 54 13 35 11 q 86 26 74 14 q 106 66 99 39 q 115 146 113 93 q 119 281 118 199 q 119 483 119 363 q 119 686 119 604 q 115 820 118 768 q 106 900 113 872 q 86 940 99 928 q 54 953 74 951 q 7 954 35 954 l 7 967 l 319 967 l 319 954 q 272 953 292 954 q 240 940 253 951 q 221 900 228 928 q 211 820 214 872 q 208 686 208 768 q 207 483 207 604 q 208 281 207 363 q 211 146 208 199 q 221 66 214 93 q 240 26 228 39 q 272 13 253 14 q 319 11 292 11 z "},"M":{"ha":985,"x_min":7,"x_max":978,"o":"m 779 967 l 978 967 l 978 954 q 931 953 950 954 q 899 940 911 951 q 879 900 886 928 q 869 820 872 872 q 866 686 867 768 q 865 483 865 604 q 866 281 865 363 q 869 146 867 199 q 879 66 872 93 q 899 26 886 39 q 931 13 911 14 q 978 11 950 11 l 978 0 l 665 0 l 665 11 q 714 13 694 11 q 746 26 733 14 q 765 66 758 39 q 775 146 772 93 q 778 281 778 199 q 779 483 779 363 l 779 906 q 723 741 760 847 q 636 483 686 635 l 474 0 l 453 0 l 283 483 q 192 749 225 653 q 142 893 158 844 l 142 483 q 142 281 142 363 q 146 146 143 199 q 156 66 149 93 q 175 26 163 39 q 207 13 188 14 q 254 11 226 11 l 254 0 l 7 0 l 7 11 q 56 13 36 11 q 88 26 75 14 q 107 66 100 39 q 117 146 114 93 q 120 281 119 199 q 121 483 121 363 q 120 686 121 604 q 117 820 119 768 q 107 900 114 872 q 88 940 100 928 q 55 953 75 951 q 7 954 35 954 l 7 967 l 203 967 l 371 483 q 444 272 413 363 q 494 126 475 181 q 542 265 513 179 q 615 483 571 351 l 778 967 l 779 967 z "},"N":{"ha":717,"x_min":7,"x_max":710,"o":"m 494 967 l 710 967 l 710 954 q 684 951 697 954 q 663 939 671 949 q 643 899 650 926 q 633 819 636 871 q 630 685 631 767 q 629 483 629 603 l 629 0 l 617 0 l 340 483 q 198 730 251 638 q 110 871 144 822 l 110 483 q 110 281 110 363 q 114 146 111 199 q 124 66 117 93 q 143 26 131 39 q 176 13 156 14 q 224 11 196 11 l 224 0 l 7 0 l 7 11 q 33 15 21 11 q 56 26 46 18 q 75 67 68 39 q 85 147 82 94 q 88 281 88 200 q 89 483 89 363 q 88 686 89 604 q 85 820 88 768 q 78 900 83 872 q 65 940 74 928 q 42 953 56 951 q 7 954 28 954 l 7 967 l 150 967 l 426 483 q 533 296 489 374 q 608 165 578 218 l 608 483 q 608 686 608 604 q 604 820 607 768 q 594 900 601 872 q 575 940 588 928 q 542 953 563 951 q 494 954 522 954 l 494 967 z "},"O":{"ha":789,"x_min":35,"x_max":754,"o":"m 394 976 q 535 938 469 976 q 649 832 600 899 q 726 676 697 765 q 754 483 754 586 q 726 290 754 381 q 649 133 697 200 q 535 28 600 67 q 394 -11 469 -11 q 254 28 319 -11 q 140 133 189 67 q 63 290 92 200 q 35 483 35 381 q 63 676 35 586 q 140 832 92 765 q 254 938 189 899 q 394 976 319 976 m 394 1 q 494 40 447 1 q 575 144 540 78 q 630 297 610 210 q 650 483 650 385 q 630 669 650 582 q 575 822 610 756 q 494 926 540 888 q 394 964 447 964 q 294 926 340 964 q 213 822 247 888 q 158 669 178 756 q 138 483 138 582 q 158 297 138 385 q 213 144 178 210 q 294 40 247 78 q 394 1 340 1 z "},"P":{"ha":682,"x_min":7,"x_max":661,"o":"m 272 967 q 439 951 367 967 q 560 902 511 936 q 635 814 610 868 q 661 681 661 760 q 623 514 661 583 q 526 401 585 444 q 396 336 467 357 q 260 315 325 315 q 231 317 244 315 q 207 319 218 318 q 209 196 207 247 q 215 110 211 144 q 224 57 218 76 q 240 28 231 38 q 283 14 253 15 q 386 13 314 13 l 386 0 l 8 0 l 8 11 q 56 13 38 11 q 88 26 75 14 q 107 66 100 39 q 117 146 114 93 q 120 281 119 199 q 121 483 121 363 q 120 686 121 604 q 117 820 119 768 q 107 900 114 872 q 88 940 100 928 q 55 953 75 951 q 7 954 35 954 l 7 967 l 272 967 m 221 332 q 333 349 274 332 q 442 406 392 365 q 525 513 492 446 q 558 681 558 579 q 538 811 558 760 q 476 894 517 863 q 374 938 435 925 q 235 950 314 950 l 207 950 l 207 483 l 207 333 q 221 332 211 332 z "},"Q":{"ha":789,"x_min":35,"x_max":754,"o":"m 754 482 q 735 322 754 399 q 681 184 715 246 q 600 77 647 122 q 497 8 553 32 q 556 -40 531 -22 q 599 -67 581 -57 q 632 -83 618 -79 l 564 -139 l 458 -4 q 394 -12 428 -12 q 254 26 319 -12 q 140 132 189 65 q 63 289 92 199 q 35 482 35 379 q 63 674 35 585 q 140 831 92 764 q 254 938 189 899 q 394 976 319 976 q 535 938 469 976 q 649 831 600 899 q 726 674 697 764 q 754 482 754 585 m 394 0 q 447 11 421 0 l 283 219 l 294 232 q 394 112 349 161 q 478 26 440 63 q 547 97 515 51 q 602 201 579 142 q 638 333 625 261 q 650 482 650 404 q 630 668 650 581 q 575 821 610 756 q 494 925 540 886 q 394 964 447 964 q 294 925 340 964 q 213 821 247 886 q 158 668 178 756 q 138 482 138 581 q 158 297 138 385 q 213 143 178 208 q 294 39 247 78 q 394 0 340 0 z "},"R":{"ha":719,"x_min":7,"x_max":756,"o":"m 472 13 q 528 16 508 13 q 544 48 549 19 q 506 140 540 76 q 401 324 472 203 q 369 367 383 354 q 341 381 356 379 q 308 380 326 383 q 264 376 290 376 q 231 377 246 376 q 207 381 215 378 q 208 228 207 290 q 212 125 208 165 q 222 62 215 85 q 239 28 228 39 q 269 15 251 17 q 319 13 288 13 l 319 0 l 7 0 l 7 13 q 54 14 35 13 q 86 27 74 15 q 106 67 99 39 q 115 147 113 94 q 119 282 118 200 q 119 485 119 364 q 119 688 119 606 q 115 822 118 769 q 106 901 113 874 q 86 941 99 929 q 54 954 74 953 q 7 956 35 956 l 7 968 l 275 968 q 560 909 461 968 q 660 708 660 850 q 635 584 660 638 q 572 492 611 531 q 481 428 532 453 q 378 390 431 403 q 407 381 393 383 q 432 376 421 378 q 458 375 446 375 q 577 178 532 250 q 652 69 622 106 q 704 24 682 33 q 756 13 726 14 l 756 0 l 472 0 l 472 13 m 225 393 q 335 408 276 393 q 442 459 393 422 q 524 556 492 496 q 557 708 557 617 q 537 826 557 779 q 476 901 517 872 q 376 940 436 929 q 239 951 317 951 l 206 951 l 206 485 q 206 437 206 460 q 207 393 206 414 l 225 393 z "},"S":{"ha":608,"x_min":21,"x_max":588,"o":"m 140 767 q 174 653 140 697 q 256 576 207 608 q 364 518 306 544 q 472 458 422 492 q 554 378 521 425 q 588 257 588 331 q 566 149 588 199 q 508 65 544 100 q 421 9 471 29 q 313 -11 371 -11 q 211 -2 253 -11 q 142 17 169 7 q 97 37 114 28 q 71 46 81 46 q 57 38 64 46 q 44 18 50 29 q 35 -11 39 4 l 21 -11 l 75 442 l 92 442 q 88 222 75 307 q 132 88 100 136 q 212 21 164 39 q 315 3 260 3 q 390 22 354 3 q 454 69 426 40 q 499 132 482 97 q 515 199 515 167 q 482 313 515 268 q 399 389 449 357 q 291 447 349 421 q 183 507 233 474 q 100 588 133 540 q 67 708 67 635 q 88 816 67 767 q 146 901 110 865 q 230 956 182 936 q 332 976 278 976 q 396 967 369 976 q 441 948 422 958 q 472 928 460 938 q 492 919 483 919 q 506 928 499 919 q 517 949 513 938 q 528 976 522 961 l 542 976 l 488 524 l 471 524 q 480 744 488 658 q 451 878 472 829 q 397 946 429 928 q 329 964 364 964 q 265 949 299 964 q 204 909 232 935 q 158 847 176 883 q 140 767 140 811 z "},"T":{"ha":710,"x_min":7,"x_max":703,"o":"m 703 967 l 663 635 l 646 635 q 653 811 658 747 q 633 907 649 875 q 596 947 618 939 q 550 954 574 954 l 517 954 q 465 943 483 954 q 438 886 446 932 q 428 746 429 840 q 426 483 426 651 q 427 281 426 363 q 431 147 428 200 q 440 67 433 94 q 460 26 447 39 q 503 13 472 14 q 606 11 533 11 l 606 0 l 161 0 l 161 11 q 222 11 197 11 q 264 13 247 11 q 291 17 281 14 q 307 26 301 21 q 326 67 319 39 q 336 147 333 94 q 340 281 339 200 q 340 483 340 363 q 339 746 340 651 q 329 886 338 840 q 302 943 321 932 q 250 954 283 954 l 218 954 q 143 929 174 954 q 91 848 113 904 q 53 702 69 792 q 22 483 38 613 l 7 483 l 64 967 l 703 967 z "},"U":{"ha":758,"x_min":35,"x_max":738,"o":"m 738 967 l 738 954 q 691 953 710 954 q 661 940 672 951 q 643 878 642 921 q 653 767 644 835 q 673 610 663 700 q 683 406 683 519 q 656 218 683 297 q 585 88 629 139 q 488 13 542 38 q 379 -11 433 -11 q 207 46 279 -7 q 149 103 176 68 q 101 192 121 139 q 75 316 82 244 q 79 483 68 388 q 103 686 93 604 q 117 820 113 768 q 119 900 121 872 q 108 940 118 928 q 81 953 99 951 q 35 954 63 954 l 35 967 l 315 967 l 315 954 q 294 953 311 954 q 263 938 278 951 q 238 895 250 924 q 215 814 226 867 q 191 681 203 761 q 165 483 179 600 q 165 267 151 357 q 210 120 178 178 q 287 35 242 63 q 379 8 332 8 q 487 34 436 8 q 576 110 538 60 q 636 232 614 160 q 658 397 658 304 q 656 479 658 431 q 649 583 654 528 q 637 694 644 638 q 619 799 629 750 q 597 884 610 847 q 569 936 585 921 q 551 949 561 946 q 518 953 542 953 l 518 965 l 738 967 z "},"V":{"ha":718,"x_min":0,"x_max":718,"o":"m 506 967 l 718 967 l 718 954 q 694 952 711 954 q 661 932 678 950 q 633 889 647 918 q 601 808 618 860 q 563 676 585 756 q 508 483 540 597 q 430 204 457 303 q 390 61 403 106 q 374 0 375 7 l 353 0 q 336 63 351 8 q 319 121 329 86 q 295 206 310 156 q 261 326 281 257 q 215 483 242 394 q 159 675 182 596 q 118 806 136 754 q 86 888 100 858 q 58 932 72 918 q 22 952 40 950 q 0 954 3 954 l 0 967 l 279 967 l 279 954 q 232 953 251 954 q 203 940 213 951 q 195 900 194 928 q 208 820 196 872 q 243 686 219 768 q 301 483 267 604 q 356 297 333 374 q 396 167 378 219 q 434 297 413 219 q 486 483 456 374 q 543 686 521 604 q 576 820 565 768 q 589 900 588 872 q 581 940 590 928 q 553 953 572 951 q 506 954 533 954 l 506 967 z "},"W":{"ha":1128,"x_min":0,"x_max":1128,"o":"m 928 967 l 1128 967 l 1128 954 q 1106 952 1122 954 q 1074 932 1090 950 q 1047 889 1060 918 q 1018 808 1035 860 q 981 676 1001 756 q 929 483 960 597 q 856 204 882 303 q 819 61 831 106 q 804 0 806 7 l 785 0 q 768 63 783 8 q 730 206 757 108 q 654 483 703 304 q 601 680 622 600 q 564 814 579 760 q 529 680 550 760 q 478 483 508 600 q 405 204 431 303 q 368 61 379 106 q 353 0 354 7 l 332 0 q 315 63 331 8 q 277 206 304 108 q 201 483 250 304 q 149 675 171 596 q 111 806 128 754 q 81 888 94 858 q 54 932 68 918 q 20 952 38 950 q 0 954 3 954 l 0 967 l 263 967 l 263 954 q 218 953 236 954 q 192 940 200 951 q 184 900 183 928 q 196 820 185 872 q 229 686 207 768 q 283 483 251 604 q 335 297 314 374 q 372 167 356 219 q 408 297 388 219 q 458 483 429 374 l 585 967 l 604 967 l 736 483 q 787 297 765 374 q 825 167 808 219 q 861 297 840 219 q 910 483 882 374 q 963 686 942 604 q 994 820 983 768 q 1006 900 1006 872 q 999 940 1007 928 q 972 953 990 951 q 928 954 954 954 l 928 967 z "},"X":{"ha":674,"x_min":0,"x_max":674,"o":"m 385 485 q 467 299 433 376 q 527 170 501 222 q 571 88 553 118 q 606 40 589 57 q 640 18 622 24 q 674 13 658 13 l 674 0 l 394 0 l 394 13 q 440 14 422 13 q 466 26 458 15 q 469 63 474 38 q 447 138 465 89 q 396 263 429 186 q 313 451 363 339 q 222 263 258 339 q 165 138 186 186 q 140 63 144 89 q 142 26 135 38 q 167 14 149 15 q 213 13 185 13 l 213 0 l 0 0 l 0 13 q 35 18 18 13 q 71 43 51 24 q 103 85 86 58 q 147 162 121 113 q 211 287 174 211 q 303 474 249 363 q 300 479 301 476 q 297 485 299 482 q 215 669 250 593 q 155 798 181 746 q 111 881 129 850 q 76 928 93 911 q 42 950 60 944 q 10 956 25 956 l 10 968 l 289 968 l 289 956 q 244 955 263 956 q 217 944 225 954 q 212 911 210 933 q 230 845 214 889 q 274 734 246 801 q 347 567 303 667 q 428 734 396 667 q 477 845 460 801 q 499 911 494 889 q 495 944 503 933 q 469 955 488 954 q 424 956 450 956 l 424 968 l 636 968 l 636 956 q 601 950 618 956 q 565 925 585 944 q 534 884 551 911 q 492 813 517 857 q 435 702 468 768 q 357 544 403 636 q 371 515 364 529 q 385 485 378 500 z "},"Y":{"ha":649,"x_min":0,"x_max":649,"o":"m 649 956 q 619 951 633 956 q 589 932 604 947 q 560 888 575 918 q 525 806 544 858 q 479 676 506 754 q 417 485 453 597 q 397 422 406 451 q 378 365 388 393 q 381 157 378 229 q 397 53 385 85 q 431 17 408 21 q 492 13 453 13 l 492 0 l 178 0 l 178 13 q 237 16 215 13 q 270 47 258 19 q 286 138 282 75 q 292 317 290 200 q 266 394 281 353 q 236 485 251 436 q 172 675 199 597 q 126 805 146 753 q 90 887 106 857 q 60 932 75 917 q 31 951 44 947 q 0 956 18 956 l 0 968 l 278 968 l 278 956 q 231 954 250 956 q 203 941 213 953 q 197 901 194 929 q 214 822 200 874 q 255 688 228 769 q 322 485 282 606 q 342 426 333 453 q 360 372 351 399 q 377 426 368 399 q 396 485 386 453 q 461 688 435 606 q 501 822 488 769 q 517 901 515 874 q 510 941 519 929 q 483 954 501 953 q 436 956 464 956 l 436 968 l 649 968 l 649 956 z "},"Z":{"ha":594,"x_min":0,"x_max":594,"o":"m 594 483 l 536 0 l 0 0 l 247 483 q 351 686 310 604 q 415 820 392 768 q 446 900 439 872 q 447 940 453 928 q 422 953 440 951 q 374 954 403 954 l 221 954 q 145 929 175 954 q 94 848 115 904 q 56 702 72 792 q 25 483 40 613 l 8 483 l 67 967 l 581 967 l 333 483 q 233 287 274 367 q 169 154 193 207 q 137 73 146 101 q 133 31 128 44 q 153 14 138 17 q 194 11 169 11 l 383 11 q 458 36 428 11 q 510 117 489 61 q 547 264 531 174 q 578 483 563 354 l 594 483 z "},"a":{"ha":672,"x_min":21,"x_max":665,"o":"m 575 374 q 578 160 575 235 q 590 53 581 86 q 617 15 599 19 q 665 11 635 11 l 665 0 l 500 0 l 500 311 q 459 153 483 215 q 403 53 435 90 q 336 3 372 17 q 260 -11 300 -11 q 156 6 200 -11 q 83 52 113 24 q 39 117 54 81 q 22 190 24 153 q 33 260 21 226 q 69 319 44 294 q 96 342 82 332 q 121 360 110 353 q 147 374 135 367 l 181 374 l 142 706 q 190 743 163 726 q 249 769 214 758 q 328 781 283 781 q 442 759 394 781 q 518 702 489 738 q 561 622 547 667 q 575 531 575 578 l 575 374 m 329 769 q 255 748 286 769 q 206 679 224 726 q 185 556 189 632 q 194 374 182 481 l 494 374 l 494 564 q 483 643 494 606 q 451 708 472 681 q 399 753 429 736 q 329 769 368 769 m 276 15 q 335 27 303 15 q 397 75 367 39 q 453 178 426 111 q 494 356 479 246 l 494 360 q 358 351 417 354 q 255 341 299 347 q 181 325 211 335 q 133 296 151 315 q 92 214 100 263 q 103 122 85 165 q 166 47 122 78 q 276 15 210 15 z "},"c":{"ha":606,"x_min":35,"x_max":585,"o":"m 346 32 q 403 42 371 32 q 469 88 436 51 q 530 194 501 124 q 572 385 558 264 l 585 385 q 544 189 571 265 q 484 68 518 113 q 410 6 450 24 q 329 -11 371 -11 q 215 19 268 -11 q 121 103 161 50 q 58 229 81 157 q 35 385 35 301 q 58 539 35 467 q 121 665 81 611 q 215 749 161 718 q 329 781 268 781 q 397 769 368 781 q 446 743 426 758 q 486 706 469 726 l 451 418 l 438 418 q 446 594 450 525 q 425 701 442 663 q 383 755 408 740 q 328 769 357 769 q 249 739 286 769 q 183 656 211 708 q 140 533 156 603 q 124 385 124 464 q 142 238 124 303 q 190 126 160 172 q 260 56 219 81 q 346 32 300 32 z "},"d":{"ha":653,"x_min":36,"x_max":646,"o":"m 554 483 q 555 281 554 363 q 558 147 556 199 q 565 67 560 94 q 581 26 571 39 q 607 13 592 14 q 646 11 622 11 l 646 0 l 481 0 l 481 324 q 440 159 464 224 q 386 56 415 94 q 324 3 357 18 q 257 -11 290 -11 q 174 13 214 -11 q 103 88 133 38 q 54 212 72 138 q 36 386 36 286 q 59 560 36 486 q 121 684 82 635 q 211 757 160 733 q 321 781 263 781 q 406 761 368 779 q 474 719 443 743 q 468 858 472 810 q 454 927 464 906 q 428 951 444 949 q 383 954 411 954 l 383 967 q 443 974 414 967 q 496 990 468 979 q 543 1024 524 1001 l 554 1024 l 554 483 m 282 15 q 324 28 297 15 q 378 78 350 40 q 433 185 407 115 q 474 371 458 256 l 474 483 l 474 669 q 462 689 468 679 q 444 710 456 699 q 397 747 429 726 q 321 767 365 767 q 239 740 275 767 q 177 664 203 714 q 138 543 151 614 q 124 385 124 472 q 161 111 124 207 q 282 15 199 15 z "},"b":{"ha":660,"x_min":11,"x_max":625,"o":"m 403 781 q 486 756 446 781 q 557 681 526 731 q 606 558 588 632 q 625 383 625 483 q 601 209 625 283 q 539 85 578 135 q 449 13 500 36 q 339 -11 397 -11 q 249 10 289 -11 q 176 57 208 31 l 176 0 l 11 0 l 11 11 q 50 13 35 11 q 76 26 65 14 q 92 67 86 39 q 99 147 97 94 q 102 281 101 199 q 103 483 103 363 q 102 686 103 604 q 99 820 101 768 q 92 900 97 872 q 76 940 86 928 q 50 953 65 951 q 11 954 35 954 l 11 967 q 71 974 42 967 q 125 990 97 979 q 172 1024 153 1001 l 183 1024 l 183 483 l 183 465 q 224 620 200 560 q 278 717 249 681 q 339 767 307 753 q 403 781 371 781 m 536 383 q 499 657 538 561 q 378 753 461 753 q 335 740 361 753 q 279 689 308 728 q 224 577 250 650 q 185 385 199 504 l 183 385 l 183 104 q 215 58 190 88 q 263 22 231 42 q 339 1 294 1 q 421 28 385 1 q 483 104 457 54 q 522 225 508 154 q 536 383 536 296 z "},"e":{"ha":607,"x_min":35,"x_max":586,"o":"m 346 32 q 404 42 371 32 q 470 88 438 51 q 531 194 503 124 q 574 385 560 264 l 586 385 q 546 189 572 265 q 485 68 519 113 q 411 6 451 24 q 329 -11 371 -11 q 215 19 268 -11 q 121 103 161 50 q 58 229 81 157 q 35 385 35 301 q 58 539 35 467 q 120 665 82 611 q 208 749 158 718 q 311 781 258 781 q 401 753 360 781 q 473 674 443 726 q 519 545 503 622 q 535 368 536 468 l 447 368 l 124 368 q 144 227 126 289 q 192 122 163 165 q 262 55 222 78 q 346 32 301 32 m 311 769 q 238 739 272 769 q 178 656 204 708 q 138 533 153 603 q 124 385 124 464 l 124 379 l 449 379 q 451 553 458 479 q 423 674 443 626 q 374 746 403 722 q 311 769 344 769 z "},"f":{"ha":467,"x_min":7,"x_max":460,"o":"m 307 1024 q 372 1013 343 1024 q 419 986 400 1001 q 460 949 443 969 l 390 369 l 378 369 l 378 374 l 178 374 q 179 219 178 282 q 184 117 181 157 q 193 55 188 76 q 208 24 199 33 q 249 13 218 14 q 357 11 281 11 l 357 0 l 7 0 l 7 11 q 42 13 28 11 q 67 23 57 14 q 83 53 78 32 q 92 115 89 75 q 97 218 96 156 q 97 374 97 281 l 7 374 l 7 386 l 97 386 l 97 483 l 97 575 l 97 578 q 115 781 97 696 q 163 919 133 865 q 231 999 193 974 q 307 1024 268 1024 m 379 386 q 404 648 396 532 q 406 845 413 764 q 376 970 400 926 q 307 1014 353 1014 q 242 981 268 1014 q 203 895 217 949 q 183 774 189 842 q 178 636 178 707 l 178 483 l 178 386 l 379 386 z "},"g":{"ha":579,"x_min":0,"x_max":572,"o":"m 94 233 q 130 181 94 201 q 218 144 165 160 q 333 115 271 129 q 449 79 396 100 q 537 27 501 58 q 572 -53 572 -4 q 551 -123 572 -90 q 492 -178 529 -156 q 403 -215 454 -201 q 294 -228 353 -228 q 158 -211 214 -228 q 67 -168 103 -194 q 16 -111 32 -142 q 0 -53 0 -81 q 14 7 0 -19 q 48 53 28 33 q 90 88 68 74 q 125 110 111 101 q 67 152 89 128 q 46 211 46 176 q 66 258 46 239 q 118 293 86 278 q 74 383 90 332 q 57 494 57 435 q 74 606 57 554 q 119 697 90 658 q 186 758 147 736 q 269 781 225 781 l 517 781 l 517 750 q 456 757 488 754 q 395 763 428 760 q 331 768 363 765 q 392 729 364 756 q 440 667 419 703 q 471 587 460 631 q 482 494 482 543 q 465 383 482 435 q 420 292 449 331 q 353 230 392 253 q 269 207 314 207 q 190 227 228 207 q 125 283 153 247 q 104 260 114 272 q 94 233 94 247 m 269 771 q 214 749 239 771 q 172 689 189 726 q 144 601 154 651 q 135 494 135 551 q 144 387 135 438 q 172 299 154 336 q 214 239 189 261 q 269 217 239 217 q 325 239 300 217 q 367 299 350 261 q 394 387 385 336 q 404 494 404 438 q 394 601 404 551 q 367 689 385 651 q 325 749 350 726 q 269 771 300 771 m 294 -218 q 372 -206 335 -218 q 436 -176 408 -194 q 481 -134 464 -157 q 499 -90 499 -111 q 461 -22 499 -49 q 368 25 424 6 q 251 62 313 44 q 139 103 189 79 q 97 63 119 92 q 75 -15 75 35 q 90 -94 75 -57 q 132 -159 104 -132 q 201 -202 160 -186 q 294 -218 242 -218 z "},"h":{"ha":672,"x_min":11,"x_max":665,"o":"m 576 375 q 578 160 576 235 q 590 53 581 86 q 617 15 599 19 q 665 11 635 11 l 665 0 l 404 0 l 404 11 q 440 13 425 11 q 465 23 454 14 q 481 53 475 32 q 490 115 488 75 q 494 219 493 156 q 496 375 496 282 l 496 588 q 488 673 496 640 q 465 724 479 706 q 433 748 451 742 q 393 754 414 754 q 342 742 372 754 q 281 690 313 729 q 224 578 250 651 q 182 386 197 506 q 185 166 182 243 q 197 55 188 89 q 224 16 206 21 q 274 11 242 11 l 274 0 l 11 0 l 11 11 q 49 13 33 11 q 75 26 65 14 q 90 67 85 39 q 98 147 96 94 q 101 282 100 200 q 101 485 101 364 q 101 687 101 606 q 98 821 100 768 q 90 901 96 874 q 75 940 85 928 q 49 954 65 953 q 11 956 33 956 l 11 967 q 71 974 42 967 q 124 990 96 979 q 171 1024 151 1001 l 182 1024 l 182 485 l 182 474 q 224 625 199 565 q 279 719 249 685 q 345 767 310 753 q 418 781 381 781 q 488 762 458 781 q 538 712 518 743 q 567 641 557 681 q 576 560 576 601 l 576 375 z "},"i":{"ha":281,"x_min":11,"x_max":274,"o":"m 182 374 q 185 159 182 233 q 197 52 188 85 q 225 15 207 19 q 274 11 243 11 l 274 0 l 11 0 l 11 11 q 60 15 42 11 q 87 52 78 19 q 99 159 96 85 q 101 374 101 233 q 99 580 101 508 q 87 683 96 651 q 60 717 78 714 q 11 721 42 721 l 11 733 q 76 736 46 733 q 129 747 103 739 q 171 769 156 754 l 182 769 l 182 374 m 129 846 q 85 872 103 846 q 68 935 68 897 q 85 997 68 971 q 129 1024 103 1024 q 172 997 154 1024 q 190 935 190 971 q 172 872 190 897 q 129 846 154 846 z "},"j":{"ha":275,"x_min":-179,"x_max":190,"o":"m 129 1024 q 172 998 154 1024 q 190 935 190 972 q 172 872 190 899 q 129 846 154 846 q 86 872 104 846 q 68 935 68 899 q 86 998 68 972 q 129 1024 104 1024 m 183 313 l 183 221 l 183 219 q 165 17 183 101 q 118 -122 147 -68 q 51 -202 89 -176 q -25 -228 14 -228 q -90 -217 -61 -228 q -139 -190 -119 -206 q -179 -153 -161 -174 l -162 -10 l -153 -10 q -136 -114 -150 -68 q -122 -151 -131 -133 q -99 -184 -112 -169 q -67 -208 -85 -199 q -25 -217 -49 -217 q 28 -195 7 -217 q 65 -140 50 -174 q 87 -65 79 -107 q 98 19 94 -22 q 102 99 101 61 q 103 160 103 136 l 103 313 q 102 489 103 418 q 99 606 101 560 q 90 675 96 651 q 74 709 85 699 q 49 721 64 719 q 11 722 33 722 l 11 735 q 76 738 46 735 q 131 747 104 740 q 172 769 157 754 l 183 769 l 183 313 z "},"k":{"ha":638,"x_min":11,"x_max":632,"o":"m 578 32 q 606 15 592 18 q 632 13 619 13 l 632 0 l 408 0 l 408 13 q 454 15 438 13 q 471 38 471 17 q 456 72 471 47 q 417 131 440 97 q 365 203 393 165 q 312 276 338 242 q 267 335 286 310 q 240 369 247 361 q 210 324 225 346 q 183 282 196 301 q 187 123 183 178 q 200 43 190 68 q 227 15 210 18 q 274 13 244 13 l 274 0 l 11 0 l 11 13 q 49 14 33 13 q 75 28 65 15 q 90 67 85 40 q 98 147 96 94 q 101 281 100 200 q 101 483 101 363 q 101 686 101 604 q 98 820 100 768 q 90 900 96 872 q 75 940 85 928 q 49 953 65 951 q 11 954 33 954 l 11 967 q 71 974 42 967 q 124 990 96 979 q 171 1024 151 1001 l 182 1024 l 182 483 l 182 317 q 211 360 196 338 q 242 407 226 382 q 343 560 303 499 q 407 662 383 622 q 439 722 431 701 q 444 751 447 742 q 426 760 440 760 q 390 761 413 761 l 390 774 l 586 774 l 586 761 q 550 760 565 761 q 519 752 535 760 q 487 726 504 744 q 442 671 469 707 q 377 578 415 635 q 283 436 339 521 q 310 398 289 428 q 360 326 332 368 q 422 238 389 285 q 487 149 456 190 q 542 75 518 107 q 578 32 567 43 z "},"l":{"ha":285,"x_min":11,"x_max":274,"o":"m 182 483 q 183 281 182 363 q 185 147 183 199 q 193 67 188 94 q 209 26 199 39 q 235 13 219 14 q 274 11 251 11 l 274 0 l 11 0 l 11 11 q 49 13 33 11 q 75 26 65 14 q 90 67 85 39 q 98 147 96 94 q 101 281 100 199 q 101 483 101 363 q 101 686 101 604 q 98 820 100 768 q 90 900 96 872 q 75 940 85 928 q 49 953 65 951 q 11 954 33 954 l 11 967 q 71 974 42 967 q 124 990 96 979 q 171 1024 151 1001 l 182 1024 l 182 483 z "},"m":{"ha":1018,"x_min":11,"x_max":1011,"o":"m 922 375 q 924 160 922 235 q 935 53 926 86 q 963 15 944 19 q 1011 11 981 11 l 1011 0 l 750 0 l 750 11 q 785 13 771 11 q 810 23 800 14 q 827 53 821 32 q 836 115 833 75 q 840 219 839 156 q 842 375 842 282 l 842 588 q 833 673 842 640 q 811 724 825 706 q 778 748 797 742 q 739 754 760 754 q 694 742 721 754 q 642 690 668 729 q 591 578 615 650 q 553 385 567 506 l 553 375 q 553 219 553 282 q 558 115 554 156 q 567 53 561 74 q 583 22 572 32 q 608 12 593 13 q 643 11 622 11 l 643 0 l 381 0 l 381 11 q 416 13 401 11 q 441 23 431 14 q 458 53 451 32 q 467 115 464 75 q 471 219 469 156 q 472 375 472 282 l 472 588 q 464 673 472 640 q 442 724 456 706 q 409 748 428 742 q 369 754 390 754 q 326 742 351 754 q 273 690 300 729 q 222 580 246 651 q 183 389 199 508 l 183 375 q 185 160 183 235 q 197 53 188 86 q 224 16 206 21 q 272 11 242 11 l 272 0 l 11 0 l 11 11 q 47 13 32 11 q 71 23 61 14 q 87 53 81 32 q 97 115 93 75 q 101 219 100 156 q 103 375 103 282 q 101 581 103 510 q 90 684 99 653 q 63 719 81 715 q 14 722 44 722 l 14 735 q 76 738 46 735 q 127 747 101 740 q 168 769 153 754 l 179 769 l 178 444 q 215 610 193 544 q 265 713 238 675 q 326 766 293 751 q 394 781 358 781 q 465 762 435 781 q 514 712 494 743 q 543 641 533 681 q 553 560 553 601 l 553 475 q 590 626 568 567 q 640 719 613 685 q 698 767 667 753 q 764 781 729 781 q 834 762 804 781 q 883 712 864 743 q 913 641 903 681 q 922 560 922 601 l 922 375 z "},"n":{"ha":672,"x_min":11,"x_max":665,"o":"m 576 375 q 578 160 576 235 q 590 53 581 86 q 617 15 599 19 q 665 11 635 11 l 665 0 l 403 0 l 403 11 q 438 13 424 11 q 463 23 453 14 q 480 53 474 32 q 490 115 486 75 q 494 219 493 156 q 496 375 496 282 l 496 588 q 488 673 496 640 q 465 724 479 706 q 433 748 451 742 q 393 754 414 754 q 342 742 372 754 q 282 690 313 729 q 225 580 251 651 q 185 389 199 508 l 183 375 q 185 160 183 235 q 197 53 188 86 q 224 16 206 21 q 274 11 243 11 l 274 0 l 11 0 l 11 11 q 47 13 32 11 q 71 23 61 14 q 87 53 81 32 q 97 115 93 75 q 101 219 100 156 q 103 375 103 282 q 101 581 103 510 q 90 684 99 653 q 63 719 81 715 q 14 722 44 722 l 14 735 q 76 738 46 735 q 127 747 101 740 q 168 769 153 754 l 179 769 l 179 443 q 219 610 194 544 q 274 713 243 675 q 342 766 306 751 q 418 781 379 781 q 488 762 458 781 q 538 712 518 743 q 567 641 557 681 q 576 560 576 601 l 576 375 z "},"o":{"ha":657,"x_min":35,"x_max":622,"o":"m 329 781 q 443 749 390 781 q 536 665 496 718 q 599 539 576 611 q 622 385 622 467 q 599 231 622 303 q 536 105 576 158 q 443 20 496 51 q 329 -11 390 -11 q 214 20 268 -11 q 120 105 160 51 q 58 231 81 158 q 35 385 35 303 q 58 539 35 467 q 120 665 81 611 q 214 749 160 718 q 329 781 268 781 m 329 -1 q 408 29 371 -1 q 474 113 446 60 q 517 235 501 165 q 533 385 533 306 q 517 533 533 464 q 474 656 501 603 q 408 739 446 708 q 329 769 371 769 q 249 739 286 769 q 183 656 211 708 q 139 533 156 603 q 122 385 122 464 q 139 235 122 306 q 183 113 156 165 q 249 29 211 60 q 329 -1 286 -1 z "},"p":{"ha":656,"x_min":7,"x_max":619,"o":"m 397 781 q 481 756 440 781 q 552 681 521 731 q 601 558 583 632 q 619 383 619 483 q 597 209 619 283 q 535 85 574 135 q 444 13 496 36 q 333 -11 392 -11 q 248 8 286 -11 q 179 50 210 26 q 183 -103 179 -50 q 196 -178 186 -156 q 223 -203 206 -201 q 268 -206 240 -206 l 268 -218 l 7 -217 l 7 -204 q 45 -203 29 -204 q 71 -191 61 -203 q 86 -153 81 -179 q 94 -74 92 -126 q 98 59 97 -22 q 99 261 99 140 q 99 458 99 379 q 97 589 99 538 q 89 667 94 640 q 74 706 83 694 q 48 719 64 718 q 10 721 32 721 l 10 733 q 72 736 42 733 q 123 747 97 739 q 164 769 149 754 l 175 769 l 175 447 q 216 612 192 547 q 269 714 240 676 q 331 766 299 751 q 397 781 364 781 m 531 383 q 494 657 532 561 q 372 753 456 753 q 331 740 357 753 q 276 690 304 728 q 222 583 247 653 q 181 399 196 514 l 179 261 l 179 103 q 192 82 185 93 q 210 58 199 71 q 257 22 225 42 q 333 1 289 1 q 415 28 379 1 q 477 104 451 54 q 517 225 503 154 q 531 383 531 296 z "},"q":{"ha":654,"x_min":36,"x_max":647,"o":"m 482 714 q 507 736 496 725 q 528 755 518 746 q 544 769 539 764 l 556 769 l 556 261 q 556 59 556 140 q 559 -74 557 -22 q 567 -153 561 -126 q 583 -192 572 -181 q 608 -205 593 -204 q 647 -206 624 -206 l 647 -218 l 385 -218 l 385 -206 q 423 -205 407 -206 q 449 -192 439 -204 q 464 -153 458 -181 q 472 -74 469 -126 q 474 59 474 -22 q 475 261 475 140 l 475 292 q 434 143 458 201 q 381 50 410 85 q 322 2 353 15 q 258 -11 290 -11 q 175 13 215 -11 q 103 88 135 38 q 54 212 72 138 q 36 386 36 286 q 59 560 36 486 q 121 683 82 635 q 212 756 160 732 q 322 781 264 781 q 411 759 371 779 q 482 714 451 739 m 283 15 q 325 28 299 15 q 380 78 351 40 q 435 188 408 117 q 475 376 461 260 l 475 668 q 464 688 471 676 q 446 710 457 699 q 399 747 431 726 q 322 768 367 767 q 240 741 276 768 q 178 664 203 714 q 139 543 153 614 q 125 385 125 472 q 162 111 124 207 q 283 15 200 15 z "},"r":{"ha":532,"x_min":11,"x_max":490,"o":"m 175 433 q 215 604 190 538 q 272 710 240 671 q 341 765 304 750 q 418 781 378 781 q 448 777 435 781 q 471 771 461 774 q 490 760 482 765 l 443 368 l 429 368 q 442 544 442 475 q 431 652 442 613 q 402 707 421 692 q 360 722 383 722 q 325 715 349 722 q 274 674 301 707 q 222 572 247 640 q 182 385 197 504 l 182 374 q 183 219 182 282 q 187 117 183 157 q 196 55 190 76 q 211 24 201 33 q 226 17 217 19 q 253 13 236 14 q 296 11 269 11 q 360 11 322 11 l 360 0 l 11 0 l 11 11 q 60 15 42 11 q 87 52 78 19 q 99 159 96 85 q 101 374 101 233 q 99 580 101 508 q 87 683 96 651 q 60 717 78 714 q 11 721 42 721 l 11 733 q 74 738 43 733 q 124 747 99 740 q 164 769 149 754 l 175 769 l 175 433 z "},"s":{"ha":589,"x_min":35,"x_max":554,"o":"m 136 611 q 167 520 136 556 q 244 459 199 485 q 345 413 290 433 q 446 365 400 392 q 523 300 492 338 q 554 203 554 263 q 534 117 554 157 q 480 49 514 78 q 399 5 446 21 q 297 -11 351 -11 q 173 3 222 -11 q 92 32 124 17 q 35 75 56 51 l 68 351 l 82 351 q 82 175 69 243 q 126 67 94 107 q 202 13 157 28 q 299 -1 247 -1 q 370 14 336 -1 q 430 52 404 29 q 472 103 456 75 q 488 157 488 131 q 456 239 488 206 q 378 298 425 272 q 278 347 332 324 q 177 398 224 369 q 99 467 131 426 q 68 565 68 507 q 88 652 68 613 q 142 720 108 692 q 220 765 175 749 q 315 781 265 781 q 399 769 364 781 q 457 743 433 758 q 503 706 485 726 l 468 418 l 454 418 q 458 594 467 525 q 428 701 450 663 q 376 755 407 740 q 314 769 346 769 q 253 758 285 769 q 197 725 222 746 q 153 675 171 704 q 136 611 136 646 z "},"t":{"ha":413,"x_min":7,"x_max":447,"o":"m 178 769 l 447 769 l 446 757 l 178 757 l 178 182 q 183 97 178 129 q 196 49 188 65 q 216 27 204 32 q 242 22 228 22 q 276 34 257 22 q 315 83 294 46 q 354 192 335 121 q 388 385 374 264 l 401 385 q 368 189 388 265 q 326 68 349 113 q 276 6 303 24 q 217 -11 249 -11 q 128 44 158 -11 q 97 182 97 99 l 97 546 q 93 668 97 625 q 78 731 89 711 q 51 753 68 750 q 7 757 33 757 l 7 769 q 79 793 50 769 q 126 853 108 817 q 153 934 144 890 q 167 1018 163 978 l 178 1018 l 178 769 z "},"u":{"ha":668,"x_min":7,"x_max":660,"o":"m 99 394 q 96 590 99 522 q 83 686 93 657 q 56 719 74 715 q 7 722 38 722 l 7 735 q 72 738 42 735 q 126 748 99 740 q 168 771 153 756 l 179 771 l 179 394 l 179 182 q 188 97 179 129 q 209 46 196 64 q 241 22 222 28 q 281 15 260 15 q 332 28 301 15 q 392 79 363 40 q 449 190 422 118 q 490 381 476 263 l 490 394 q 488 590 490 522 q 476 686 485 657 q 449 719 467 715 q 400 722 431 722 l 400 735 q 465 738 435 735 q 518 748 492 740 q 560 771 544 756 l 571 771 l 571 394 q 571 229 571 296 q 574 120 571 163 q 581 56 576 78 q 597 24 586 33 q 622 13 607 14 q 660 13 638 13 l 660 0 l 496 0 l 496 326 q 455 160 479 225 q 399 56 431 94 q 332 3 368 18 q 256 -11 296 -11 q 185 8 215 -11 q 136 58 156 26 q 108 128 117 89 q 99 210 99 168 l 99 394 z "},"v":{"ha":567,"x_min":6,"x_max":531,"o":"m 410 778 q 495 749 460 778 q 531 651 531 721 q 468 401 531 567 q 306 -4 406 235 l 289 -4 q 275 46 288 3 q 242 160 265 82 q 178 382 219 239 q 133 535 151 472 q 101 641 115 599 q 75 707 86 683 q 53 743 64 731 q 24 756 40 754 q 6 757 8 757 l 6 769 l 229 769 l 229 757 q 181 753 196 757 q 170 715 167 749 q 197 604 174 681 q 261 382 219 528 q 306 230 286 294 q 339 121 325 165 q 465 444 418 311 q 511 651 511 576 q 483 741 511 714 q 411 768 456 768 q 374 756 389 768 q 350 716 360 743 q 333 645 340 689 q 318 539 325 601 l 308 539 l 336 778 l 410 778 z "},"w":{"ha":867,"x_min":7,"x_max":833,"o":"m 660 786 q 792 755 751 786 q 833 657 833 724 q 770 401 833 568 q 607 -4 707 235 l 590 -4 q 576 46 589 3 q 544 160 567 82 q 481 382 522 239 q 471 415 478 393 q 457 460 464 436 q 466 358 463 403 q 469 304 469 313 q 458 187 469 236 q 430 103 447 138 q 392 49 413 69 q 350 17 371 28 q 308 1 331 6 q 274 -4 286 -3 q 260 47 272 3 q 229 162 250 83 q 169 382 208 240 q 128 536 144 472 q 98 642 111 600 q 74 708 85 683 q 51 743 63 732 q 24 756 39 754 q 7 757 10 757 l 7 769 l 218 769 l 218 757 q 184 756 197 757 q 165 746 171 756 q 163 715 160 736 q 178 651 167 693 q 208 544 189 610 q 253 382 226 479 q 277 290 264 340 q 303 190 290 239 q 328 100 317 142 q 344 35 339 58 q 418 128 386 63 q 450 301 450 193 q 449 326 450 307 q 445 374 447 346 q 440 436 443 401 q 435 506 438 471 q 419 688 428 586 l 471 688 q 488 631 476 669 q 512 547 499 592 q 538 458 525 503 q 560 382 551 414 q 606 228 586 294 q 639 118 625 163 q 765 442 718 308 q 813 651 813 576 q 778 741 813 714 q 668 768 743 768 q 599 761 626 768 q 556 746 571 754 q 525 724 536 736 l 521 760 q 554 774 533 767 q 597 782 571 778 q 660 786 624 786 z "},"y":{"ha":596,"x_min":7,"x_max":582,"o":"m 582 769 l 582 758 q 565 758 578 758 q 536 743 551 757 q 514 708 525 732 q 489 642 503 685 q 457 537 475 600 q 414 382 439 474 l 307 6 l 307 6 q 265 -108 289 -64 q 213 -180 242 -153 q 153 -217 185 -207 q 88 -228 121 -228 q 59 -224 72 -228 q 35 -218 46 -221 q 15 -207 24 -212 l 63 185 l 75 185 q 63 9 63 78 q 73 -99 63 -60 q 102 -154 83 -139 q 144 -169 121 -169 q 171 -165 154 -169 q 208 -143 188 -161 q 251 -90 229 -125 q 290 7 272 -56 q 285 26 289 11 q 268 83 281 42 q 235 195 256 124 q 179 382 214 267 q 134 535 153 472 q 101 641 115 599 q 76 707 88 683 q 53 743 65 731 q 26 756 42 754 q 7 758 10 758 l 7 769 l 231 769 l 231 758 q 181 754 197 758 q 169 715 165 750 q 194 604 172 681 q 258 382 217 528 q 279 313 269 347 q 299 249 289 279 q 316 194 308 218 q 328 156 324 169 q 350 225 338 188 q 372 297 360 257 q 396 382 383 338 q 441 544 424 479 q 468 651 458 610 q 478 715 478 693 q 472 747 479 738 q 450 758 465 757 q 411 758 435 758 l 411 769 l 582 769 z "},"z":{"ha":517,"x_min":21,"x_max":497,"o":"m 497 382 l 450 0 l 21 0 q 42 46 21 4 q 63 91 50 64 q 97 159 76 118 q 144 255 117 200 q 210 382 172 310 q 293 544 260 479 q 347 652 326 610 q 374 717 367 694 q 376 748 381 739 q 358 758 372 757 q 321 760 343 760 l 197 760 q 137 740 161 760 q 96 674 113 719 q 67 558 79 629 q 42 382 54 486 l 28 382 l 75 769 l 493 769 l 296 382 q 215 225 249 289 q 163 120 182 161 q 135 56 143 79 q 129 23 126 33 q 144 11 132 13 q 176 10 156 10 l 328 10 q 388 29 364 10 q 429 92 413 49 q 458 208 446 136 q 483 382 471 279 l 497 382 z "},"x":{"ha":553,"x_min":10,"x_max":560,"o":"m 507 28 q 534 13 519 14 q 560 11 549 11 l 560 0 l 322 0 l 322 11 q 371 15 354 11 q 382 48 388 18 q 347 147 376 78 q 260 349 318 217 q 163 147 196 217 q 124 48 131 78 q 132 15 117 18 q 181 11 147 11 l 181 0 l 10 0 l 10 11 q 38 13 25 11 q 68 29 51 14 q 138 142 96 57 q 251 369 181 226 q 246 382 249 374 q 179 530 207 468 q 131 633 151 592 q 96 700 111 675 q 68 738 81 725 q 40 754 54 751 q 14 757 26 757 l 14 769 l 238 769 l 238 757 q 192 754 207 757 q 183 725 178 751 q 215 639 188 699 q 292 467 242 579 q 373 639 346 579 q 404 725 400 699 q 393 754 408 751 q 346 757 378 757 l 346 769 l 517 769 l 517 757 q 488 754 501 757 q 460 736 475 751 q 435 704 449 725 q 403 649 422 683 q 360 565 385 615 q 301 446 335 515 q 317 411 308 431 q 329 382 325 392 q 395 235 368 296 q 443 132 422 174 q 478 65 464 90 q 507 28 493 40 z "},"":{"ha":325,"x_min":21,"x_max":304,"o":"m 56 -18 l 21 -18 l 268 990 l 304 990 l 56 -18 z "},"!":{"ha":299,"x_min":90,"x_max":208,"o":"m 149 103 q 190 86 172 103 q 207 44 207 69 q 190 3 207 21 q 149 -14 172 -14 q 108 3 125 -14 q 90 44 90 21 q 108 86 90 69 q 149 103 125 103 m 90 965 l 208 965 l 157 151 l 140 151 l 90 965 z "},"\"":{"ha":289,"x_min":35,"x_max":254,"o":"m 83 753 l 69 753 l 35 1001 l 119 1001 l 83 753 m 218 753 l 204 753 l 169 1001 l 254 1001 l 218 753 z "},"#":{"ha":772,"x_min":21,"x_max":751,"o":"m 589 614 l 553 338 l 751 338 l 751 304 l 549 304 l 507 -18 l 460 -18 l 501 304 l 238 304 l 196 -18 l 149 -18 l 190 304 l 21 304 l 21 338 l 196 338 l 232 614 l 21 614 l 21 649 l 236 649 l 278 971 l 325 971 l 283 649 l 546 649 l 588 971 l 635 971 l 593 649 l 751 649 l 751 614 l 589 614 m 542 614 l 279 614 l 243 338 l 506 338 l 542 614 z "},"$":{"ha":556,"x_min":21,"x_max":535,"o":"m 293 539 q 378 495 335 517 q 456 445 421 474 q 513 378 490 417 q 535 282 535 339 q 516 186 535 231 q 465 110 497 142 q 388 59 432 78 q 293 39 344 40 l 293 -11 l 264 -11 l 264 40 q 183 50 217 42 q 126 67 149 58 q 89 84 103 76 q 67 92 75 92 q 54 84 60 92 q 43 65 49 76 q 33 39 38 54 l 21 39 l 71 450 l 85 450 q 81 259 71 335 q 116 138 90 183 q 180 74 142 93 q 264 51 218 54 l 264 456 q 190 495 226 475 q 126 542 154 515 q 81 606 99 569 q 64 692 64 642 q 80 780 64 739 q 123 852 96 821 q 186 904 150 883 q 264 932 222 925 l 264 975 l 293 975 l 293 935 l 303 935 q 360 926 336 935 q 402 908 385 918 q 430 890 419 899 q 447 882 440 882 q 460 890 454 882 q 471 908 467 899 q 481 935 476 919 l 493 935 l 443 525 l 429 525 q 438 724 444 647 q 410 846 431 801 q 361 907 390 890 q 301 924 332 924 l 293 924 l 293 539 m 129 744 q 140 680 129 708 q 168 628 150 651 q 211 588 186 606 q 264 554 236 569 l 264 918 q 215 895 239 911 q 172 857 192 879 q 141 806 153 835 q 129 744 129 778 m 293 50 q 360 69 328 51 q 416 113 392 86 q 455 169 440 139 q 469 229 469 200 q 455 304 469 272 q 416 361 440 336 q 360 405 392 386 q 293 442 328 424 l 293 50 z "},"%":{"ha":672,"x_min":21,"x_max":651,"o":"m 601 996 l 565 996 l 72 -21 l 108 -21 l 601 996 m 158 963 q 213 945 188 963 q 256 897 238 928 q 285 826 275 867 q 296 740 296 786 q 285 653 296 694 q 256 583 275 613 q 213 535 238 553 q 158 518 188 518 q 104 535 129 518 q 60 583 79 553 q 31 653 42 613 q 21 740 21 694 q 31 826 21 786 q 60 897 42 867 q 104 945 79 928 q 158 963 129 963 m 158 524 q 197 541 179 524 q 228 588 214 558 q 249 656 242 617 q 257 740 257 696 q 249 824 257 785 q 228 894 242 864 q 197 941 214 924 q 158 958 179 958 q 120 941 138 958 q 89 894 103 924 q 67 824 75 864 q 60 740 60 785 q 67 656 60 696 q 89 588 75 617 q 120 541 103 558 q 158 524 138 524 m 513 426 q 567 409 542 426 q 610 361 592 392 q 640 290 629 331 q 651 204 651 250 q 640 117 651 158 q 610 46 629 76 q 567 -2 592 15 q 513 -19 542 -19 q 460 -2 485 -19 q 416 46 435 15 q 386 117 397 76 q 375 204 375 158 q 386 290 375 250 q 416 361 397 331 q 460 409 435 392 q 513 426 485 426 m 513 -14 q 551 3 533 -14 q 583 51 569 21 q 603 120 596 81 q 611 204 611 160 q 603 288 611 249 q 583 357 596 328 q 551 403 569 386 q 513 421 533 421 q 474 403 492 421 q 444 357 457 386 q 423 288 431 328 q 415 204 415 249 q 423 120 415 160 q 444 51 431 81 q 474 3 457 21 q 513 -14 492 -14 z "},"&":{"ha":764,"x_min":35,"x_max":757,"o":"m 757 435 l 757 422 q 708 420 725 422 q 683 413 690 418 q 674 396 675 407 q 672 365 672 385 q 648 210 672 279 q 582 92 624 140 q 610 53 597 71 q 631 25 622 36 q 650 0 642 11 l 540 0 q 533 10 538 4 q 526 20 531 14 q 515 35 522 26 q 354 -11 444 -11 q 230 16 288 -11 q 128 89 172 43 q 60 197 85 135 q 35 329 35 258 q 75 483 35 417 q 178 594 115 550 q 146 685 158 643 q 133 760 133 728 q 186 921 133 865 q 328 976 239 976 q 408 962 372 976 q 471 931 444 947 q 526 883 501 910 l 483 528 l 467 524 q 476 744 483 658 q 447 879 468 831 q 392 947 425 928 q 325 965 360 965 q 281 956 303 965 q 240 926 258 946 q 211 876 222 907 q 200 800 200 844 q 217 712 200 763 q 260 603 233 661 q 323 484 288 546 q 397 362 358 422 q 474 244 435 301 q 546 142 513 188 q 582 365 582 229 q 581 396 582 385 q 572 413 579 407 q 547 420 564 418 q 496 422 529 422 l 496 435 l 757 435 m 354 1 q 496 63 439 1 q 428 161 468 103 q 347 287 389 219 q 263 426 304 354 q 192 565 222 499 q 143 471 164 529 q 122 329 122 413 q 144 183 122 244 q 199 81 165 121 q 274 21 233 40 q 354 1 315 1 z "},"'":{"ha":122,"x_min":3,"x_max":88,"o":"m 53 753 l 39 753 l 3 1001 l 88 1001 l 53 753 z "},"(":{"ha":311,"x_min":21,"x_max":276,"o":"m 276 -32 q 166 15 214 -32 q 85 137 118 63 q 37 303 53 211 q 21 488 21 396 q 37 672 21 579 q 85 840 53 765 q 166 961 118 914 q 276 1008 214 1008 l 276 996 q 197 951 228 996 q 148 833 165 906 q 124 670 131 761 q 117 488 117 579 q 124 306 117 396 q 148 142 131 215 q 197 24 165 69 q 276 -21 228 -21 l 276 -32 z "},"*":{"ha":224,"x_min":14,"x_max":210,"o":"m 132 886 l 210 808 l 189 789 l 126 851 l 126 763 l 99 763 l 99 851 l 35 789 l 14 808 l 92 886 l 14 964 l 35 983 l 99 919 l 99 1010 l 126 1010 l 126 919 l 189 983 l 210 964 l 132 886 z "},")":{"ha":313,"x_min":35,"x_max":292,"o":"m 36 1008 q 147 961 99 1008 q 227 840 194 914 q 276 672 260 765 q 292 488 292 579 q 276 303 292 396 q 227 137 260 211 q 147 15 194 63 q 35 -32 99 -32 l 35 -21 q 115 24 83 -21 q 164 142 146 69 q 189 306 182 215 q 196 488 196 396 q 189 670 196 579 q 164 833 182 761 q 115 951 146 906 q 36 996 85 996 l 36 1008 z "},"+":{"ha":528,"x_min":21,"x_max":507,"o":"m 507 379 l 288 379 l 288 160 l 240 160 l 240 379 l 21 379 l 21 426 l 240 426 l 240 646 l 288 646 l 288 426 l 507 426 l 507 379 z "},",":{"ha":193,"x_min":35,"x_max":158,"o":"m 158 33 q 147 -36 158 -8 q 119 -81 136 -64 q 83 -106 103 -99 q 47 -114 64 -114 l 47 -101 q 82 -92 67 -101 q 107 -69 97 -83 q 122 -37 117 -54 q 126 -4 126 -19 q 117 -10 122 -7 q 106 -12 113 -11 q 93 -14 100 -14 q 52 3 69 -14 q 35 44 35 21 q 52 86 35 69 q 93 103 69 103 q 140 81 121 103 q 158 33 158 60 z "},"-":{"ha":528,"x_min":21,"x_max":507,"o":"m 21 379 l 21 426 l 507 426 l 507 379 l 21 379 z "},".":{"ha":190,"x_min":35,"x_max":156,"o":"m 156 44 q 138 2 156 19 q 94 -15 119 -15 q 52 2 69 -15 q 35 44 35 19 q 52 88 35 69 q 94 106 69 106 q 138 88 119 106 q 156 44 156 69 z "},"/":{"ha":326,"x_min":21,"x_max":306,"o":"m 57 -21 l 21 -21 l 269 996 l 306 996 l 57 -21 z "},":":{"ha":190,"x_min":35,"x_max":156,"o":"m 156 44 q 138 2 156 19 q 94 -15 119 -15 q 52 2 69 -15 q 35 44 35 19 q 52 88 35 69 q 94 106 69 106 q 138 88 119 106 q 156 44 156 69 m 156 419 q 138 376 156 394 q 94 358 119 358 q 52 376 69 358 q 35 419 35 394 q 52 462 35 444 q 94 479 69 479 q 138 462 119 479 q 156 419 156 444 z "},";":{"ha":193,"x_min":35,"x_max":158,"o":"m 158 33 q 147 -36 158 -8 q 119 -81 136 -64 q 84 -106 103 -99 q 49 -114 65 -114 l 49 -87 q 104 -62 81 -87 q 128 -4 128 -36 q 118 -10 124 -7 q 106 -12 113 -11 q 93 -14 100 -14 q 52 3 69 -14 q 35 44 35 21 q 52 86 35 69 q 93 103 69 103 q 140 81 122 103 q 158 33 158 60 m 157 419 q 140 462 157 444 q 97 479 122 479 q 54 462 72 479 q 36 419 36 444 q 54 376 36 394 q 97 358 72 358 q 140 376 122 358 q 157 419 157 394 z "},"<":{"ha":418,"x_min":21,"x_max":397,"o":"m 54 393 l 397 156 l 365 133 l 21 369 l 21 415 l 365 653 l 397 629 l 54 393 z "},"=":{"ha":528,"x_min":21,"x_max":507,"o":"m 21 261 l 21 308 l 507 308 l 507 261 l 21 261 m 21 499 l 21 546 l 507 546 l 507 499 l 21 499 z "},">":{"ha":418,"x_min":21,"x_max":397,"o":"m 364 393 l 21 629 l 53 653 l 397 415 l 397 369 l 53 133 l 21 156 l 364 393 z "},"?":{"ha":564,"x_min":35,"x_max":529,"o":"m 297 44 q 280 86 297 69 q 239 103 263 103 q 198 86 215 103 q 181 44 181 69 q 198 3 181 21 q 239 -14 215 -14 q 280 3 263 -14 q 297 44 297 21 m 165 267 q 185 360 165 321 q 237 432 206 400 q 303 493 268 464 q 370 557 339 522 q 422 634 401 592 q 442 736 442 676 q 393 903 442 840 q 265 965 344 965 q 194 938 226 965 q 134 853 161 911 q 86 704 107 796 q 50 483 65 613 l 35 483 l 86 908 q 136 943 108 928 q 192 966 160 956 q 264 976 224 976 q 377 953 328 976 q 460 892 426 931 q 512 806 494 854 q 529 706 529 757 q 504 595 529 639 q 442 521 479 551 q 361 467 404 490 q 281 418 318 443 q 218 360 243 393 q 193 278 193 328 q 203 229 193 250 q 226 194 214 208 q 258 168 240 179 l 218 140 q 192 176 203 156 q 174 216 182 193 q 165 267 165 239 z "},"@":{"ha":1125,"x_min":35,"x_max":1090,"o":"m 563 863 q 768 821 672 863 q 935 708 864 779 q 1049 540 1007 636 q 1090 335 1090 443 q 1072 184 1090 249 q 1024 77 1054 119 q 953 13 993 35 q 869 -8 913 -8 q 745 28 793 -8 q 697 143 697 65 l 697 271 q 662 134 683 188 q 614 49 640 81 q 556 6 588 18 q 489 -7 524 -7 q 365 26 413 -7 q 298 104 318 58 q 285 199 278 150 q 325 279 293 247 q 348 298 336 290 q 369 313 360 306 q 392 325 381 319 l 421 325 l 388 613 q 429 644 406 631 q 480 667 450 657 q 549 676 510 676 q 646 658 606 676 q 712 609 686 639 q 749 540 738 579 q 761 461 761 501 l 763 168 q 763 156 763 161 q 764 144 763 150 q 790 56 767 90 q 869 22 814 22 q 938 41 903 22 q 1000 99 972 60 q 1045 196 1028 138 q 1063 335 1063 254 q 1023 528 1063 438 q 915 688 983 619 q 756 795 847 756 q 563 835 665 835 q 367 795 458 835 q 209 688 276 756 q 102 528 142 619 q 63 335 63 438 q 102 140 63 231 q 209 -19 142 49 q 367 -126 276 -86 q 563 -165 458 -165 q 695 -147 632 -165 q 814 -97 758 -129 l 833 -118 q 706 -174 774 -154 q 563 -193 638 -193 q 357 -151 453 -193 q 190 -38 261 -110 q 76 129 118 33 q 35 335 35 225 q 76 540 35 443 q 190 708 118 636 q 357 821 261 779 q 563 863 453 863 m 550 668 q 485 649 513 668 q 443 590 458 631 q 424 483 428 549 q 432 325 421 418 l 692 325 l 692 490 q 682 558 692 526 q 654 615 672 590 q 610 653 636 639 q 550 668 583 668 m 504 22 q 555 31 528 22 q 608 71 582 40 q 656 158 633 101 q 692 310 678 214 l 692 314 q 574 306 625 308 q 485 297 522 303 q 422 283 447 292 q 379 258 396 275 q 344 189 350 229 q 354 111 338 149 q 408 48 371 74 q 504 22 446 22 z "},"[":{"ha":239,"x_min":35,"x_max":218,"o":"m 118 996 l 118 -21 l 218 -21 l 218 -32 l 118 -32 l 38 -32 l 35 1008 l 118 1008 l 218 1008 l 218 996 l 118 996 z "},"\\":{"ha":325,"x_min":21,"x_max":304,"o":"m 21 996 l 57 996 l 304 -21 l 268 -21 l 21 996 z "},"]":{"ha":239,"x_min":21,"x_max":204,"o":"m 121 -21 l 121 997 l 21 997 l 21 1008 l 121 1008 l 201 1008 l 204 -32 l 121 -32 l 21 -32 l 21 -21 l 121 -21 z "},"^":{"ha":561,"x_min":21,"x_max":540,"o":"m 281 958 l 44 615 l 21 649 l 258 992 l 304 992 l 540 649 l 518 615 l 281 958 z "},"_":{"ha":381,"x_min":-42,"x_max":422,"o":"m 422 -25 l 422 -50 l -42 -50 l -42 -25 l 422 -25 z "},"{":{"ha":249,"x_min":35,"x_max":228,"o":"m 144 1008 l 228 1008 l 228 997 l 169 997 q 139 975 144 997 q 139 917 133 953 q 157 836 144 882 q 180 742 169 790 q 196 649 190 694 q 194 567 201 603 q 161 510 186 532 q 85 488 136 488 q 161 466 136 488 q 194 408 186 444 q 196 327 201 372 q 180 234 190 282 q 157 141 169 186 q 140 60 144 96 q 140 2 135 24 q 171 -19 146 -19 l 228 -19 l 228 -32 l 146 -32 q 91 6 103 -32 q 82 101 79 44 q 94 224 85 158 q 106 347 104 290 q 94 442 108 404 q 35 481 81 481 l 35 496 q 85 518 69 496 q 106 576 101 540 q 106 658 110 613 q 95 752 101 704 q 84 846 89 800 q 82 928 79 892 q 99 986 85 964 q 144 1008 113 1008 z "},"|":{"ha":69,"x_min":21,"x_max":49,"o":"m 49 -19 l 21 -19 l 21 997 l 49 997 l 49 -19 z "},"}":{"ha":249,"x_min":21,"x_max":214,"o":"m 104 -32 l 22 -32 l 22 -21 l 79 -21 q 110 1 104 -21 q 110 59 115 24 q 92 140 104 94 q 69 234 81 186 q 53 328 58 282 q 56 409 47 374 q 89 467 64 444 q 165 489 114 489 q 89 510 114 489 q 56 568 64 532 q 53 649 47 604 q 69 742 58 694 q 92 835 81 790 q 110 917 104 881 q 110 974 115 953 q 79 996 104 996 l 21 997 l 21 1008 l 103 1008 q 158 970 146 1008 q 167 875 169 932 q 154 752 164 818 q 142 629 144 686 q 154 534 140 572 q 214 496 168 496 l 214 481 q 154 442 168 481 q 142 347 140 404 q 154 224 144 290 q 167 101 164 158 q 159 6 171 44 q 104 -32 147 -32 z "},"~":{"ha":704,"x_min":21,"x_max":683,"o":"m 560 399 q 476 412 518 399 q 389 443 433 425 q 302 473 346 458 q 213 490 258 488 l 211 490 q 21 415 104 494 l 21 453 q 214 518 107 522 l 214 518 q 308 501 263 515 q 399 468 354 486 q 477 440 440 451 q 549 426 514 428 q 616 435 583 424 q 683 479 649 447 l 683 443 q 621 408 651 418 q 560 399 590 399 z "},"":{"ha":193,"x_min":35,"x_max":158,"o":"m 158 33 q 147 -36 158 -8 q 119 -81 136 -64 q 83 -106 103 -99 q 47 -114 64 -114 l 47 -101 q 83 -92 68 -101 q 108 -69 97 -83 q 123 -37 118 -54 q 128 -4 128 -19 q 118 -10 124 -7 q 106 -12 113 -11 q 93 -14 100 -14 q 52 3 69 -14 q 35 44 35 21 q 52 86 35 69 q 93 103 69 103 q 140 81 122 103 q 158 33 158 60 z "},"":{"ha":364,"x_min":35,"x_max":329,"o":"m 158 33 q 147 -36 158 -8 q 119 -81 136 -64 q 83 -106 103 -99 q 47 -114 64 -114 l 47 -101 q 82 -92 67 -101 q 107 -69 97 -83 q 122 -37 117 -54 q 126 -4 126 -19 q 117 -10 122 -7 q 106 -12 113 -11 q 93 -14 100 -14 q 52 3 69 -14 q 35 44 35 21 q 52 86 35 69 q 93 103 69 103 q 140 81 122 103 q 158 33 158 60 m 329 33 q 318 -36 329 -8 q 290 -81 307 -64 q 255 -106 274 -99 q 219 -114 236 -114 l 219 -101 q 254 -92 239 -101 q 279 -69 269 -83 q 294 -37 289 -54 q 299 -4 299 -19 q 289 -10 294 -7 q 278 -12 285 -11 q 264 -14 272 -14 q 223 3 240 -14 q 206 44 206 21 q 223 86 206 69 q 264 103 240 103 q 311 81 293 103 q 329 33 329 60 z "},"":{"ha":400,"x_min":21,"x_max":379,"o":"m 68 403 l 379 122 l 338 86 l 21 375 l 21 431 l 338 719 l 379 682 l 68 403 z "},"":{"ha":193,"x_min":35,"x_max":158,"o":"m 35 811 q 46 879 35 851 q 74 924 57 907 q 110 949 90 942 q 146 957 129 957 l 146 944 q 111 935 126 944 q 86 912 96 926 q 72 880 76 897 q 67 847 67 863 q 76 853 71 850 q 87 856 81 854 q 100 857 93 857 q 142 840 125 857 q 158 799 158 822 q 142 758 158 775 q 100 740 125 740 q 53 762 72 740 q 35 811 35 783 z "},"":{"ha":193,"x_min":35,"x_max":158,"o":"m 158 886 q 147 818 158 846 q 119 773 136 790 q 83 748 103 756 q 47 740 64 740 l 47 753 q 83 762 68 753 q 108 785 97 771 q 123 817 118 800 q 128 850 128 835 q 118 846 124 847 q 93 840 104 840 q 52 858 69 840 q 35 899 35 875 q 52 940 35 922 q 93 957 69 957 q 140 935 122 957 q 158 886 158 914 z "},"":{"ha":364,"x_min":35,"x_max":329,"o":"m 207 811 q 218 879 207 851 q 246 924 229 907 q 281 949 263 942 q 317 957 300 957 l 317 944 q 282 935 297 944 q 257 912 267 926 q 242 880 247 897 q 238 847 238 863 q 247 853 242 850 q 258 856 251 854 q 271 857 264 857 q 313 840 296 857 q 329 799 329 822 q 313 758 329 775 q 271 740 296 740 q 225 762 243 740 q 207 811 207 783 m 35 811 q 46 879 35 851 q 74 924 57 907 q 110 949 90 942 q 146 957 129 957 l 146 944 q 110 935 125 944 q 85 912 96 926 q 70 880 75 897 q 65 847 65 863 q 75 853 69 850 q 87 856 81 854 q 100 857 93 857 q 141 840 124 857 q 158 799 158 822 q 141 758 158 775 q 100 740 124 740 q 53 762 71 740 q 35 811 35 783 z "},"":{"ha":365,"x_min":35,"x_max":331,"o":"m 158 886 q 147 818 158 846 q 119 773 136 790 q 84 748 103 756 q 49 740 65 740 l 49 753 q 83 762 68 753 q 108 785 99 771 q 123 817 118 800 q 128 850 128 835 q 118 846 124 847 q 93 840 104 840 q 52 858 69 840 q 35 899 35 875 q 52 940 35 922 q 93 957 69 957 q 140 935 122 957 q 158 886 158 914 m 331 886 q 319 818 331 846 q 292 773 308 790 q 256 748 275 756 q 219 740 236 740 l 219 753 q 254 762 239 753 q 279 785 269 771 q 294 817 289 800 q 299 850 299 835 q 289 846 294 847 q 265 840 278 840 q 224 858 242 840 q 207 899 207 875 q 224 940 207 922 q 265 957 242 957 q 312 935 293 957 q 331 886 331 914 z "},"":{"ha":238,"x_min":35,"x_max":203,"o":"m 203 403 q 178 344 203 368 q 118 319 154 319 q 59 344 83 319 q 35 403 35 368 q 59 462 35 438 q 118 486 83 486 q 178 462 154 486 q 203 403 203 438 z "},"":{"ha":696,"x_min":21,"x_max":675,"o":"m 21 379 l 21 426 l 675 426 l 675 379 l 21 379 z "},"":{"ha":833,"x_min":21,"x_max":813,"o":"m 21 379 l 21 426 l 813 426 l 813 379 l 21 379 z "},"":{"ha":400,"x_min":21,"x_max":379,"o":"m 331 403 l 21 682 l 61 719 l 379 431 l 379 375 l 61 86 l 21 122 l 331 403 z "},"":{"ha":669,"x_min":35,"x_max":635,"o":"m 118 11 q 280 15 211 11 q 400 34 349 19 q 486 78 451 49 q 546 160 521 108 q 588 292 571 213 q 618 483 604 371 l 635 483 l 576 0 l 397 0 l 35 0 l 35 11 q 128 47 103 11 q 154 140 154 82 q 140 253 154 190 q 111 379 126 315 l 35 379 l 35 426 l 100 426 q 84 507 90 468 q 78 581 78 546 q 99 729 78 658 q 157 856 121 800 q 243 944 193 911 q 349 976 293 976 q 417 967 386 976 q 472 948 447 958 q 515 928 496 938 q 547 919 533 919 q 562 928 556 919 q 574 949 568 938 q 583 976 579 961 l 597 976 l 543 524 l 526 524 q 530 743 543 658 q 488 875 517 828 q 420 939 458 922 q 347 956 382 956 q 253 922 290 956 q 196 840 217 889 q 167 735 175 792 q 160 635 160 679 q 167 529 160 582 q 183 426 174 476 l 361 426 l 361 379 l 193 379 q 213 278 204 326 q 221 190 221 231 q 199 79 221 126 q 118 11 176 32 z "},"":{"ha":463,"x_min":21,"x_max":442,"o":"m 356 279 q 417 219 392 254 q 442 131 442 185 q 426 51 442 88 q 382 -12 410 14 q 317 -53 354 -39 q 238 -68 281 -68 q 163 -61 193 -68 q 111 -47 132 -54 q 78 -32 90 -39 q 58 -25 65 -25 q 48 -32 53 -25 q 39 -47 43 -39 q 31 -68 35 -56 l 21 -68 l 61 267 l 74 267 q 70 103 61 167 q 103 4 79 40 q 163 -46 128 -32 q 239 -60 199 -60 q 295 -46 268 -60 q 342 -10 322 -32 q 375 38 363 11 q 388 88 388 64 q 363 172 388 139 q 301 228 339 204 q 222 272 264 253 q 142 316 179 292 q 80 376 104 340 q 56 465 56 411 q 78 560 56 518 q 140 629 101 603 q 80 689 104 654 q 56 778 56 724 q 72 858 56 821 q 114 921 88 894 q 176 962 140 947 q 251 976 213 976 q 299 969 279 976 q 332 955 318 963 q 355 940 346 947 q 369 933 364 933 q 381 940 376 933 q 389 956 386 947 q 397 976 393 964 l 407 976 l 367 642 l 354 642 q 361 805 367 742 q 340 904 356 868 q 299 954 324 940 q 250 968 275 968 q 203 957 228 968 q 157 926 178 946 q 123 880 136 907 q 110 821 110 853 q 134 737 110 769 q 196 681 158 704 q 276 638 233 657 q 356 593 318 618 q 417 533 393 568 q 442 443 442 497 q 419 348 442 390 q 356 279 396 306 m 110 508 q 131 429 110 461 q 185 374 153 397 q 258 333 218 351 q 333 293 297 314 q 373 344 358 317 q 388 400 388 372 q 365 481 388 449 q 310 535 343 513 q 236 576 276 558 q 160 617 196 594 q 124 569 138 597 q 110 508 110 542 z "},"":{"ha":69,"x_min":21,"x_max":49,"o":"m 21 486 l 21 997 l 49 997 l 49 486 l 21 486 m 49 381 l 49 -19 l 21 -19 l 21 381 l 49 381 z "},"":{"ha":503,"x_min":35,"x_max":468,"o":"m 251 974 q 335 956 296 974 q 404 910 375 939 q 451 841 433 881 q 468 757 468 801 q 451 672 468 711 q 404 603 433 632 q 335 556 375 574 q 251 539 296 539 q 166 556 206 539 q 97 603 126 574 q 51 672 68 632 q 35 757 35 711 q 51 841 35 801 q 97 910 68 881 q 166 956 126 939 q 251 974 206 974 m 251 560 q 328 575 292 560 q 391 617 364 590 q 433 680 418 644 q 449 757 449 715 q 433 833 449 797 q 391 896 418 869 q 328 938 364 922 q 251 953 292 953 q 175 938 211 953 q 112 896 139 922 q 69 833 85 869 q 54 757 54 797 q 69 680 54 715 q 112 617 85 644 q 175 575 139 590 q 251 560 211 560 m 253 606 q 274 611 264 606 q 294 633 285 617 q 312 680 304 650 q 325 757 319 710 l 331 757 l 313 601 l 308 601 q 307 610 308 606 q 301 618 304 618 q 288 610 299 618 q 253 601 276 601 q 210 614 231 601 q 174 647 189 626 q 149 697 158 668 q 140 757 140 725 q 149 817 140 789 q 174 865 158 844 q 210 899 189 886 q 253 911 231 911 q 288 902 276 911 q 303 893 299 893 q 311 903 308 893 q 315 911 314 906 l 319 911 l 301 769 l 297 769 q 299 838 301 811 q 290 881 297 865 q 274 901 283 896 q 253 907 264 907 q 222 895 236 907 q 197 863 207 883 q 180 815 186 842 q 174 757 174 788 q 180 699 174 726 q 197 650 186 671 q 222 617 207 629 q 253 606 236 606 z "},"":{"ha":528,"x_min":21,"x_max":507,"o":"m 21 379 l 21 426 l 507 426 l 507 379 l 21 379 z "},"":{"ha":504,"x_min":35,"x_max":469,"o":"m 251 974 q 337 956 297 974 q 406 910 376 939 q 452 841 435 881 q 469 757 469 801 q 452 672 469 711 q 406 603 435 632 q 337 556 376 574 q 251 539 297 539 q 167 556 207 539 q 99 603 128 574 q 52 672 69 632 q 35 757 35 711 q 52 841 35 801 q 99 910 69 881 q 167 956 128 939 q 251 974 207 974 m 251 560 q 328 575 293 560 q 391 617 364 590 q 433 680 418 644 q 449 757 449 715 q 433 833 449 797 q 391 896 418 869 q 328 938 364 922 q 251 953 293 953 q 175 938 211 953 q 112 896 139 922 q 69 833 85 869 q 54 757 54 797 q 69 680 54 715 q 112 617 85 644 q 175 575 139 590 q 251 560 211 560 m 283 722 q 321 661 307 683 q 344 627 335 639 q 360 612 353 615 q 376 608 367 608 l 376 604 l 286 604 l 286 608 q 305 610 299 608 q 310 619 311 611 q 298 648 308 628 q 265 706 288 668 q 246 724 254 725 q 221 722 238 722 q 211 723 215 722 q 204 724 207 724 q 206 644 204 667 q 214 614 207 621 q 239 608 219 608 l 239 604 l 142 604 l 142 608 q 162 610 154 608 q 172 626 169 613 q 176 669 175 639 q 176 757 176 700 q 176 844 176 814 q 172 888 175 874 q 162 903 169 901 q 142 904 154 904 l 142 908 l 225 908 q 315 890 283 908 q 346 826 346 871 q 318 758 346 782 q 257 726 290 735 q 275 722 268 722 q 283 722 279 722 m 210 728 q 244 733 226 728 q 278 749 263 738 q 303 778 293 760 q 314 826 314 797 q 288 887 314 871 q 214 903 263 903 l 204 903 l 204 757 l 204 728 l 210 728 z "},"":{"ha":528,"x_min":21,"x_max":507,"o":"m 507 489 l 288 489 l 288 269 l 240 269 l 240 489 l 21 489 l 21 536 l 240 536 l 240 756 l 288 756 l 288 536 l 507 536 l 507 489 m 507 172 l 507 219 l 21 219 l 21 172 l 507 172 z "},"":{"ha":671,"x_min":21,"x_max":650,"o":"m 339 414 l 650 60 l 610 13 l 292 378 l 292 449 l 610 814 l 650 767 l 339 414 m 68 414 l 379 60 l 339 13 l 21 378 l 21 449 l 339 814 l 379 767 l 68 414 z "},"":{"ha":671,"x_min":21,"x_max":650,"o":"m 332 414 l 21 767 l 61 814 l 379 449 l 379 378 l 61 13 l 21 60 l 332 414 m 603 414 l 292 767 l 333 814 l 650 449 l 650 378 l 333 13 l 292 60 l 603 414 m 350 -1 l 321 -1 l 321 4 l 350 4 l 350 -1 z "},"":{"ha":650,"x_min":0,"x_max":650,"o":"m 436 967 l 650 967 l 650 954 q 619 950 633 954 q 590 931 606 946 q 563 890 576 917 q 531 819 549 864 q 490 706 513 774 q 438 543 468 639 l 568 543 l 568 496 l 422 496 l 418 483 q 403 437 410 460 q 389 393 396 414 l 568 393 l 568 346 l 379 346 q 383 149 379 217 q 398 50 386 81 q 432 15 410 19 q 492 11 454 11 l 492 0 l 179 0 l 179 11 q 238 15 217 11 q 272 46 260 18 q 288 136 283 74 q 292 315 292 199 q 287 331 289 322 q 282 346 285 339 l 82 346 l 82 393 l 267 393 q 252 437 260 414 q 236 483 244 460 l 232 496 l 82 496 l 82 543 l 217 543 q 162 705 185 638 q 121 818 139 772 q 88 890 103 864 q 60 931 74 917 q 32 950 46 946 q 0 954 18 954 l 0 967 l 279 967 l 279 954 q 217 949 239 954 q 197 907 196 944 q 224 785 199 869 q 303 543 250 701 l 417 543 q 492 785 468 701 q 518 907 517 869 q 498 949 519 944 q 436 954 476 954 l 436 967 m 397 483 l 401 496 l 318 496 l 322 483 q 338 437 331 460 q 353 393 346 414 l 368 393 q 382 437 375 414 q 397 483 389 460 z "},"":{"ha":674,"x_min":35,"x_max":653,"o":"m 424 965 q 352 938 386 965 q 291 865 318 911 q 244 753 264 818 q 214 614 224 689 l 521 614 l 521 567 l 208 567 q 206 525 207 546 q 206 483 206 504 q 207 428 206 456 q 211 375 208 401 l 521 375 l 521 328 l 218 328 q 249 197 229 257 q 296 94 269 138 q 355 26 322 50 q 424 1 388 1 q 512 42 471 1 q 582 154 553 83 l 651 154 q 551 33 610 78 q 424 -11 492 -11 q 327 14 374 -11 q 243 84 281 39 q 177 192 206 129 q 133 328 149 254 l 35 328 l 35 375 l 126 375 q 118 483 118 428 q 122 567 118 525 l 35 567 l 35 614 l 129 614 q 170 759 142 693 q 237 874 199 825 q 323 949 275 922 q 424 976 371 976 q 552 931 493 976 q 653 808 611 886 l 583 808 q 513 923 554 881 q 424 965 472 965 z "},"":{"ha":418,"x_min":21,"x_max":397,"o":"m 364 225 l 208 381 l 54 225 l 21 258 l 176 414 l 21 568 l 54 601 l 208 446 l 364 601 l 397 568 l 242 414 l 397 258 l 364 225 z "},"":{"ha":528,"x_min":21,"x_max":507,"o":"m 21 379 l 21 426 l 507 426 l 507 379 l 21 379 m 325 226 q 307 183 325 201 q 264 165 289 165 q 222 183 239 165 q 204 226 204 201 q 222 269 204 251 q 264 286 239 286 q 307 269 289 286 q 325 226 325 251 m 325 600 q 307 558 325 575 q 264 540 289 540 q 222 558 239 540 q 204 600 204 575 q 222 643 204 625 q 264 661 239 661 q 307 643 289 661 q 325 600 325 625 z "},"":{"ha":564,"x_min":33,"x_max":529,"o":"m 267 918 q 284 876 267 893 q 325 858 301 858 q 366 876 349 858 q 383 918 383 893 q 366 959 383 942 q 325 976 349 976 q 284 959 301 976 q 267 918 267 942 m 399 696 q 378 602 399 642 q 326 531 357 563 q 260 469 296 499 q 193 406 224 440 q 142 328 163 371 q 121 226 121 286 q 169 60 121 122 q 299 -3 218 -3 q 370 24 338 -3 q 429 109 403 51 q 476 258 456 167 q 513 479 497 350 l 529 479 l 478 54 q 429 21 456 35 q 373 -3 406 7 q 300 -14 340 -14 q 186 9 236 -14 q 102 70 136 32 q 51 157 68 108 q 33 257 33 206 q 58 367 33 324 q 121 442 83 411 q 201 495 158 472 q 282 544 244 518 q 344 602 319 569 q 369 685 369 635 q 360 733 369 713 q 338 768 350 754 q 306 794 324 783 l 344 822 q 372 786 360 807 q 390 747 382 769 q 399 696 399 724 z "},"":{"ha":299,"x_min":93,"x_max":211,"o":"m 153 858 q 110 876 128 858 q 93 918 93 893 q 110 959 93 942 q 153 976 128 976 q 194 959 176 976 q 211 918 211 942 q 194 876 211 893 q 153 858 176 858 m 211 -3 l 93 -3 l 143 810 l 161 810 l 211 -3 z "},"":{"ha":281,"x_min":11,"x_max":274,"o":"m 182 374 q 185 159 182 233 q 197 52 188 85 q 225 15 207 19 q 274 11 243 11 l 274 0 l 11 0 l 11 11 q 60 15 42 11 q 87 52 78 19 q 99 159 96 85 q 101 374 101 233 q 99 580 101 508 q 87 683 96 651 q 60 717 78 714 q 11 721 42 721 l 11 733 q 76 736 46 733 q 129 747 103 739 q 171 769 156 754 l 182 769 l 182 374 z "},"":{"ha":407,"x_min":17,"x_max":400,"o":"m 346 624 q 347 498 346 542 q 354 435 349 454 q 371 413 360 415 q 400 411 382 411 l 400 404 l 303 404 l 303 586 q 278 494 293 531 q 246 435 264 457 q 206 406 228 414 q 161 397 185 397 q 76 419 108 397 q 31 473 44 442 q 22 537 17 504 q 50 592 28 569 q 65 605 57 599 q 79 615 72 611 q 94 624 86 619 l 115 624 l 92 819 q 121 842 104 832 q 155 856 135 849 q 201 863 175 863 q 268 850 240 863 q 313 817 296 838 q 338 770 331 796 q 346 717 346 744 l 346 624 m 203 857 q 129 803 151 857 q 122 624 107 750 l 299 624 l 299 736 q 274 821 299 785 q 203 857 249 857 m 171 413 q 205 419 186 413 q 242 448 224 426 q 275 509 260 469 q 299 613 290 549 l 299 615 q 158 605 208 610 q 86 578 108 600 q 63 530 67 558 q 69 476 58 501 q 106 431 81 450 q 171 413 132 413 z "},"":{"ha":429,"x_min":35,"x_max":394,"o":"m 215 976 q 285 953 253 976 q 342 891 318 931 q 381 799 367 851 q 394 685 394 746 q 381 572 394 625 q 342 480 367 519 q 285 417 318 440 q 215 394 253 394 q 145 417 178 394 q 88 480 113 440 q 49 572 63 519 q 35 685 35 625 q 49 799 35 746 q 88 891 63 851 q 145 953 113 931 q 215 976 178 976 m 215 401 q 265 424 242 401 q 306 486 289 447 q 333 576 324 525 q 343 685 343 628 q 333 794 343 743 q 306 885 324 846 q 265 947 289 924 q 215 969 242 969 q 165 947 189 969 q 124 885 142 924 q 97 794 107 846 q 86 685 86 743 q 97 576 86 628 q 124 486 107 525 q 165 424 142 447 q 215 401 189 401 z "},"":{"ha":390,"x_min":35,"x_max":356,"o":"m 46 497 q 69 553 50 531 q 116 594 89 575 q 174 630 143 613 q 231 672 206 647 q 274 730 257 696 q 292 814 292 764 q 284 873 292 844 q 263 923 276 901 q 231 957 250 944 q 188 969 211 969 q 111 903 142 969 q 61 685 81 838 l 51 685 l 82 936 q 111 957 94 947 q 144 970 125 964 q 186 976 163 976 q 253 960 224 976 q 303 917 283 943 q 333 858 322 890 q 343 796 343 826 q 323 710 343 746 q 272 649 303 675 q 206 605 242 624 q 140 567 171 586 q 86 525 108 547 q 60 472 64 503 l 54 426 l 215 426 q 253 434 235 426 q 289 468 272 442 q 321 546 306 494 q 346 685 336 597 l 356 685 l 321 401 l 35 401 l 46 497 z "},"":{"ha":413,"x_min":35,"x_max":378,"o":"m 219 685 q 340 644 301 685 q 378 540 378 603 q 365 488 378 514 q 330 440 353 461 q 274 407 307 419 q 199 394 240 394 q 131 401 161 394 q 79 417 101 408 q 35 438 54 425 l 63 661 l 72 661 q 68 531 63 582 q 92 452 74 481 q 138 413 110 424 q 199 401 165 401 q 248 413 225 401 q 288 444 271 425 q 316 489 306 464 q 326 540 326 514 q 286 642 326 606 q 160 679 246 679 l 160 688 q 266 724 235 688 q 297 828 297 761 q 269 928 297 886 q 200 969 242 969 q 130 908 156 969 q 86 710 104 846 l 76 710 l 103 936 q 129 957 114 947 q 159 970 142 964 q 199 976 176 976 q 259 963 232 976 q 306 928 286 950 q 335 881 325 907 q 346 828 346 854 q 336 774 346 800 q 309 728 326 749 q 269 697 292 708 q 219 685 246 685 z "},"":{"ha":304,"x_min":61,"x_max":214,"o":"m 161 674 q 162 517 161 572 q 167 439 163 463 q 183 412 172 415 q 214 408 194 408 l 214 401 l 61 401 l 61 408 q 92 412 81 408 q 108 439 103 415 q 113 517 113 463 q 114 674 114 572 l 114 853 l 85 785 l 78 785 q 106 872 93 832 q 125 938 117 907 q 133 976 133 968 l 161 976 l 161 674 z "},"":{"ha":429,"x_min":35,"x_max":394,"o":"m 215 976 q 285 953 253 976 q 342 891 318 931 q 381 799 367 851 q 394 685 394 746 q 381 572 394 625 q 342 480 367 519 q 285 417 318 440 q 215 394 253 394 q 145 417 178 394 q 88 480 113 440 q 49 572 63 519 q 35 685 35 625 q 49 799 35 746 q 88 891 63 851 q 145 953 113 931 q 215 976 178 976 m 215 401 q 265 424 242 401 q 306 486 289 447 q 333 576 324 525 q 343 685 343 628 q 333 794 343 743 q 306 885 324 846 q 265 947 289 924 q 215 969 242 969 q 165 947 189 969 q 124 885 142 924 q 97 794 107 846 q 86 685 86 743 q 97 576 86 628 q 124 486 107 525 q 165 424 142 447 q 215 401 189 401 z "},"`":{"ha":235,"x_min":0,"x_max":235,"o":"m 235 899 l 226 889 l 0 1043 l 118 1043 l 235 899 z "},"":{"ha":332,"x_min":0,"x_max":332,"o":"m 324 889 l 167 996 l 8 889 l 0 899 l 118 1043 l 167 1043 l 214 1043 l 332 899 l 324 889 z "},"":{"ha":332,"x_min":0,"x_max":332,"o":"m 8 1043 l 167 936 l 324 1043 l 332 1033 l 215 889 l 167 889 l 118 889 l 0 1033 l 8 1043 z "},"":{"ha":236,"x_min":0,"x_max":236,"o":"m 118 1043 l 236 1043 l 8 889 l 0 899 l 118 1043 z "},"":{"ha":319,"x_min":0,"x_max":319,"o":"m 319 974 q 251 901 278 924 q 201 879 225 879 q 161 892 181 879 q 125 919 142 904 q 94 947 108 935 q 67 960 79 960 q 43 950 57 960 q 8 917 29 940 l 0 924 q 67 997 40 974 q 118 1019 94 1019 q 160 1007 140 1019 q 196 979 179 994 q 226 951 213 964 q 253 939 240 939 q 276 948 264 939 q 310 982 289 957 l 319 974 z "},"":{"ha":178,"x_min":0,"x_max":176,"o":"m 88 871 q 26 897 51 871 q 0 960 0 924 q 26 1022 0 996 q 88 1047 51 1047 q 150 1022 124 1047 q 176 960 176 996 q 150 897 176 924 q 88 871 124 871 m 88 1028 q 40 1008 60 1028 q 19 960 19 988 q 40 910 19 931 q 88 890 60 890 q 137 910 117 890 q 157 960 157 931 q 137 1008 157 988 q 88 1028 117 1028 z "},"":{"ha":392,"x_min":0,"x_max":392,"o":"m 392 960 q 368 903 392 926 q 313 879 344 879 q 256 903 279 879 q 232 960 232 926 q 256 1016 232 993 q 313 1039 279 1039 q 368 1016 344 1039 q 392 960 392 993 m 160 960 q 136 903 160 926 q 81 879 113 879 q 24 903 47 879 q 0 960 0 926 q 24 1016 0 993 q 81 1039 47 1039 q 136 1016 113 1039 q 160 960 160 993 z "},"":{"ha":718,"x_min":0,"x_max":718,"o":"m 661 33 q 697 13 679 15 q 718 11 715 11 l 718 0 l 440 0 l 440 11 q 497 15 476 11 q 522 43 517 18 q 515 125 526 68 q 472 290 503 182 q 444 255 464 268 q 390 242 425 242 q 338 253 364 242 q 288 278 313 264 q 242 303 264 292 q 204 314 221 314 q 190 310 196 314 q 179 293 183 306 q 138 127 150 185 q 131 44 126 69 q 157 15 136 18 q 213 11 178 11 l 213 0 l 0 0 l 0 11 q 24 13 7 11 q 57 33 40 15 q 86 76 72 47 q 117 158 100 106 q 157 290 135 211 q 211 483 179 369 q 256 643 236 574 q 289 763 275 713 q 313 849 303 814 q 328 907 322 885 q 344 967 343 960 l 365 967 q 382 904 367 958 q 424 760 396 858 q 503 483 451 663 q 559 290 536 369 q 600 159 582 211 q 633 78 618 107 q 661 33 647 49 m 449 296 q 462 304 458 296 q 463 325 465 313 q 441 399 453 360 q 417 483 429 439 q 363 669 385 593 q 322 799 340 746 q 284 669 306 746 q 232 483 263 593 q 211 408 221 443 q 192 343 201 374 q 227 361 207 354 q 275 368 247 368 q 329 357 304 368 q 375 332 354 346 q 414 307 396 318 q 449 296 432 296 m 476 992 l 468 982 l 242 1136 l 360 1136 l 476 992 z "},"":{"ha":718,"x_min":0,"x_max":718,"o":"m 661 33 q 697 13 679 15 q 718 11 715 11 l 718 0 l 440 0 l 440 11 q 497 15 476 11 q 522 43 517 18 q 515 125 526 68 q 472 290 503 182 q 444 255 464 268 q 390 242 425 242 q 338 253 364 242 q 288 278 313 264 q 242 303 264 292 q 204 314 221 314 q 190 310 196 314 q 179 293 183 306 q 138 127 150 185 q 131 44 126 69 q 157 15 136 18 q 213 11 178 11 l 213 0 l 0 0 l 0 11 q 24 13 7 11 q 57 33 40 15 q 86 76 72 47 q 117 158 100 106 q 157 290 135 211 q 211 483 179 369 q 256 643 236 574 q 289 763 275 713 q 313 849 303 814 q 328 907 322 885 q 344 967 343 960 l 365 967 q 382 904 367 958 q 424 760 396 858 q 503 483 451 663 q 559 290 536 369 q 600 159 582 211 q 633 78 618 107 q 661 33 647 49 m 449 296 q 462 304 458 296 q 463 325 465 313 q 441 399 453 360 q 417 483 429 439 q 363 669 385 593 q 322 799 340 746 q 284 669 306 746 q 232 483 263 593 q 211 408 221 443 q 192 343 201 374 q 227 361 207 354 q 275 368 247 368 q 329 357 304 368 q 375 332 354 346 q 414 307 396 318 q 449 296 432 296 m 358 1138 l 476 1138 l 249 983 l 240 993 l 358 1138 z "},"":{"ha":718,"x_min":0,"x_max":718,"o":"m 661 33 q 697 13 679 15 q 718 11 715 11 l 718 0 l 440 0 l 440 11 q 497 15 476 11 q 522 43 517 18 q 515 125 526 68 q 472 290 503 182 q 444 255 464 268 q 390 242 425 242 q 338 253 364 242 q 288 278 313 264 q 242 303 264 292 q 204 314 221 314 q 190 310 196 314 q 179 293 183 306 q 138 127 150 185 q 131 44 126 69 q 157 15 136 18 q 213 11 178 11 l 213 0 l 0 0 l 0 11 q 24 13 7 11 q 57 33 40 15 q 86 76 72 47 q 117 158 100 106 q 157 290 135 211 q 211 483 179 369 q 256 643 236 574 q 289 763 275 713 q 313 849 303 814 q 328 907 322 885 q 344 967 343 960 l 365 967 q 382 904 367 958 q 424 760 396 858 q 503 483 451 663 q 559 290 536 369 q 600 159 582 211 q 633 78 618 107 q 661 33 647 49 m 449 296 q 462 304 458 296 q 463 325 465 313 q 441 399 453 360 q 417 483 429 439 q 363 669 385 593 q 322 799 340 746 q 284 669 306 746 q 232 483 263 593 q 211 408 221 443 q 192 343 201 374 q 227 361 207 354 q 275 368 247 368 q 329 357 304 368 q 375 332 354 346 q 414 307 396 318 q 449 296 432 296 m 517 982 l 360 1089 l 201 982 l 193 992 l 311 1136 l 360 1136 l 407 1136 l 525 992 l 517 982 z "},"":{"ha":718,"x_min":0,"x_max":718,"o":"m 661 33 q 697 13 679 15 q 718 11 715 11 l 718 0 l 440 0 l 440 11 q 497 15 476 11 q 522 43 517 18 q 515 125 526 68 q 472 290 503 182 q 444 255 464 268 q 390 242 425 242 q 338 253 364 242 q 288 278 313 264 q 242 303 264 292 q 204 314 221 314 q 190 310 196 314 q 179 293 183 306 q 138 127 150 185 q 131 44 126 69 q 157 15 136 18 q 213 11 178 11 l 213 0 l 0 0 l 0 11 q 24 13 7 11 q 57 33 40 15 q 86 76 72 47 q 117 158 100 106 q 157 290 135 211 q 211 483 179 369 q 256 643 236 574 q 289 763 275 713 q 313 849 303 814 q 328 907 322 885 q 344 967 343 960 l 365 967 q 382 904 367 958 q 424 760 396 858 q 503 483 451 663 q 559 290 536 369 q 600 159 582 211 q 633 78 618 107 q 661 33 647 49 m 449 296 q 462 304 458 296 q 463 325 465 313 q 441 399 453 360 q 417 483 429 439 q 363 669 385 593 q 322 799 340 746 q 284 669 306 746 q 232 483 263 593 q 211 408 221 443 q 192 343 201 374 q 227 361 207 354 q 275 368 247 368 q 329 357 304 368 q 375 332 354 346 q 414 307 396 318 q 449 296 432 296 m 518 1079 q 450 1007 476 1029 q 400 985 424 985 q 360 997 379 985 q 324 1025 340 1010 q 292 1053 307 1040 q 265 1065 278 1065 q 242 1056 256 1065 q 207 1022 228 1046 l 199 1029 q 266 1102 239 1079 q 317 1125 293 1125 q 358 1113 339 1125 q 394 1085 378 1100 q 425 1057 411 1069 q 451 1044 439 1044 q 475 1053 463 1044 q 508 1088 488 1063 l 518 1079 z "},"":{"ha":718,"x_min":0,"x_max":718,"o":"m 661 33 q 697 13 679 15 q 718 11 715 11 l 718 0 l 440 0 l 440 11 q 497 15 476 11 q 522 43 517 18 q 515 125 526 68 q 472 290 503 182 q 444 255 464 268 q 390 242 425 242 q 338 253 364 242 q 288 278 313 264 q 242 303 264 292 q 204 314 221 314 q 190 310 196 314 q 179 293 183 306 q 138 127 150 185 q 131 44 126 69 q 157 15 136 18 q 213 11 178 11 l 213 0 l 0 0 l 0 11 q 24 13 7 11 q 57 33 40 15 q 86 76 72 47 q 117 158 100 106 q 157 290 135 211 q 211 483 179 369 q 256 643 236 574 q 289 763 275 713 q 313 849 303 814 q 328 907 322 885 q 344 967 343 960 l 365 967 q 382 904 367 958 q 424 760 396 858 q 503 483 451 663 q 559 290 536 369 q 600 159 582 211 q 633 78 618 107 q 661 33 647 49 m 449 296 q 462 304 458 296 q 463 325 465 313 q 441 399 453 360 q 417 483 429 439 q 363 669 385 593 q 322 799 340 746 q 284 669 306 746 q 232 483 263 593 q 211 408 221 443 q 192 343 201 374 q 227 361 207 354 q 275 368 247 368 q 329 357 304 368 q 375 332 354 346 q 414 307 396 318 q 449 296 432 296 m 554 1063 q 531 1006 554 1029 q 475 982 507 982 q 418 1006 442 982 q 394 1063 394 1029 q 418 1119 394 1096 q 475 1142 442 1142 q 531 1119 507 1142 q 554 1063 554 1096 m 322 1063 q 299 1006 322 1029 q 243 982 275 982 q 186 1006 210 982 q 163 1063 163 1029 q 186 1119 163 1096 q 243 1142 210 1142 q 299 1119 275 1142 q 322 1063 322 1096 z "},"":{"ha":718,"x_min":0,"x_max":718,"o":"m 661 33 q 697 13 679 15 q 718 11 715 11 l 718 0 l 440 0 l 440 11 q 497 15 476 11 q 522 43 517 18 q 515 125 526 68 q 472 290 503 182 q 444 255 464 268 q 390 242 425 242 q 338 253 364 242 q 288 278 313 264 q 242 303 264 292 q 204 314 221 314 q 190 310 196 314 q 179 293 183 306 q 138 127 150 185 q 131 44 126 69 q 157 15 136 18 q 213 11 178 11 l 213 0 l 0 0 l 0 11 q 24 13 7 11 q 57 33 40 15 q 86 76 72 47 q 117 158 100 106 q 157 290 135 211 q 211 483 179 369 q 256 643 236 574 q 289 763 275 713 q 313 849 303 814 q 328 907 322 885 q 344 967 343 960 l 365 967 q 382 904 367 958 q 424 760 396 858 q 503 483 451 663 q 559 290 536 369 q 600 159 582 211 q 633 78 618 107 q 661 33 647 49 m 449 296 q 462 304 458 296 q 463 325 465 313 q 441 399 453 360 q 417 483 429 439 q 363 669 385 593 q 322 799 340 746 q 284 669 306 746 q 232 483 263 593 q 211 408 221 443 q 192 343 201 374 q 227 361 207 354 q 275 368 247 368 q 329 357 304 368 q 375 332 354 346 q 414 307 396 318 q 449 296 432 296 m 358 972 q 297 999 322 972 q 271 1061 271 1025 q 297 1123 271 1097 q 358 1149 322 1149 q 421 1123 394 1149 q 447 1061 447 1097 q 421 999 447 1025 q 358 972 394 972 m 358 1129 q 310 1109 331 1129 q 290 1061 290 1089 q 310 1012 290 1032 q 358 992 331 992 q 408 1012 388 992 q 428 1061 428 1032 q 408 1109 428 1089 q 358 1129 388 1129 z "},"":{"ha":676,"x_min":35,"x_max":642,"o":"m 392 1 q 460 20 426 1 q 525 92 494 39 q 581 240 556 146 q 625 483 607 333 l 642 483 l 582 -11 l 568 -11 q 565 17 567 4 q 559 36 563 28 q 549 44 556 44 q 533 36 543 44 q 504 17 522 28 q 459 -2 486 7 q 394 -11 432 -11 q 254 28 319 -11 q 140 133 189 67 q 63 290 92 200 q 35 483 35 381 q 63 676 35 586 q 140 832 92 765 q 254 938 189 899 q 394 976 319 976 q 458 967 432 976 q 503 948 485 958 q 534 928 522 938 q 554 919 546 919 q 568 928 561 919 q 579 949 575 938 q 590 976 585 961 l 604 976 l 550 524 l 533 524 q 542 744 550 658 q 513 878 535 829 q 459 946 492 928 q 392 964 426 964 q 292 926 339 964 q 212 822 246 888 q 158 669 178 756 q 138 483 138 582 q 140 428 138 456 q 144 375 142 401 q 168 490 142 443 q 263 536 194 536 q 314 524 290 536 q 358 496 338 511 q 395 468 378 481 q 428 456 413 456 q 448 467 439 456 q 461 513 457 478 l 474 513 q 465 468 471 489 q 448 431 460 447 q 416 406 436 415 q 364 397 396 397 q 315 410 339 397 q 271 437 292 422 q 231 464 250 451 q 197 476 213 476 q 170 452 179 476 q 161 388 161 428 q 183 219 161 292 q 238 98 204 146 q 313 26 272 50 q 392 1 354 1 m 515 992 l 507 982 l 281 1136 l 399 1136 l 515 992 z "},"":{"ha":676,"x_min":35,"x_max":642,"o":"m 392 1 q 460 20 426 1 q 525 92 494 39 q 581 240 556 146 q 625 483 607 333 l 642 483 l 582 -11 l 568 -11 q 565 17 567 4 q 559 36 563 28 q 549 44 556 44 q 533 36 543 44 q 504 17 522 28 q 459 -2 486 7 q 394 -11 432 -11 q 254 28 319 -11 q 140 133 189 67 q 63 290 92 200 q 35 483 35 381 q 63 676 35 586 q 140 832 92 765 q 254 938 189 899 q 394 976 319 976 q 458 967 432 976 q 503 948 485 958 q 534 928 522 938 q 554 919 546 919 q 568 928 561 919 q 579 949 575 938 q 590 976 585 961 l 604 976 l 550 524 l 533 524 q 542 744 550 658 q 513 878 535 829 q 459 946 492 928 q 392 964 426 964 q 292 926 339 964 q 212 822 246 888 q 158 669 178 756 q 138 483 138 582 q 140 428 138 456 q 144 375 142 401 q 168 490 142 443 q 263 536 194 536 q 314 524 290 536 q 358 496 338 511 q 395 468 378 481 q 428 456 413 456 q 448 467 439 456 q 461 513 457 478 l 474 513 q 465 468 471 489 q 448 431 460 447 q 416 406 436 415 q 364 397 396 397 q 315 410 339 397 q 271 437 292 422 q 231 464 250 451 q 197 476 213 476 q 170 452 179 476 q 161 388 161 428 q 183 219 161 292 q 238 98 204 146 q 313 26 272 50 q 392 1 354 1 m 389 1135 l 507 1135 l 279 981 l 271 990 l 389 1135 z "},"":{"ha":676,"x_min":35,"x_max":642,"o":"m 392 1 q 460 20 426 1 q 525 92 494 39 q 581 240 556 146 q 625 483 607 333 l 642 483 l 582 -11 l 568 -11 q 565 17 567 4 q 559 36 563 28 q 549 44 556 44 q 533 36 543 44 q 504 17 522 28 q 459 -2 486 7 q 394 -11 432 -11 q 254 28 319 -11 q 140 133 189 67 q 63 290 92 200 q 35 483 35 381 q 63 676 35 586 q 140 832 92 765 q 254 938 189 899 q 394 976 319 976 q 458 967 432 976 q 503 948 485 958 q 534 928 522 938 q 554 919 546 919 q 568 928 561 919 q 579 949 575 938 q 590 976 585 961 l 604 976 l 550 524 l 533 524 q 542 744 550 658 q 513 878 535 829 q 459 946 492 928 q 392 964 426 964 q 292 926 339 964 q 212 822 246 888 q 158 669 178 756 q 138 483 138 582 q 140 428 138 456 q 144 375 142 401 q 168 490 142 443 q 263 536 194 536 q 314 524 290 536 q 358 496 338 511 q 395 468 378 481 q 428 456 413 456 q 448 467 439 456 q 461 513 457 478 l 474 513 q 465 468 471 489 q 448 431 460 447 q 416 406 436 415 q 364 397 396 397 q 315 410 339 397 q 271 437 292 422 q 231 464 250 451 q 197 476 213 476 q 170 452 179 476 q 161 388 161 428 q 183 219 161 292 q 238 98 204 146 q 313 26 272 50 q 392 1 354 1 m 553 982 l 396 1089 l 238 982 l 229 992 l 347 1136 l 396 1136 l 443 1136 l 561 992 l 553 982 z "},"":{"ha":676,"x_min":35,"x_max":642,"o":"m 392 1 q 460 20 426 1 q 525 92 494 39 q 581 240 556 146 q 625 483 607 333 l 642 483 l 582 -11 l 568 -11 q 565 17 567 4 q 559 36 563 28 q 549 44 556 44 q 533 36 543 44 q 504 17 522 28 q 459 -2 486 7 q 394 -11 432 -11 q 254 28 319 -11 q 140 133 189 67 q 63 290 92 200 q 35 483 35 381 q 63 676 35 586 q 140 832 92 765 q 254 938 189 899 q 394 976 319 976 q 458 967 432 976 q 503 948 485 958 q 534 928 522 938 q 554 919 546 919 q 568 928 561 919 q 579 949 575 938 q 590 976 585 961 l 604 976 l 550 524 l 533 524 q 542 744 550 658 q 513 878 535 829 q 459 946 492 928 q 392 964 426 964 q 292 926 339 964 q 212 822 246 888 q 158 669 178 756 q 138 483 138 582 q 140 428 138 456 q 144 375 142 401 q 168 490 142 443 q 263 536 194 536 q 314 524 290 536 q 358 496 338 511 q 395 468 378 481 q 428 456 413 456 q 448 467 439 456 q 461 513 457 478 l 474 513 q 465 468 471 489 q 448 431 460 447 q 416 406 436 415 q 364 397 396 397 q 315 410 339 397 q 271 437 292 422 q 231 464 250 451 q 197 476 213 476 q 170 452 179 476 q 161 388 161 428 q 183 219 161 292 q 238 98 204 146 q 313 26 272 50 q 392 1 354 1 m 589 1063 q 565 1006 589 1029 q 510 982 542 982 q 453 1006 476 982 q 429 1063 429 1029 q 453 1119 429 1096 q 510 1142 476 1142 q 565 1119 542 1142 q 589 1063 589 1096 m 357 1063 q 333 1006 357 1029 q 278 982 310 982 q 221 1006 244 982 q 197 1063 197 1029 q 221 1119 197 1096 q 278 1142 244 1142 q 333 1119 310 1142 q 357 1063 357 1096 z "},"":{"ha":328,"x_min":7,"x_max":321,"o":"m 7 967 l 321 967 l 321 954 q 273 953 293 954 q 240 940 253 951 q 221 900 228 928 q 211 820 214 872 q 208 686 208 768 q 207 483 207 604 q 208 281 207 363 q 211 146 208 199 q 221 66 214 93 q 240 26 228 39 q 273 13 253 14 q 321 11 293 11 l 321 0 l 7 0 l 7 11 q 56 13 36 11 q 88 26 75 14 q 107 66 100 39 q 117 146 114 93 q 120 281 119 199 q 121 483 121 363 q 120 686 121 604 q 117 820 119 768 q 107 900 114 872 q 88 940 100 928 q 55 953 75 951 q 7 954 35 954 l 7 967 m 281 992 l 272 982 l 46 1136 l 164 1136 l 281 992 z "},"":{"ha":328,"x_min":7,"x_max":321,"o":"m 7 967 l 321 967 l 321 954 q 273 953 293 954 q 240 940 253 951 q 221 900 228 928 q 211 820 214 872 q 208 686 208 768 q 207 483 207 604 q 208 281 207 363 q 211 146 208 199 q 221 66 214 93 q 240 26 228 39 q 273 13 253 14 q 321 11 293 11 l 321 0 l 7 0 l 7 11 q 56 13 36 11 q 88 26 75 14 q 107 66 100 39 q 117 146 114 93 q 120 281 119 199 q 121 483 121 363 q 120 686 121 604 q 117 820 119 768 q 107 900 114 872 q 88 940 100 928 q 55 953 75 951 q 7 954 35 954 l 7 967 m 164 1136 l 282 1136 l 54 982 l 46 992 l 164 1136 z "},"":{"ha":328,"x_min":-1,"x_max":331,"o":"m 7 967 l 321 967 l 321 954 q 273 953 293 954 q 240 940 253 951 q 221 900 228 928 q 211 820 214 872 q 208 686 208 768 q 207 483 207 604 q 208 281 207 363 q 211 146 208 199 q 221 66 214 93 q 240 26 228 39 q 273 13 253 14 q 321 11 293 11 l 321 0 l 7 0 l 7 11 q 56 13 36 11 q 88 26 75 14 q 107 66 100 39 q 117 146 114 93 q 120 281 119 199 q 121 483 121 363 q 120 686 121 604 q 117 820 119 768 q 107 900 114 872 q 88 940 100 928 q 55 953 75 951 q 7 954 35 954 l 7 967 m 322 982 l 165 1089 l 7 982 l -1 992 l 117 1136 l 165 1136 l 213 1136 l 331 992 l 322 982 z "},"":{"ha":328,"x_min":-32,"x_max":360,"o":"m 7 967 l 321 967 l 321 954 q 273 953 293 954 q 240 940 253 951 q 221 900 228 928 q 211 820 214 872 q 208 686 208 768 q 207 483 207 604 q 208 281 207 363 q 211 146 208 199 q 221 66 214 93 q 240 26 228 39 q 273 13 253 14 q 321 11 293 11 l 321 0 l 7 0 l 7 11 q 56 13 36 11 q 88 26 75 14 q 107 66 100 39 q 117 146 114 93 q 120 281 119 199 q 121 483 121 363 q 120 686 121 604 q 117 820 119 768 q 107 900 114 872 q 88 940 100 928 q 55 953 75 951 q 7 954 35 954 l 7 967 m 360 1063 q 336 1006 360 1029 q 281 982 313 982 q 224 1006 247 982 q 200 1063 200 1029 q 224 1119 200 1096 q 281 1142 247 1142 q 336 1119 313 1142 q 360 1063 360 1096 m 128 1063 q 104 1006 128 1029 q 49 982 81 982 q -8 1006 15 982 q -32 1063 -32 1029 q -8 1119 -32 1096 q 49 1142 15 1142 q 104 1119 81 1142 q 128 1063 128 1096 z "},"":{"ha":717,"x_min":7,"x_max":710,"o":"m 494 967 l 710 967 l 710 954 q 684 951 697 954 q 663 939 671 949 q 643 899 650 926 q 633 819 636 871 q 630 685 631 767 q 629 483 629 603 l 629 0 l 617 0 l 340 483 q 198 730 251 638 q 110 871 144 822 l 110 483 q 110 281 110 363 q 114 146 111 199 q 124 66 117 93 q 143 26 131 39 q 176 13 156 14 q 224 11 196 11 l 224 0 l 7 0 l 7 11 q 33 15 21 11 q 56 26 46 18 q 75 67 68 39 q 85 147 82 94 q 88 281 88 200 q 89 483 89 363 q 88 686 89 604 q 85 820 88 768 q 78 900 83 872 q 65 940 74 928 q 42 953 56 951 q 7 954 28 954 l 7 967 l 150 967 l 426 483 q 533 296 489 374 q 608 165 578 218 l 608 483 q 608 686 608 604 q 604 820 607 768 q 594 900 601 872 q 575 940 588 928 q 542 953 563 951 q 494 954 522 954 l 494 967 m 518 1076 q 450 1004 476 1026 q 400 982 424 982 q 360 994 379 982 q 324 1022 340 1007 q 292 1050 307 1038 q 265 1063 278 1063 q 242 1053 256 1063 q 207 1019 228 1043 l 199 1026 q 266 1099 239 1076 q 317 1122 293 1122 q 358 1110 339 1122 q 394 1082 378 1097 q 425 1054 411 1067 q 451 1042 439 1042 q 475 1051 463 1042 q 508 1085 488 1060 l 518 1076 z "},"":{"ha":789,"x_min":35,"x_max":754,"o":"m 394 976 q 535 938 469 976 q 649 832 600 899 q 726 676 697 765 q 754 483 754 586 q 726 290 754 381 q 649 133 697 200 q 535 28 600 67 q 394 -11 469 -11 q 254 28 319 -11 q 140 133 189 67 q 63 290 92 200 q 35 483 35 381 q 63 676 35 586 q 140 832 92 765 q 254 938 189 899 q 394 976 319 976 m 394 1 q 494 40 447 1 q 575 144 540 78 q 630 297 610 210 q 650 483 650 385 q 630 669 650 582 q 575 822 610 756 q 494 926 540 888 q 394 964 447 964 q 294 926 340 964 q 213 822 247 888 q 158 669 178 756 q 138 483 138 582 q 158 297 138 385 q 213 144 178 210 q 294 40 247 78 q 394 1 340 1 m 511 992 l 503 982 l 276 1136 l 394 1136 l 511 992 z "},"":{"ha":789,"x_min":35,"x_max":754,"o":"m 394 976 q 535 938 469 976 q 649 832 600 899 q 726 676 697 765 q 754 483 754 586 q 726 290 754 381 q 649 133 697 200 q 535 28 600 67 q 394 -11 469 -11 q 254 28 319 -11 q 140 133 189 67 q 63 290 92 200 q 35 483 35 381 q 63 676 35 586 q 140 832 92 765 q 254 938 189 899 q 394 976 319 976 m 394 1 q 494 40 447 1 q 575 144 540 78 q 630 297 610 210 q 650 483 650 385 q 630 669 650 582 q 575 822 610 756 q 494 926 540 888 q 394 964 447 964 q 294 926 340 964 q 213 822 247 888 q 158 669 178 756 q 138 483 138 582 q 158 297 138 385 q 213 144 178 210 q 294 40 247 78 q 394 1 340 1 m 394 1136 l 513 1136 l 285 982 l 276 992 l 394 1136 z "},"":{"ha":789,"x_min":35,"x_max":754,"o":"m 394 976 q 535 938 469 976 q 649 832 600 899 q 726 676 697 765 q 754 483 754 586 q 726 290 754 381 q 649 133 697 200 q 535 28 600 67 q 394 -11 469 -11 q 254 28 319 -11 q 140 133 189 67 q 63 290 92 200 q 35 483 35 381 q 63 676 35 586 q 140 832 92 765 q 254 938 189 899 q 394 976 319 976 m 394 1 q 494 40 447 1 q 575 144 540 78 q 630 297 610 210 q 650 483 650 385 q 630 669 650 582 q 575 822 610 756 q 494 926 540 888 q 394 964 447 964 q 294 926 340 964 q 213 822 247 888 q 158 669 178 756 q 138 483 138 582 q 158 297 138 385 q 213 144 178 210 q 294 40 247 78 q 394 1 340 1 m 551 982 l 394 1089 l 236 982 l 228 992 l 346 1136 l 394 1136 l 442 1136 l 560 992 l 551 982 z "},"":{"ha":789,"x_min":35,"x_max":754,"o":"m 394 976 q 535 938 469 976 q 649 832 600 899 q 726 676 697 765 q 754 483 754 586 q 726 290 754 381 q 649 133 697 200 q 535 28 600 67 q 394 -11 469 -11 q 254 28 319 -11 q 140 133 189 67 q 63 290 92 200 q 35 483 35 381 q 63 676 35 586 q 140 832 92 765 q 254 938 189 899 q 394 976 319 976 m 394 1 q 494 40 447 1 q 575 144 540 78 q 630 297 610 210 q 650 483 650 385 q 630 669 650 582 q 575 822 610 756 q 494 926 540 888 q 394 964 447 964 q 294 926 340 964 q 213 822 247 888 q 158 669 178 756 q 138 483 138 582 q 158 297 138 385 q 213 144 178 210 q 294 40 247 78 q 394 1 340 1 m 554 1076 q 486 1004 513 1026 q 436 982 460 982 q 396 994 415 982 q 360 1022 376 1007 q 328 1050 343 1038 q 301 1063 314 1063 q 278 1053 292 1063 q 243 1019 264 1043 l 235 1026 q 302 1099 275 1076 q 353 1122 329 1122 q 394 1110 375 1122 q 431 1082 414 1097 q 461 1054 447 1067 q 488 1042 475 1042 q 511 1051 499 1042 q 544 1085 524 1060 l 554 1076 z "},"":{"ha":789,"x_min":35,"x_max":754,"o":"m 394 976 q 535 938 469 976 q 649 832 600 899 q 726 676 697 765 q 754 483 754 586 q 726 290 754 381 q 649 133 697 200 q 535 28 600 67 q 394 -11 469 -11 q 254 28 319 -11 q 140 133 189 67 q 63 290 92 200 q 35 483 35 381 q 63 676 35 586 q 140 832 92 765 q 254 938 189 899 q 394 976 319 976 m 394 1 q 494 40 447 1 q 575 144 540 78 q 630 297 610 210 q 650 483 650 385 q 630 669 650 582 q 575 822 610 756 q 494 926 540 888 q 394 964 447 964 q 294 926 340 964 q 213 822 247 888 q 158 669 178 756 q 138 483 138 582 q 158 297 138 385 q 213 144 178 210 q 294 40 247 78 q 394 1 340 1 m 590 1063 q 567 1006 590 1029 q 511 982 543 982 q 454 1006 478 982 q 431 1063 431 1029 q 454 1119 431 1096 q 511 1142 478 1142 q 567 1119 543 1142 q 590 1063 590 1096 m 358 1063 q 335 1006 358 1029 q 279 982 311 982 q 222 1006 246 982 q 199 1063 199 1029 q 222 1119 199 1096 q 279 1142 246 1142 q 335 1119 311 1142 q 358 1063 358 1096 z "},"":{"ha":758,"x_min":35,"x_max":738,"o":"m 738 967 l 738 954 q 691 953 710 954 q 661 940 672 951 q 643 878 642 921 q 653 767 644 835 q 673 610 663 700 q 683 406 683 519 q 656 218 683 297 q 585 88 629 139 q 488 13 542 38 q 379 -11 433 -11 q 207 46 279 -7 q 149 103 176 68 q 101 192 121 139 q 75 316 82 244 q 79 483 68 388 q 103 686 93 604 q 117 820 113 768 q 119 900 121 872 q 108 940 118 928 q 81 953 99 951 q 35 954 63 954 l 35 967 l 315 967 l 315 954 q 294 953 311 954 q 263 938 278 951 q 238 895 250 924 q 215 814 226 867 q 191 681 203 761 q 165 483 179 600 q 165 267 151 357 q 210 120 178 178 q 287 35 242 63 q 379 8 332 8 q 487 34 436 8 q 576 110 538 60 q 636 232 614 160 q 658 397 658 304 q 656 479 658 431 q 649 583 654 528 q 637 694 644 638 q 619 799 629 750 q 597 884 610 847 q 569 936 585 921 q 551 949 561 946 q 518 953 542 953 l 518 965 l 738 967 m 531 992 l 522 982 l 296 1136 l 414 1136 l 531 992 z "},"":{"ha":758,"x_min":35,"x_max":738,"o":"m 738 967 l 738 954 q 691 953 710 954 q 661 940 672 951 q 643 878 642 921 q 653 767 644 835 q 673 610 663 700 q 683 406 683 519 q 656 218 683 297 q 585 88 629 139 q 488 13 542 38 q 379 -11 433 -11 q 207 46 279 -7 q 149 103 176 68 q 101 192 121 139 q 75 316 82 244 q 79 483 68 388 q 103 686 93 604 q 117 820 113 768 q 119 900 121 872 q 108 940 118 928 q 81 953 99 951 q 35 954 63 954 l 35 967 l 315 967 l 315 954 q 294 953 311 954 q 263 938 278 951 q 238 895 250 924 q 215 814 226 867 q 191 681 203 761 q 165 483 179 600 q 165 267 151 357 q 210 120 178 178 q 287 35 242 63 q 379 8 332 8 q 487 34 436 8 q 576 110 538 60 q 636 232 614 160 q 658 397 658 304 q 656 479 658 431 q 649 583 654 528 q 637 694 644 638 q 619 799 629 750 q 597 884 610 847 q 569 936 585 921 q 551 949 561 946 q 518 953 542 953 l 518 965 l 738 967 m 582 982 l 425 1089 l 267 982 l 258 992 l 376 1136 l 425 1136 l 472 1136 l 590 992 l 582 982 z "},"":{"ha":758,"x_min":35,"x_max":738,"o":"m 738 967 l 738 954 q 691 953 710 954 q 661 940 672 951 q 643 878 642 921 q 653 767 644 835 q 673 610 663 700 q 683 406 683 519 q 656 218 683 297 q 585 88 629 139 q 488 13 542 38 q 379 -11 433 -11 q 207 46 279 -7 q 149 103 176 68 q 101 192 121 139 q 75 316 82 244 q 79 483 68 388 q 103 686 93 604 q 117 820 113 768 q 119 900 121 872 q 108 940 118 928 q 81 953 99 951 q 35 954 63 954 l 35 967 l 315 967 l 315 954 q 294 953 311 954 q 263 938 278 951 q 238 895 250 924 q 215 814 226 867 q 191 681 203 761 q 165 483 179 600 q 165 267 151 357 q 210 120 178 178 q 287 35 242 63 q 379 8 332 8 q 487 34 436 8 q 576 110 538 60 q 636 232 614 160 q 658 397 658 304 q 656 479 658 431 q 649 583 654 528 q 637 694 644 638 q 619 799 629 750 q 597 884 610 847 q 569 936 585 921 q 551 949 561 946 q 518 953 542 953 l 518 965 l 738 967 m 628 1063 q 604 1006 628 1029 q 549 982 581 982 q 492 1006 515 982 q 468 1063 468 1029 q 492 1119 468 1096 q 549 1142 515 1142 q 604 1119 581 1142 q 628 1063 628 1096 m 396 1063 q 372 1006 396 1029 q 317 982 349 982 q 260 1006 283 982 q 236 1063 236 1029 q 260 1119 236 1096 q 317 1142 283 1142 q 372 1119 349 1142 q 396 1063 396 1096 z "},"":{"ha":649,"x_min":0,"x_max":649,"o":"m 649 956 q 619 951 633 956 q 589 932 604 947 q 560 888 575 918 q 525 806 544 858 q 479 676 506 754 q 417 485 453 597 q 397 422 406 451 q 378 365 388 393 q 381 157 378 229 q 397 53 385 85 q 431 17 408 21 q 492 13 453 13 l 492 0 l 178 0 l 178 13 q 237 16 215 13 q 270 47 258 19 q 286 138 282 75 q 292 317 290 200 q 266 394 281 353 q 236 485 251 436 q 172 675 199 597 q 126 805 146 753 q 90 887 106 857 q 60 932 75 917 q 31 951 44 947 q 0 956 18 956 l 0 968 l 278 968 l 278 956 q 231 954 250 956 q 203 941 213 953 q 197 901 194 929 q 214 822 200 874 q 255 688 228 769 q 322 485 282 606 q 342 426 333 453 q 360 372 351 399 q 377 426 368 399 q 396 485 386 453 q 461 688 435 606 q 501 822 488 769 q 517 901 515 874 q 510 941 519 929 q 483 954 501 953 q 436 956 464 956 l 436 968 l 649 968 l 649 956 m 356 1136 l 474 1136 l 246 982 l 238 992 l 356 1136 z "},"":{"ha":672,"x_min":21,"x_max":665,"o":"m 575 374 q 578 160 575 235 q 590 53 581 86 q 617 15 599 19 q 665 11 635 11 l 665 0 l 500 0 l 500 311 q 459 153 483 215 q 403 53 435 90 q 336 3 372 17 q 260 -11 300 -11 q 156 6 200 -11 q 83 52 113 24 q 39 117 54 81 q 22 190 24 153 q 33 260 21 226 q 69 319 44 294 q 96 342 82 332 q 121 360 110 353 q 147 374 135 367 l 181 374 l 142 706 q 190 743 163 726 q 249 769 214 758 q 328 781 283 781 q 442 759 394 781 q 518 702 489 738 q 561 622 547 667 q 575 531 575 578 l 575 374 m 329 769 q 255 748 286 769 q 206 679 224 726 q 185 556 189 632 q 194 374 182 481 l 494 374 l 494 564 q 483 643 494 606 q 451 708 472 681 q 399 753 429 736 q 329 769 368 769 m 276 15 q 335 27 303 15 q 397 75 367 39 q 453 178 426 111 q 494 356 479 246 l 494 360 q 358 351 417 354 q 255 341 299 347 q 181 325 211 335 q 133 296 151 315 q 92 214 100 263 q 103 122 85 165 q 166 47 122 78 q 276 15 210 15 m 453 818 l 444 808 l 218 963 l 336 963 l 453 818 z "},"":{"ha":672,"x_min":21,"x_max":665,"o":"m 575 374 q 578 160 575 235 q 590 53 581 86 q 617 15 599 19 q 665 11 635 11 l 665 0 l 500 0 l 500 311 q 459 153 483 215 q 403 53 435 90 q 336 3 372 17 q 260 -11 300 -11 q 156 6 200 -11 q 83 52 113 24 q 39 117 54 81 q 22 190 24 153 q 33 260 21 226 q 69 319 44 294 q 96 342 82 332 q 121 360 110 353 q 147 374 135 367 l 181 374 l 142 706 q 190 743 163 726 q 249 769 214 758 q 328 781 283 781 q 442 759 394 781 q 518 702 489 738 q 561 622 547 667 q 575 531 575 578 l 575 374 m 329 769 q 255 748 286 769 q 206 679 224 726 q 185 556 189 632 q 194 374 182 481 l 494 374 l 494 564 q 483 643 494 606 q 451 708 472 681 q 399 753 429 736 q 329 769 368 769 m 276 15 q 335 27 303 15 q 397 75 367 39 q 453 178 426 111 q 494 356 479 246 l 494 360 q 358 351 417 354 q 255 341 299 347 q 181 325 211 335 q 133 296 151 315 q 92 214 100 263 q 103 122 85 165 q 166 47 122 78 q 276 15 210 15 m 336 961 l 454 961 l 226 807 l 218 817 l 336 961 z "},"":{"ha":672,"x_min":21,"x_max":665,"o":"m 575 374 q 578 160 575 235 q 590 53 581 86 q 617 15 599 19 q 665 11 635 11 l 665 0 l 500 0 l 500 311 q 459 153 483 215 q 403 53 435 90 q 336 3 372 17 q 260 -11 300 -11 q 156 6 200 -11 q 83 52 113 24 q 39 117 54 81 q 22 190 24 153 q 33 260 21 226 q 69 319 44 294 q 96 342 82 332 q 121 360 110 353 q 147 374 135 367 l 181 374 l 142 706 q 190 743 163 726 q 249 769 214 758 q 328 781 283 781 q 442 759 394 781 q 518 702 489 738 q 561 622 547 667 q 575 531 575 578 l 575 374 m 329 769 q 255 748 286 769 q 206 679 224 726 q 185 556 189 632 q 194 374 182 481 l 494 374 l 494 564 q 483 643 494 606 q 451 708 472 681 q 399 753 429 736 q 329 769 368 769 m 276 15 q 335 27 303 15 q 397 75 367 39 q 453 178 426 111 q 494 356 479 246 l 494 360 q 358 351 417 354 q 255 341 299 347 q 181 325 211 335 q 133 296 151 315 q 92 214 100 263 q 103 122 85 165 q 166 47 122 78 q 276 15 210 15 m 493 808 l 336 915 l 178 808 l 169 818 l 288 963 l 336 963 l 383 963 l 501 818 l 493 808 z "},"":{"ha":672,"x_min":21,"x_max":665,"o":"m 575 374 q 578 160 575 235 q 590 53 581 86 q 617 15 599 19 q 665 11 635 11 l 665 0 l 500 0 l 500 311 q 459 153 483 215 q 403 53 435 90 q 336 3 372 17 q 260 -11 300 -11 q 156 6 200 -11 q 83 52 113 24 q 39 117 54 81 q 22 190 24 153 q 33 260 21 226 q 69 319 44 294 q 96 342 82 332 q 121 360 110 353 q 147 374 135 367 l 181 374 l 142 706 q 190 743 163 726 q 249 769 214 758 q 328 781 283 781 q 442 759 394 781 q 518 702 489 738 q 561 622 547 667 q 575 531 575 578 l 575 374 m 329 769 q 255 748 286 769 q 206 679 224 726 q 185 556 189 632 q 194 374 182 481 l 494 374 l 494 564 q 483 643 494 606 q 451 708 472 681 q 399 753 429 736 q 329 769 368 769 m 276 15 q 335 27 303 15 q 397 75 367 39 q 453 178 426 111 q 494 356 479 246 l 494 360 q 358 351 417 354 q 255 341 299 347 q 181 325 211 335 q 133 296 151 315 q 92 214 100 263 q 103 122 85 165 q 166 47 122 78 q 276 15 210 15 m 496 903 q 428 831 454 853 q 378 808 401 808 q 338 821 357 808 q 301 849 318 833 q 270 876 285 864 q 243 889 256 889 q 219 879 233 889 q 185 846 206 869 l 176 853 q 244 926 217 903 q 294 949 271 949 q 336 936 317 949 q 372 908 356 924 q 403 881 389 893 q 429 868 417 868 q 453 877 440 868 q 486 911 465 886 l 496 903 z "},"":{"ha":672,"x_min":21,"x_max":665,"o":"m 575 374 q 578 160 575 235 q 590 53 581 86 q 617 15 599 19 q 665 11 635 11 l 665 0 l 500 0 l 500 311 q 459 153 483 215 q 403 53 435 90 q 336 3 372 17 q 260 -11 300 -11 q 156 6 200 -11 q 83 52 113 24 q 39 117 54 81 q 22 190 24 153 q 33 260 21 226 q 69 319 44 294 q 96 342 82 332 q 121 360 110 353 q 147 374 135 367 l 181 374 l 142 706 q 190 743 163 726 q 249 769 214 758 q 328 781 283 781 q 442 759 394 781 q 518 702 489 738 q 561 622 547 667 q 575 531 575 578 l 575 374 m 329 769 q 255 748 286 769 q 206 679 224 726 q 185 556 189 632 q 194 374 182 481 l 494 374 l 494 564 q 483 643 494 606 q 451 708 472 681 q 399 753 429 736 q 329 769 368 769 m 276 15 q 335 27 303 15 q 397 75 367 39 q 453 178 426 111 q 494 356 479 246 l 494 360 q 358 351 417 354 q 255 341 299 347 q 181 325 211 335 q 133 296 151 315 q 92 214 100 263 q 103 122 85 165 q 166 47 122 78 q 276 15 210 15 m 532 889 q 508 832 532 856 q 453 808 485 808 q 396 832 419 808 q 372 889 372 856 q 396 945 372 922 q 453 968 419 968 q 508 945 485 968 q 532 889 532 922 m 300 889 q 276 832 300 856 q 221 808 253 808 q 164 832 188 808 q 140 889 140 856 q 164 945 140 922 q 221 968 188 968 q 276 945 253 968 q 300 889 300 922 z "},"":{"ha":672,"x_min":21,"x_max":665,"o":"m 575 374 q 578 160 575 235 q 590 53 581 86 q 617 15 599 19 q 665 11 635 11 l 665 0 l 500 0 l 500 311 q 459 153 483 215 q 403 53 435 90 q 336 3 372 17 q 260 -11 300 -11 q 156 6 200 -11 q 83 52 113 24 q 39 117 54 81 q 22 190 24 153 q 33 260 21 226 q 69 319 44 294 q 96 342 82 332 q 121 360 110 353 q 147 374 135 367 l 181 374 l 142 706 q 190 743 163 726 q 249 769 214 758 q 328 781 283 781 q 442 759 394 781 q 518 702 489 738 q 561 622 547 667 q 575 531 575 578 l 575 374 m 329 769 q 255 748 286 769 q 206 679 224 726 q 185 556 189 632 q 194 374 182 481 l 494 374 l 494 564 q 483 643 494 606 q 451 708 472 681 q 399 753 429 736 q 329 769 368 769 m 276 15 q 335 27 303 15 q 397 75 367 39 q 453 178 426 111 q 494 356 479 246 l 494 360 q 358 351 417 354 q 255 341 299 347 q 181 325 211 335 q 133 296 151 315 q 92 214 100 263 q 103 122 85 165 q 166 47 122 78 q 276 15 210 15 m 335 781 q 273 807 299 781 q 247 869 247 833 q 273 931 247 906 q 335 957 299 957 q 397 931 371 957 q 424 869 424 906 q 397 807 424 833 q 335 781 371 781 m 335 938 q 287 917 307 938 q 267 869 267 897 q 287 820 267 840 q 335 800 307 800 q 384 820 364 800 q 404 869 404 840 q 384 917 404 897 q 335 938 364 938 z "},"":{"ha":607,"x_min":35,"x_max":586,"o":"m 346 33 q 404 43 371 33 q 470 89 438 53 q 531 195 503 125 q 574 386 560 265 l 586 386 q 546 190 572 267 q 485 69 519 114 q 411 8 451 25 q 329 -10 371 -10 q 215 21 268 -10 q 121 105 161 51 q 58 231 81 158 q 35 386 35 303 q 58 540 35 468 q 120 666 82 613 q 208 751 158 719 q 311 782 258 782 q 401 755 360 782 q 473 676 443 728 q 519 547 503 624 q 535 369 536 469 l 447 369 l 124 369 q 144 228 126 290 q 192 123 163 167 q 262 56 222 79 q 346 33 301 33 m 311 771 q 238 740 272 771 q 178 657 204 710 q 138 535 153 604 q 124 386 124 465 l 124 381 l 449 381 q 451 554 458 481 q 423 676 443 628 q 374 747 403 724 q 311 771 344 771 m 433 818 l 425 808 l 199 963 l 317 963 l 433 818 z "},"":{"ha":607,"x_min":35,"x_max":586,"o":"m 346 32 q 404 42 371 32 q 470 88 438 51 q 531 194 503 124 q 574 385 560 264 l 586 385 q 546 189 572 265 q 485 68 519 113 q 411 6 451 24 q 329 -11 371 -11 q 215 19 268 -11 q 121 103 161 50 q 58 229 81 157 q 35 385 35 301 q 58 539 35 467 q 120 665 82 611 q 208 749 158 718 q 311 781 258 781 q 401 753 360 781 q 473 674 443 726 q 519 545 503 622 q 535 368 536 468 l 447 368 l 124 368 q 144 227 126 289 q 192 122 163 165 q 262 55 222 78 q 346 32 301 32 m 311 769 q 238 739 272 769 q 178 656 204 708 q 138 533 153 603 q 124 385 124 464 l 124 379 l 449 379 q 451 553 458 479 q 423 674 443 626 q 374 746 403 722 q 311 769 344 769 m 313 963 l 431 963 l 203 808 l 194 818 l 313 963 z "},"":{"ha":607,"x_min":35,"x_max":586,"o":"m 346 32 q 404 42 371 32 q 470 88 438 51 q 531 194 503 124 q 574 385 560 264 l 586 385 q 546 189 572 265 q 485 68 519 113 q 411 6 451 24 q 329 -11 371 -11 q 215 19 268 -11 q 121 103 161 50 q 58 229 81 157 q 35 385 35 301 q 58 539 35 467 q 120 665 82 611 q 208 749 158 718 q 311 781 258 781 q 401 753 360 781 q 473 674 443 726 q 519 545 503 622 q 535 368 536 468 l 447 368 l 124 368 q 144 227 126 289 q 192 122 163 165 q 262 55 222 78 q 346 32 301 32 m 311 769 q 238 739 272 769 q 178 656 204 708 q 138 533 153 603 q 124 385 124 464 l 124 379 l 449 379 q 451 553 458 479 q 423 674 443 626 q 374 746 403 722 q 311 769 344 769 m 471 808 l 314 915 l 156 808 l 147 818 l 265 963 l 314 963 l 361 963 l 479 818 l 471 808 z "},"":{"ha":607,"x_min":35,"x_max":586,"o":"m 346 32 q 404 42 371 32 q 470 88 438 51 q 531 194 503 124 q 574 385 560 264 l 586 385 q 546 189 572 265 q 485 68 519 113 q 411 6 451 24 q 329 -11 371 -11 q 215 19 268 -11 q 121 103 161 50 q 58 229 81 157 q 35 385 35 301 q 58 539 35 467 q 120 665 82 611 q 208 749 158 718 q 311 781 258 781 q 401 753 360 781 q 473 674 443 726 q 519 545 503 622 q 535 368 536 468 l 447 368 l 124 368 q 144 227 126 289 q 192 122 163 165 q 262 55 222 78 q 346 32 301 32 m 311 769 q 238 739 272 769 q 178 656 204 708 q 138 533 153 603 q 124 385 124 464 l 124 379 l 449 379 q 451 553 458 479 q 423 674 443 626 q 374 746 403 722 q 311 769 344 769 m 507 889 q 483 832 507 856 q 428 808 460 808 q 371 832 394 808 q 347 889 347 856 q 371 945 347 922 q 428 968 394 968 q 483 945 460 968 q 507 889 507 922 m 275 889 q 251 832 275 856 q 196 808 228 808 q 139 832 163 808 q 115 889 115 856 q 139 945 115 922 q 196 968 163 968 q 251 945 228 968 q 275 889 275 922 z "},"":{"ha":281,"x_min":11,"x_max":274,"o":"m 182 374 q 185 159 182 233 q 197 52 188 85 q 225 15 207 19 q 274 11 243 11 l 274 0 l 11 0 l 11 11 q 60 15 42 11 q 87 52 78 19 q 99 159 96 85 q 101 374 101 233 q 99 580 101 508 q 87 683 96 651 q 60 717 78 714 q 11 721 42 721 l 11 733 q 76 736 46 733 q 129 747 103 739 q 171 769 156 754 l 182 769 l 182 374 m 257 818 l 249 808 l 22 963 l 140 963 l 257 818 z "},"":{"ha":281,"x_min":11,"x_max":274,"o":"m 182 374 q 185 159 182 233 q 197 52 188 85 q 225 15 207 19 q 274 11 243 11 l 274 0 l 11 0 l 11 11 q 60 15 42 11 q 87 52 78 19 q 99 159 96 85 q 101 374 101 233 q 99 580 101 508 q 87 683 96 651 q 60 717 78 714 q 11 721 42 721 l 11 733 q 76 736 46 733 q 129 747 103 739 q 171 769 156 754 l 182 769 l 182 374 m 140 963 l 258 963 l 31 808 l 22 818 l 140 963 z "},"":{"ha":281,"x_min":-25,"x_max":307,"o":"m 182 374 q 185 159 182 233 q 197 52 188 85 q 225 15 207 19 q 274 11 243 11 l 274 0 l 11 0 l 11 11 q 60 15 42 11 q 87 52 78 19 q 99 159 96 85 q 101 374 101 233 q 99 580 101 508 q 87 683 96 651 q 60 717 78 714 q 11 721 42 721 l 11 733 q 76 736 46 733 q 129 747 103 739 q 171 769 156 754 l 182 769 l 182 374 m 299 808 l 142 915 l -17 808 l -25 818 l 93 963 l 142 963 l 189 963 l 307 818 l 299 808 z "},"":{"ha":281,"x_min":-56,"x_max":336,"o":"m 182 374 q 185 159 182 233 q 197 52 188 85 q 225 15 207 19 q 274 11 243 11 l 274 0 l 11 0 l 11 11 q 60 15 42 11 q 87 52 78 19 q 99 159 96 85 q 101 374 101 233 q 99 580 101 508 q 87 683 96 651 q 60 717 78 714 q 11 721 42 721 l 11 733 q 76 736 46 733 q 129 747 103 739 q 171 769 156 754 l 182 769 l 182 374 m 336 889 q 313 832 336 856 q 257 808 289 808 q 200 832 224 808 q 176 889 176 856 q 200 945 176 922 q 257 968 224 968 q 313 945 289 968 q 336 889 336 922 m 104 889 q 81 832 104 856 q 25 808 57 808 q -32 832 -8 808 q -56 889 -56 856 q -32 945 -56 922 q 25 968 -8 968 q 81 945 57 968 q 104 889 104 922 z "},"":{"ha":672,"x_min":11,"x_max":665,"o":"m 576 375 q 578 160 576 235 q 590 53 581 86 q 617 15 599 19 q 665 11 635 11 l 665 0 l 403 0 l 403 11 q 438 13 424 11 q 463 23 453 14 q 480 53 474 32 q 490 115 486 75 q 494 219 493 156 q 496 375 496 282 l 496 588 q 488 673 496 640 q 465 724 479 706 q 433 748 451 742 q 393 754 414 754 q 342 742 372 754 q 282 690 313 729 q 225 580 251 651 q 185 389 199 508 l 183 375 q 185 160 183 235 q 197 53 188 86 q 224 16 206 21 q 274 11 243 11 l 274 0 l 11 0 l 11 11 q 47 13 32 11 q 71 23 61 14 q 87 53 81 32 q 97 115 93 75 q 101 219 100 156 q 103 375 103 282 q 101 581 103 510 q 90 684 99 653 q 63 719 81 715 q 14 722 44 722 l 14 735 q 76 738 46 735 q 127 747 101 740 q 168 769 153 754 l 179 769 l 179 443 q 219 610 194 544 q 274 713 243 675 q 342 766 306 751 q 418 781 379 781 q 488 762 458 781 q 538 712 518 743 q 567 641 557 681 q 576 560 576 601 l 576 375 m 496 903 q 428 831 454 853 q 378 808 401 808 q 338 821 357 808 q 301 849 318 833 q 270 876 285 864 q 243 889 256 889 q 219 879 233 889 q 185 846 206 869 l 176 853 q 244 926 217 903 q 294 949 271 949 q 336 936 317 949 q 372 908 356 924 q 403 881 389 893 q 429 868 417 868 q 453 877 440 868 q 486 911 465 886 l 496 903 z "},"":{"ha":657,"x_min":35,"x_max":622,"o":"m 329 781 q 443 749 390 781 q 536 665 496 718 q 599 539 576 611 q 622 385 622 467 q 599 231 622 303 q 536 105 576 158 q 443 20 496 51 q 329 -11 390 -11 q 214 20 268 -11 q 120 105 160 51 q 58 231 81 158 q 35 385 35 303 q 58 539 35 467 q 120 665 81 611 q 214 749 160 718 q 329 781 268 781 m 329 -1 q 408 29 371 -1 q 474 113 446 60 q 517 235 501 165 q 533 385 533 306 q 517 533 533 464 q 474 656 501 603 q 408 739 446 708 q 329 769 371 769 q 249 739 286 769 q 183 656 211 708 q 139 533 156 603 q 122 385 122 464 q 139 235 122 306 q 183 113 156 165 q 249 29 211 60 q 329 -1 286 -1 m 446 818 l 438 808 l 211 963 l 329 963 l 446 818 z "},"":{"ha":657,"x_min":35,"x_max":622,"o":"m 329 781 q 443 749 390 781 q 536 665 496 718 q 599 539 576 611 q 622 385 622 467 q 599 231 622 303 q 536 105 576 158 q 443 20 496 51 q 329 -11 390 -11 q 214 20 268 -11 q 120 105 160 51 q 58 231 81 158 q 35 385 35 303 q 58 539 35 467 q 120 665 81 611 q 214 749 160 718 q 329 781 268 781 m 329 -1 q 408 29 371 -1 q 474 113 446 60 q 517 235 501 165 q 533 385 533 306 q 517 533 533 464 q 474 656 501 603 q 408 739 446 708 q 329 769 371 769 q 249 739 286 769 q 183 656 211 708 q 139 533 156 603 q 122 385 122 464 q 139 235 122 306 q 183 113 156 165 q 249 29 211 60 q 329 -1 286 -1 m 328 963 l 446 963 l 218 808 l 210 818 l 328 963 z "},"":{"ha":657,"x_min":35,"x_max":622,"o":"m 329 781 q 443 749 390 781 q 536 665 496 718 q 599 539 576 611 q 622 385 622 467 q 599 231 622 303 q 536 105 576 158 q 443 20 496 51 q 329 -11 390 -11 q 214 20 268 -11 q 120 105 160 51 q 58 231 81 158 q 35 385 35 303 q 58 539 35 467 q 120 665 81 611 q 214 749 160 718 q 329 781 268 781 m 329 -1 q 408 29 371 -1 q 474 113 446 60 q 517 235 501 165 q 533 385 533 306 q 517 533 533 464 q 474 656 501 603 q 408 739 446 708 q 329 769 371 769 q 249 739 286 769 q 183 656 211 708 q 139 533 156 603 q 122 385 122 464 q 139 235 122 306 q 183 113 156 165 q 249 29 211 60 q 329 -1 286 -1 m 488 903 q 419 831 446 853 q 369 808 393 808 q 329 821 349 808 q 293 849 310 833 q 262 876 276 864 q 235 889 247 889 q 211 879 225 889 q 176 846 197 869 l 168 853 q 235 926 208 903 q 286 949 263 949 q 328 936 308 949 q 364 908 347 924 q 394 881 381 893 q 421 868 408 868 q 444 877 432 868 q 478 911 457 886 l 488 903 z "},"":{"ha":657,"x_min":35,"x_max":622,"o":"m 329 781 q 443 749 390 781 q 536 665 496 718 q 599 539 576 611 q 622 385 622 467 q 599 231 622 303 q 536 105 576 158 q 443 20 496 51 q 329 -11 390 -11 q 214 20 268 -11 q 120 105 160 51 q 58 231 81 158 q 35 385 35 303 q 58 539 35 467 q 120 665 81 611 q 214 749 160 718 q 329 781 268 781 m 329 -1 q 408 29 371 -1 q 474 113 446 60 q 517 235 501 165 q 533 385 533 306 q 517 533 533 464 q 474 656 501 603 q 408 739 446 708 q 329 769 371 769 q 249 739 286 769 q 183 656 211 708 q 139 533 156 603 q 122 385 122 464 q 139 235 122 306 q 183 113 156 165 q 249 29 211 60 q 329 -1 286 -1 m 524 889 q 500 832 524 856 q 444 808 476 808 q 388 832 411 808 q 364 889 364 856 q 388 945 364 922 q 444 968 411 968 q 500 945 476 968 q 524 889 524 922 m 292 889 q 268 832 292 856 q 213 808 244 808 q 156 832 179 808 q 132 889 132 856 q 156 945 132 922 q 213 968 179 968 q 268 945 244 968 q 292 889 292 922 z "},"":{"ha":668,"x_min":7,"x_max":660,"o":"m 99 394 q 96 590 99 522 q 83 686 93 657 q 56 719 74 715 q 7 722 38 722 l 7 735 q 72 738 42 735 q 126 748 99 740 q 168 771 153 756 l 179 771 l 179 394 l 179 182 q 188 97 179 129 q 209 46 196 64 q 241 22 222 28 q 281 15 260 15 q 332 28 301 15 q 392 79 363 40 q 449 190 422 118 q 490 381 476 263 l 490 394 q 488 590 490 522 q 476 686 485 657 q 449 719 467 715 q 400 722 431 722 l 400 735 q 465 738 435 735 q 518 748 492 740 q 560 771 544 756 l 571 771 l 571 394 q 571 229 571 296 q 574 120 571 163 q 581 56 576 78 q 597 24 586 33 q 622 13 607 14 q 660 13 638 13 l 660 0 l 496 0 l 496 326 q 455 160 479 225 q 399 56 431 94 q 332 3 368 18 q 256 -11 296 -11 q 185 8 215 -11 q 136 58 156 26 q 108 128 117 89 q 99 210 99 168 l 99 394 m 451 818 l 443 808 l 217 963 l 335 963 l 451 818 z "},"":{"ha":668,"x_min":7,"x_max":660,"o":"m 99 394 q 96 590 99 522 q 83 686 93 657 q 56 719 74 715 q 7 722 38 722 l 7 735 q 72 738 42 735 q 126 748 99 740 q 168 771 153 756 l 179 771 l 179 394 l 179 182 q 188 97 179 129 q 209 46 196 64 q 241 22 222 28 q 281 15 260 15 q 332 28 301 15 q 392 79 363 40 q 449 190 422 118 q 490 381 476 263 l 490 394 q 488 590 490 522 q 476 686 485 657 q 449 719 467 715 q 400 722 431 722 l 400 735 q 465 738 435 735 q 518 748 492 740 q 560 771 544 756 l 571 771 l 571 394 q 571 229 571 296 q 574 120 571 163 q 581 56 576 78 q 597 24 586 33 q 622 13 607 14 q 660 13 638 13 l 660 0 l 496 0 l 496 326 q 455 160 479 225 q 399 56 431 94 q 332 3 368 18 q 256 -11 296 -11 q 185 8 215 -11 q 136 58 156 26 q 108 128 117 89 q 99 210 99 168 l 99 394 m 333 963 l 451 963 l 224 808 l 215 818 l 333 963 z "},"":{"ha":668,"x_min":7,"x_max":660,"o":"m 99 394 q 96 590 99 522 q 83 686 93 657 q 56 719 74 715 q 7 722 38 722 l 7 735 q 72 738 42 735 q 126 748 99 740 q 168 771 153 756 l 179 771 l 179 394 l 179 182 q 188 97 179 129 q 209 46 196 64 q 241 22 222 28 q 281 15 260 15 q 332 28 301 15 q 392 79 363 40 q 449 190 422 118 q 490 381 476 263 l 490 394 q 488 590 490 522 q 476 686 485 657 q 449 719 467 715 q 400 722 431 722 l 400 735 q 465 738 435 735 q 518 748 492 740 q 560 771 544 756 l 571 771 l 571 394 q 571 229 571 296 q 574 120 571 163 q 581 56 576 78 q 597 24 586 33 q 622 13 607 14 q 660 13 638 13 l 660 0 l 496 0 l 496 326 q 455 160 479 225 q 399 56 431 94 q 332 3 368 18 q 256 -11 296 -11 q 185 8 215 -11 q 136 58 156 26 q 108 128 117 89 q 99 210 99 168 l 99 394 m 492 808 l 335 915 l 176 808 l 168 818 l 286 963 l 335 963 l 382 963 l 500 818 l 492 808 z "},"":{"ha":668,"x_min":7,"x_max":660,"o":"m 99 394 q 96 590 99 522 q 83 686 93 657 q 56 719 74 715 q 7 722 38 722 l 7 735 q 72 738 42 735 q 126 748 99 740 q 168 771 153 756 l 179 771 l 179 394 l 179 182 q 188 97 179 129 q 209 46 196 64 q 241 22 222 28 q 281 15 260 15 q 332 28 301 15 q 392 79 363 40 q 449 190 422 118 q 490 381 476 263 l 490 394 q 488 590 490 522 q 476 686 485 657 q 449 719 467 715 q 400 722 431 722 l 400 735 q 465 738 435 735 q 518 748 492 740 q 560 771 544 756 l 571 771 l 571 394 q 571 229 571 296 q 574 120 571 163 q 581 56 576 78 q 597 24 586 33 q 622 13 607 14 q 660 13 638 13 l 660 0 l 496 0 l 496 326 q 455 160 479 225 q 399 56 431 94 q 332 3 368 18 q 256 -11 296 -11 q 185 8 215 -11 q 136 58 156 26 q 108 128 117 89 q 99 210 99 168 l 99 394 m 529 889 q 506 832 529 856 q 450 808 482 808 q 393 832 417 808 q 369 889 369 856 q 393 945 369 922 q 450 968 417 968 q 506 945 482 968 q 529 889 529 922 m 297 889 q 274 832 297 856 q 218 808 250 808 q 161 832 185 808 q 138 889 138 856 q 161 945 138 922 q 218 968 185 968 q 274 945 250 968 q 297 889 297 922 z "},"":{"ha":596,"x_min":7,"x_max":582,"o":"m 582 769 l 582 758 q 565 758 578 758 q 536 743 551 757 q 514 708 525 732 q 489 642 503 685 q 457 537 475 600 q 414 382 439 474 l 307 6 l 307 6 q 265 -108 289 -64 q 213 -180 242 -153 q 153 -217 185 -207 q 88 -228 121 -228 q 59 -224 72 -228 q 35 -218 46 -221 q 15 -207 24 -212 l 63 185 l 75 185 q 63 9 63 78 q 73 -99 63 -60 q 102 -154 83 -139 q 144 -169 121 -169 q 171 -165 154 -169 q 208 -143 188 -161 q 251 -90 229 -125 q 290 7 272 -56 q 285 26 289 11 q 268 83 281 42 q 235 195 256 124 q 179 382 214 267 q 134 535 153 472 q 101 641 115 599 q 76 707 88 683 q 53 743 65 731 q 26 756 42 754 q 7 758 10 758 l 7 769 l 231 769 l 231 758 q 181 754 197 758 q 169 715 165 750 q 194 604 172 681 q 258 382 217 528 q 279 313 269 347 q 299 249 289 279 q 316 194 308 218 q 328 156 324 169 q 350 225 338 188 q 372 297 360 257 q 396 382 383 338 q 441 544 424 479 q 468 651 458 610 q 478 715 478 693 q 472 747 479 738 q 450 758 465 757 q 411 758 435 758 l 411 769 l 582 769 m 329 963 l 447 963 l 219 808 l 211 818 l 329 963 z "},"":{"ha":596,"x_min":7,"x_max":582,"o":"m 582 769 l 582 758 q 565 758 578 758 q 536 743 551 757 q 514 708 525 732 q 489 642 503 685 q 457 537 475 600 q 414 382 439 474 l 307 6 l 307 6 q 265 -108 289 -64 q 213 -180 242 -153 q 153 -217 185 -207 q 88 -228 121 -228 q 59 -224 72 -228 q 35 -218 46 -221 q 15 -207 24 -212 l 63 185 l 75 185 q 63 9 63 78 q 73 -99 63 -60 q 102 -154 83 -139 q 144 -169 121 -169 q 171 -165 154 -169 q 208 -143 188 -161 q 251 -90 229 -125 q 290 7 272 -56 q 285 26 289 11 q 268 83 281 42 q 235 195 256 124 q 179 382 214 267 q 134 535 153 472 q 101 641 115 599 q 76 707 88 683 q 53 743 65 731 q 26 756 42 754 q 7 758 10 758 l 7 769 l 231 769 l 231 758 q 181 754 197 758 q 169 715 165 750 q 194 604 172 681 q 258 382 217 528 q 279 313 269 347 q 299 249 289 279 q 316 194 308 218 q 328 156 324 169 q 350 225 338 188 q 372 297 360 257 q 396 382 383 338 q 441 544 424 479 q 468 651 458 610 q 478 715 478 693 q 472 747 479 738 q 450 758 465 757 q 411 758 435 758 l 411 769 l 582 769 m 521 889 q 497 832 521 856 q 442 808 474 808 q 385 832 408 808 q 361 889 361 856 q 385 945 361 922 q 442 968 408 968 q 497 945 474 968 q 521 889 521 922 m 289 889 q 265 832 289 856 q 210 808 242 808 q 153 832 176 808 q 129 889 129 856 q 153 945 129 922 q 210 968 176 968 q 265 945 242 968 q 289 889 289 922 z "},"":{"ha":649,"x_min":0,"x_max":649,"o":"m 649 956 q 619 951 633 956 q 589 932 604 947 q 560 888 575 918 q 525 806 544 858 q 479 676 506 754 q 417 485 453 597 q 397 422 406 451 q 378 365 388 393 q 381 157 378 229 q 397 53 385 85 q 431 17 408 21 q 492 13 453 13 l 492 0 l 178 0 l 178 13 q 237 16 215 13 q 270 47 258 19 q 286 138 282 75 q 292 317 290 200 q 266 394 281 353 q 236 485 251 436 q 172 675 199 597 q 126 805 146 753 q 90 887 106 857 q 60 932 75 917 q 31 951 44 947 q 0 956 18 956 l 0 968 l 278 968 l 278 956 q 231 954 250 956 q 203 941 213 953 q 197 901 194 929 q 214 822 200 874 q 255 688 228 769 q 322 485 282 606 q 342 426 333 453 q 360 372 351 399 q 377 426 368 399 q 396 485 386 453 q 461 688 435 606 q 501 822 488 769 q 517 901 515 874 q 510 941 519 929 q 483 954 501 953 q 436 956 464 956 l 436 968 l 649 968 l 649 956 m 560 1063 q 536 1006 560 1029 q 481 982 513 982 q 424 1006 447 982 q 400 1063 400 1029 q 424 1119 400 1096 q 481 1142 447 1142 q 536 1119 513 1142 q 560 1063 560 1096 m 328 1063 q 304 1006 328 1029 q 249 982 281 982 q 192 1006 215 982 q 168 1063 168 1029 q 192 1119 168 1096 q 249 1142 215 1142 q 304 1119 281 1142 q 328 1063 328 1096 z "},"":{"ha":758,"x_min":35,"x_max":738,"o":"m 738 965 l 738 953 q 691 951 710 953 q 661 939 672 950 q 643 876 642 919 q 653 766 644 833 q 673 608 663 699 q 683 404 683 518 q 656 217 683 296 q 585 87 629 138 q 488 12 542 36 q 379 -12 433 -12 q 207 44 279 -8 q 149 102 176 67 q 101 190 121 138 q 75 315 82 243 q 79 482 68 386 q 103 685 93 603 q 117 819 113 767 q 119 899 121 871 q 108 938 118 926 q 81 951 99 950 q 35 953 63 953 l 35 965 l 315 965 l 315 953 q 294 951 311 953 q 263 936 278 950 q 238 894 250 922 q 215 813 226 865 q 191 679 203 760 q 165 482 179 599 q 165 266 151 356 q 210 119 178 176 q 287 34 242 61 q 379 7 332 7 q 487 33 436 7 q 576 108 538 58 q 636 231 614 158 q 658 396 658 303 q 656 478 658 429 q 649 581 654 526 q 637 692 644 636 q 619 797 629 749 q 597 883 610 846 q 569 935 585 919 q 551 948 561 944 q 518 951 542 951 l 518 964 l 738 965 m 419 1136 l 538 1136 l 310 982 l 301 992 l 419 1136 z "},"":{"ha":594,"x_min":0,"x_max":594,"o":"m 594 483 l 536 0 l 0 0 l 247 483 q 351 686 310 604 q 415 820 392 768 q 446 900 439 872 q 447 940 453 928 q 422 953 440 951 q 374 954 403 954 l 221 954 q 145 929 175 954 q 94 848 115 904 q 56 702 72 792 q 25 483 40 613 l 8 483 l 67 967 l 581 967 l 333 483 q 233 287 274 367 q 169 154 193 207 q 137 73 146 101 q 133 31 128 44 q 153 14 138 17 q 194 11 169 11 l 383 11 q 458 36 428 11 q 510 117 489 61 q 547 264 531 174 q 578 483 563 354 l 594 483 m 139 1136 l 297 1029 l 454 1136 l 463 1126 l 346 982 l 297 982 l 249 982 l 131 1126 l 139 1136 z "},"":{"ha":608,"x_min":21,"x_max":588,"o":"m 140 767 q 174 653 140 697 q 256 576 207 608 q 364 518 306 544 q 472 458 422 492 q 554 378 521 425 q 588 257 588 331 q 566 149 588 199 q 508 65 544 100 q 421 9 471 29 q 313 -11 371 -11 q 211 -2 253 -11 q 142 17 169 7 q 97 37 114 28 q 71 46 81 46 q 57 38 64 46 q 44 18 50 29 q 35 -11 39 4 l 21 -11 l 75 442 l 92 442 q 88 222 75 307 q 132 88 100 136 q 212 21 164 39 q 315 3 260 3 q 390 22 354 3 q 454 69 426 40 q 499 132 482 97 q 515 199 515 167 q 482 313 515 268 q 399 389 449 357 q 291 447 349 421 q 183 507 233 474 q 100 588 133 540 q 67 708 67 635 q 88 816 67 767 q 146 901 110 865 q 230 956 182 936 q 332 976 278 976 q 396 967 369 976 q 441 948 422 958 q 472 928 460 938 q 492 919 483 919 q 506 928 499 919 q 517 949 513 938 q 528 976 522 961 l 542 976 l 488 524 l 471 524 q 480 744 488 658 q 451 878 472 829 q 397 946 429 928 q 329 964 364 964 q 265 949 299 964 q 204 909 232 935 q 158 847 176 883 q 140 767 140 811 m 179 1149 l 338 1042 l 494 1149 l 503 1139 l 386 994 l 338 994 l 289 994 l 171 1139 l 179 1149 z "},"":{"ha":657,"x_min":35,"x_max":622,"o":"m 329 781 q 443 749 390 781 q 536 665 496 718 q 599 539 576 611 q 622 385 622 467 q 599 231 622 303 q 536 105 576 158 q 443 20 496 51 q 329 -11 390 -11 q 214 20 268 -11 q 120 105 160 51 q 58 231 81 158 q 35 385 35 303 q 58 539 35 467 q 120 665 81 611 q 214 749 160 718 q 329 781 268 781 m 329 -1 q 408 29 371 -1 q 474 113 446 60 q 517 235 501 165 q 533 385 533 306 q 517 533 533 464 q 474 656 501 603 q 408 739 446 708 q 329 769 371 769 q 249 739 286 769 q 183 656 211 708 q 139 533 156 603 q 122 385 122 464 q 139 235 122 306 q 183 113 156 165 q 249 29 211 60 q 329 -1 286 -1 m 486 808 l 329 915 l 171 808 l 163 818 l 281 963 l 329 963 l 376 963 l 494 818 l 486 808 z "},"":{"ha":672,"x_min":36,"x_max":639,"o":"m 329 750 l 275 750 q 347 841 311 800 q 411 913 383 882 q 475 976 444 949 l 490 968 q 439 910 465 942 q 387 840 415 881 q 329 750 358 800 m 36 325 q 65 478 36 415 q 138 581 93 540 q 240 639 183 621 q 354 657 297 657 q 408 650 383 657 q 449 636 432 643 q 485 614 469 626 l 493 604 q 421 752 461 686 q 344 867 381 818 q 260 968 303 924 l 276 976 q 458 774 378 879 q 546 644 504 714 q 613 501 588 574 q 639 354 639 428 q 615 192 639 261 q 551 78 592 124 q 456 11 511 33 q 338 -11 400 -11 q 201 20 258 -11 q 108 101 144 51 q 53 210 71 150 q 36 325 36 269 m 122 325 q 138 209 122 267 q 183 105 154 151 q 252 30 213 58 q 338 1 292 1 q 412 15 374 1 q 481 65 450 29 q 532 160 513 100 q 551 315 551 221 q 544 416 551 367 q 524 513 536 465 q 451 608 494 571 q 354 644 407 644 q 254 617 297 644 q 182 546 211 590 q 138 444 153 501 q 122 325 122 386 z "},"":{"ha":517,"x_min":21,"x_max":497,"o":"m 497 382 l 450 0 l 21 0 q 42 46 21 4 q 63 91 50 64 q 97 159 76 118 q 144 255 117 200 q 210 382 172 310 q 293 544 260 479 q 347 652 326 610 q 374 717 367 694 q 376 748 381 739 q 358 758 372 757 q 321 760 343 760 l 197 760 q 137 740 161 760 q 96 674 113 719 q 67 558 79 629 q 42 382 54 486 l 28 382 l 75 769 l 493 769 l 296 382 q 215 225 249 289 q 163 120 182 161 q 135 56 143 79 q 129 23 126 33 q 144 11 132 13 q 176 10 156 10 l 328 10 q 388 29 364 10 q 429 92 413 49 q 458 208 446 136 q 483 382 471 279 l 497 382 m 100 963 l 258 856 l 415 963 l 424 953 l 307 808 l 258 808 l 210 808 l 92 953 l 100 963 z "},"":{"ha":589,"x_min":35,"x_max":554,"o":"m 136 611 q 167 520 136 556 q 244 459 199 485 q 345 413 290 433 q 446 365 400 392 q 523 300 492 338 q 554 203 554 263 q 534 117 554 157 q 480 49 514 78 q 399 5 446 21 q 297 -11 351 -11 q 173 3 222 -11 q 92 32 124 17 q 35 75 56 51 l 68 351 l 82 351 q 82 175 69 243 q 126 67 94 107 q 202 13 157 28 q 299 -1 247 -1 q 370 14 336 -1 q 430 52 404 29 q 472 103 456 75 q 488 157 488 131 q 456 239 488 206 q 378 298 425 272 q 278 347 332 324 q 177 398 224 369 q 99 467 131 426 q 68 565 68 507 q 88 652 68 613 q 142 720 108 692 q 220 765 175 749 q 315 781 265 781 q 399 769 364 781 q 457 743 433 758 q 503 706 485 726 l 468 418 l 454 418 q 458 594 467 525 q 428 701 450 663 q 376 755 407 740 q 314 769 346 769 q 253 758 285 769 q 197 725 222 746 q 153 675 171 704 q 136 611 136 646 m 160 963 l 318 856 l 475 963 l 483 953 l 367 808 l 318 808 l 269 808 l 151 953 l 160 963 z "},"":{"ha":193,"x_min":0,"x_max":193,"o":"m 76 0 q 115 -18 94 -10 q 152 -36 135 -26 q 181 -60 169 -46 q 193 -97 193 -75 q 165 -154 193 -132 q 97 -176 138 -176 q 51 -172 69 -176 q 21 -161 32 -167 q 0 -144 8 -153 l 13 -42 l 17 -42 q 17 -107 13 -82 q 34 -147 22 -132 q 63 -167 46 -161 q 99 -172 79 -172 q 147 -153 126 -172 q 168 -114 168 -133 q 151 -78 168 -92 q 110 -53 133 -64 q 63 -30 86 -42 q 25 0 39 -18 l 76 0 z "},"":{"ha":1292,"x_min":35,"x_max":1257,"o":"m 1257 483 l 1197 -11 l 1185 -11 q 1182 17 1183 4 q 1176 36 1179 28 q 1165 44 1172 44 q 1149 36 1160 44 q 1120 17 1139 28 q 1074 -2 1101 7 q 1010 -11 1047 -11 q 830 56 911 -11 q 701 231 749 122 q 647 132 679 176 q 574 56 614 88 q 489 6 535 24 q 393 -11 443 -11 q 254 28 319 -11 q 140 133 189 67 q 63 290 92 200 q 35 483 35 381 q 63 676 35 586 q 140 833 92 765 q 254 939 189 900 q 393 978 319 978 q 489 960 443 978 q 574 911 535 943 q 647 835 614 879 q 701 736 679 790 q 830 911 749 844 q 1010 978 911 978 q 1074 969 1047 978 q 1120 949 1101 960 q 1151 928 1139 938 q 1171 919 1163 919 q 1185 928 1178 919 q 1196 949 1192 938 q 1207 978 1201 961 l 1219 978 l 1165 525 l 1150 525 q 1159 745 1167 660 q 1130 880 1151 831 q 1076 947 1108 929 q 1008 965 1043 965 q 909 926 956 965 q 828 822 863 888 q 774 669 794 757 q 754 483 754 582 q 756 428 754 456 q 760 375 757 401 q 784 490 757 443 q 879 538 811 538 q 931 525 907 538 q 974 497 954 513 q 1012 469 994 482 q 1044 457 1029 457 q 1064 467 1056 457 q 1078 514 1072 478 l 1089 514 q 1081 469 1086 490 q 1063 433 1075 449 q 1032 407 1051 417 q 981 397 1013 397 q 932 410 956 397 q 888 438 908 422 q 848 465 867 453 q 813 478 829 478 q 786 453 794 478 q 778 388 778 428 q 799 219 778 292 q 855 98 821 146 q 930 26 889 50 q 1008 1 971 1 q 1077 20 1043 1 q 1141 92 1111 39 q 1197 240 1171 146 q 1240 483 1222 333 l 1257 483 m 393 1 q 494 40 447 1 q 575 144 540 79 q 630 298 610 210 q 650 483 650 386 q 630 669 650 582 q 575 822 610 757 q 494 926 540 888 q 393 965 447 965 q 294 926 340 965 q 213 822 247 888 q 158 669 178 757 q 138 483 138 582 q 158 298 138 386 q 213 144 178 210 q 294 40 247 79 q 393 1 340 1 z "},"":{"ha":1085,"x_min":0,"x_max":1050,"o":"m 1050 483 l 992 -11 l 978 -11 q 975 17 976 4 q 969 36 972 28 q 958 44 965 44 q 942 36 953 44 q 913 17 932 28 q 867 -2 894 7 q 803 -11 840 -11 q 696 11 747 -11 q 602 74 644 33 q 526 169 560 114 q 472 290 493 224 q 444 255 463 268 q 390 242 425 242 q 338 253 364 242 q 288 278 313 265 q 242 303 264 292 q 204 315 221 315 q 179 294 186 315 q 138 127 150 185 q 131 44 126 69 q 157 15 136 18 q 214 13 178 13 l 214 0 l 0 0 l 0 13 q 24 14 7 13 q 57 33 40 15 q 86 78 72 49 q 117 159 100 107 q 157 290 135 211 q 211 483 179 369 q 256 643 236 574 q 289 763 275 713 q 313 849 303 814 q 328 907 322 885 q 344 967 343 960 l 365 967 l 365 967 q 378 924 367 961 q 406 825 386 893 q 460 633 425 757 q 511 772 478 708 q 589 881 544 835 q 688 952 633 926 q 803 978 743 978 q 867 969 840 978 q 913 949 894 960 q 944 928 932 938 q 963 919 956 919 q 977 928 971 919 q 989 949 983 938 q 999 978 994 961 l 1013 978 l 958 525 l 942 525 q 951 745 958 660 q 922 880 944 831 q 868 947 900 929 q 801 965 836 965 q 702 926 749 965 q 621 822 656 888 q 566 669 586 757 q 546 483 546 582 q 548 428 546 456 q 553 375 550 401 q 577 490 550 443 q 672 538 604 538 q 724 525 700 538 q 767 497 747 513 q 805 469 788 482 q 838 457 822 457 q 858 467 849 457 q 869 514 867 478 l 882 514 q 874 469 879 490 q 857 433 868 449 q 826 407 846 417 q 774 397 806 397 q 725 410 749 397 q 681 438 701 422 q 641 465 660 453 q 606 478 622 478 q 579 453 588 478 q 571 388 571 428 q 592 219 571 292 q 648 98 614 146 q 723 26 682 50 q 801 1 764 1 q 870 20 836 1 q 934 92 904 39 q 990 240 964 146 q 1033 483 1015 333 l 1050 483 m 449 296 q 463 304 460 296 q 463 325 465 313 q 417 483 444 394 q 363 669 385 593 q 322 799 340 746 q 284 669 306 746 q 232 483 263 593 q 211 409 221 443 q 193 343 201 375 q 275 369 222 369 q 329 358 304 369 q 375 333 354 346 q 414 308 396 319 q 449 296 432 296 z "},"":{"ha":789,"x_min":35,"x_max":754,"o":"m 264 22 q 172 96 214 50 q 99 201 129 142 q 51 333 68 261 q 35 483 35 404 q 63 676 35 586 q 140 833 92 765 q 254 939 189 900 q 394 978 319 978 q 493 958 443 978 l 500 992 l 536 992 l 525 944 q 617 872 575 918 q 690 765 660 825 q 737 634 719 706 q 754 483 754 563 q 726 290 754 381 q 649 133 697 200 q 535 28 600 67 q 394 -11 469 -11 q 344 -6 368 -11 q 296 7 319 -1 l 288 -25 l 253 -25 l 264 22 m 651 483 q 614 732 651 619 q 515 907 576 844 l 303 33 q 394 1 346 1 q 494 40 447 1 q 576 144 542 79 q 631 298 611 210 q 651 483 651 386 m 138 483 q 174 235 138 347 q 272 60 211 122 l 486 933 q 394 965 442 965 q 294 926 342 965 q 213 822 247 888 q 158 669 178 757 q 138 483 138 582 z "},"":{"ha":676,"x_min":36,"x_max":642,"o":"m 642 483 l 583 -11 l 569 -11 q 567 17 568 4 q 560 36 564 28 q 550 44 557 44 q 534 36 544 44 q 506 17 524 28 q 460 -2 488 7 q 396 -11 433 -11 q 335 -4 367 -11 l 335 -8 q 358 -22 335 -15 q 408 -37 381 -28 q 458 -63 435 -47 q 481 -104 481 -79 q 453 -162 481 -140 q 386 -185 426 -185 q 339 -180 358 -185 q 308 -169 319 -175 q 288 -153 296 -161 l 300 -50 l 304 -50 q 305 -115 300 -90 q 322 -155 310 -140 q 350 -175 333 -169 q 386 -181 367 -181 q 435 -161 414 -181 q 456 -122 456 -142 q 433 -82 456 -97 q 385 -54 411 -67 q 336 -29 358 -42 q 313 1 314 -17 q 202 66 253 21 q 115 175 151 111 q 57 317 78 239 q 36 483 36 396 q 65 676 36 586 q 142 833 93 765 q 256 939 190 900 q 396 978 321 978 q 460 969 433 978 q 505 949 486 960 q 535 928 524 938 q 556 919 547 919 q 569 928 563 919 q 581 949 576 938 q 592 978 586 961 l 606 978 l 551 525 l 535 525 q 544 745 551 660 q 515 880 536 831 q 460 947 493 929 q 393 965 428 965 q 294 926 340 965 q 213 822 247 888 q 159 669 179 757 q 139 483 139 582 q 159 298 139 386 q 213 144 179 210 q 294 40 247 79 q 393 1 340 1 q 462 20 428 1 q 526 92 496 39 q 583 240 557 146 q 626 483 608 333 l 642 483 z "},"":{"ha":1106,"x_min":35,"x_max":1085,"o":"m 1085 385 q 1044 190 1071 267 q 984 69 1018 113 q 910 8 950 25 q 829 -10 871 -10 q 683 41 749 -10 q 578 178 617 92 q 474 42 539 93 q 329 -10 408 -10 q 215 22 268 -10 q 121 106 161 53 q 58 231 81 160 q 35 385 35 303 q 58 539 35 467 q 121 665 81 611 q 215 749 161 718 q 329 781 268 781 q 474 729 408 781 q 579 592 540 678 q 678 729 617 678 q 810 781 739 781 q 900 753 858 781 q 972 674 942 726 q 1018 545 1001 622 q 1033 368 1035 468 l 946 368 l 624 368 q 644 228 625 290 q 692 122 663 165 q 762 55 722 78 q 846 32 801 32 q 903 42 871 32 q 969 89 936 53 q 1030 195 1001 125 q 1072 385 1058 265 l 1085 385 m 329 0 q 408 31 371 0 q 474 114 446 61 q 519 237 503 167 q 535 385 535 307 q 519 534 535 464 q 474 657 503 604 q 408 740 446 710 q 329 771 371 771 q 249 740 286 771 q 183 657 211 710 q 140 534 156 604 q 124 385 124 464 q 140 237 124 307 q 183 114 156 167 q 249 31 211 61 q 329 0 286 0 m 622 385 l 622 381 l 947 381 q 949 554 957 481 q 922 676 942 628 q 873 747 903 724 q 810 771 843 771 q 738 740 772 771 q 678 657 704 710 q 638 534 653 604 q 622 385 622 464 z "},"":{"ha":1065,"x_min":15,"x_max":1044,"o":"m 1044 385 q 1004 190 1031 267 q 944 69 978 113 q 869 8 910 25 q 788 -10 829 -10 q 685 15 733 -10 q 599 82 638 39 q 535 184 561 125 q 500 313 510 243 l 500 311 q 459 153 483 215 q 403 55 435 92 q 335 4 372 18 q 258 -10 299 -10 q 115 28 169 -10 q 38 118 60 65 q 24 227 15 171 q 69 321 32 283 q 96 344 82 333 q 121 361 110 354 q 146 375 133 368 l 181 375 l 140 707 q 189 744 161 728 q 248 769 213 758 q 328 781 283 781 q 415 763 376 781 q 481 719 453 746 q 528 660 510 693 q 553 596 546 628 q 579 660 560 628 q 628 719 599 693 q 693 763 657 746 q 769 781 729 781 q 860 753 818 781 q 931 674 901 726 q 978 545 961 622 q 993 368 994 468 l 906 368 l 582 368 q 603 228 585 290 q 651 122 621 165 q 722 55 682 78 q 804 32 761 32 q 863 42 829 32 q 928 89 896 53 q 990 195 961 125 q 1032 385 1018 265 l 1044 385 m 329 771 q 255 749 286 771 q 206 681 224 728 q 184 558 188 633 q 193 375 181 482 l 494 375 q 494 390 494 385 q 494 413 494 396 q 493 464 493 429 q 493 565 493 499 q 482 644 493 607 q 450 710 471 682 q 399 754 429 738 q 329 771 368 771 m 276 17 q 334 28 303 17 q 396 76 365 40 q 453 180 426 113 q 494 357 479 247 l 494 361 q 358 352 417 356 q 255 342 299 349 q 181 326 211 336 q 132 297 151 317 q 91 215 99 264 q 102 123 83 167 q 165 48 121 79 q 276 17 208 17 m 582 385 l 582 381 l 907 381 q 909 554 917 481 q 881 676 901 628 q 832 747 861 724 q 769 771 803 771 q 697 740 731 771 q 637 657 663 710 q 597 534 611 604 q 582 385 582 464 z "},"":{"ha":606,"x_min":35,"x_max":585,"o":"m 585 385 q 544 190 571 267 q 484 69 518 113 q 410 8 450 25 q 329 -10 371 -10 q 383 -39 358 -22 q 407 -89 407 -56 q 379 -146 407 -124 q 311 -168 351 -168 q 265 -163 283 -168 q 235 -153 246 -158 q 214 -136 222 -144 l 225 -33 l 231 -33 q 231 -99 226 -74 q 247 -138 236 -124 q 276 -158 258 -153 q 311 -164 293 -164 q 360 -144 339 -164 q 382 -106 382 -125 q 365 -69 382 -83 q 324 -44 347 -56 q 276 -22 300 -33 q 238 8 251 -10 q 156 64 193 28 q 92 149 119 100 q 50 258 65 199 q 35 385 35 318 q 58 539 35 467 q 121 665 81 611 q 215 749 161 718 q 329 781 268 781 q 397 769 368 781 q 446 744 426 758 q 486 707 469 728 l 451 418 l 438 418 q 446 594 450 526 q 425 702 442 663 q 383 756 408 742 q 328 771 357 771 q 249 740 286 771 q 183 657 211 710 q 140 534 156 604 q 124 385 124 464 q 142 238 124 303 q 190 126 160 172 q 260 56 219 81 q 346 32 300 32 q 403 42 371 32 q 469 89 436 53 q 530 195 501 125 q 572 385 558 265 l 585 385 z "},"":{"ha":657,"x_min":33,"x_max":622,"o":"m 432 756 q 508 698 474 735 q 569 613 543 661 q 608 506 594 564 q 622 385 622 449 q 599 231 622 303 q 536 106 576 160 q 442 22 496 53 q 328 -10 389 -10 q 249 4 285 -10 l 243 -21 l 214 -21 l 224 15 q 147 73 182 36 q 87 158 113 110 q 47 265 61 207 q 33 385 33 322 q 56 539 33 467 q 119 665 79 611 q 213 749 160 718 q 328 781 267 781 q 407 767 371 781 l 413 793 l 442 793 l 432 756 m 122 385 q 152 186 122 276 q 231 46 182 96 l 401 746 q 328 771 367 771 q 247 740 285 771 q 182 657 210 710 q 138 534 154 604 q 122 385 122 464 m 328 0 q 408 31 371 0 q 474 114 446 61 q 517 237 501 167 q 533 385 533 307 q 503 585 533 494 q 425 725 474 675 l 254 25 q 328 0 290 0 z "},"":{"ha":571,"x_min":35,"x_max":536,"o":"m 156 44 q 138 2 156 19 q 94 -15 119 -15 q 52 2 69 -15 q 35 44 35 19 q 52 88 35 69 q 94 106 69 106 q 138 88 119 106 q 156 44 156 69 m 346 44 q 328 2 346 19 q 285 -15 310 -15 q 242 2 260 -15 q 225 44 225 19 q 242 88 225 69 q 285 106 260 106 q 328 88 310 106 q 346 44 346 69 m 536 44 q 518 2 536 19 q 475 -15 500 -15 q 433 2 450 -15 q 415 44 415 19 q 433 88 415 69 q 475 106 450 106 q 518 88 500 106 q 536 44 536 69 z "},"":{"ha":606,"x_min":35,"x_max":585,"o":"m 585 385 q 546 195 571 271 q 488 75 521 119 q 417 11 456 31 q 339 -10 379 -8 l 339 -21 l 310 -21 l 310 -10 q 201 27 251 -6 q 115 113 151 60 q 56 235 78 165 q 35 385 35 306 q 56 534 35 464 q 115 657 78 604 q 201 742 151 710 q 310 781 251 775 l 310 793 l 339 793 l 339 781 q 402 767 375 779 q 449 742 429 756 q 486 707 471 726 l 451 418 l 438 418 q 447 588 450 521 q 428 694 443 654 q 390 751 414 733 q 339 771 367 768 l 339 32 l 346 32 q 403 42 371 32 q 469 89 436 53 q 530 195 501 125 q 572 385 558 265 l 585 385 m 124 385 q 138 251 124 311 q 178 146 153 190 q 237 73 203 101 q 310 36 271 44 l 310 769 q 237 731 271 764 q 178 645 203 697 q 138 526 153 593 q 124 385 124 460 z "},"":{"ha":754,"x_min":7,"x_max":719,"o":"m 429 450 q 526 407 475 428 q 620 360 578 386 q 691 298 663 335 q 719 204 719 261 q 699 118 719 157 q 644 51 679 79 q 563 6 610 22 q 461 -10 515 -10 l 464 0 q 535 15 501 0 q 594 53 568 31 q 636 104 621 76 q 651 158 651 132 q 624 235 651 203 q 558 290 597 267 q 476 333 519 314 q 397 368 432 351 q 332 418 349 394 q 319 466 315 442 q 340 518 322 490 q 376 581 357 546 q 412 663 396 617 q 428 769 428 708 q 396 951 428 888 q 306 1015 364 1015 q 252 994 274 1015 q 216 938 231 972 q 194 862 201 904 q 183 778 186 819 q 178 699 179 736 q 178 638 178 661 l 178 485 q 178 253 178 339 q 183 119 179 167 q 192 53 186 72 q 207 25 197 35 q 249 14 218 15 q 356 13 279 13 l 356 0 l 7 0 l 7 13 q 42 14 28 13 q 67 24 57 15 q 83 55 76 33 q 92 117 89 76 q 96 219 94 157 q 97 375 97 282 l 7 375 l 7 386 l 97 386 l 97 485 l 97 576 l 97 578 q 115 781 97 696 q 163 919 133 865 q 229 999 192 974 q 306 1024 267 1024 q 385 1004 351 1024 q 443 951 419 985 q 478 870 467 917 q 490 769 490 824 q 479 680 490 719 q 453 609 468 640 q 425 553 439 578 q 404 510 411 529 q 401 477 397 492 q 429 450 406 463 z "}}}
